<?xml version="1.0" standalone="no"?>
<!DOCTYPE svg PUBLIC "-//W3C//DTD SVG 1.1//EN" "http://www.w3.org/Graphics/SVG/1.1/DTD/svg11.dtd" >
<svg xmlns="http://www.w3.org/2000/svg" xmlns:xlink="http://www.w3.org/1999/xlink" version="1.1">
<metadata>
Created by FontForge 20161013 at Fri May  5 14:18:53 2017
 By ,,,
Copyright 2014 Pria Ravichandran (pria.ravichandran@gmail.com)
</metadata>
<defs>
<font id="Palanquin-ExtraLight" horiz-adv-x="308" >
  <font-face 
    font-family="Palanquin ExtraLight"
    font-weight="275"
    font-stretch="normal"
    units-per-em="1000"
    panose-1="2 11 0 4 2 2 3 2 2 4"
    ascent="770"
    descent="-230"
    x-height="485"
    cap-height="680"
    bbox="-496 -412 2240 1320"
    underline-thickness="50"
    underline-position="-200"
    unicode-range="U+000D-FB02"
  />
<missing-glyph horiz-adv-x="636" 
d="M539 696v-696h-442v696h442zM153 651v-607h329v607h-329z" />
    <glyph glyph-name=".notdef" horiz-adv-x="636" 
d="M539 696v-696h-442v696h442zM153 651v-607h329v607h-329z" />
    <glyph glyph-name=".null" horiz-adv-x="0" 
 />
    <glyph glyph-name=".null" horiz-adv-x="0" 
 />
    <glyph glyph-name="nonmarkingreturn" horiz-adv-x="333" 
 />
    <glyph glyph-name="CR" unicode="&#xd;" horiz-adv-x="0" 
 />
    <glyph glyph-name="space" unicode=" " horiz-adv-x="233" 
 />
    <glyph glyph-name="exclam" unicode="!" horiz-adv-x="180" 
d="M128 702l-13 -522l-51 21v501h64zM132 43q0 -19 -12.5 -31t-30.5 -12t-30.5 12t-12.5 31q0 18 12.5 30t30.5 12t30.5 -12t12.5 -30z" />
    <glyph glyph-name="quotedbl" unicode="&#x22;" horiz-adv-x="271" 
d="M253 653q0 -46 -24 -86t-64 -59l-17 27q25 15 41 34.5t18 45.5q-19 1 -29.5 15t-10.5 28q0 17 12 30.5t31 13.5t31 -14.5t12 -34.5zM119 653q0 -46 -24.5 -86t-64.5 -59l-17 27q25 15 41 34.5t17 45.5q-18 1 -28.5 15t-10.5 28q0 17 12 30.5t32 13.5q18 0 30.5 -14.5
t12.5 -34.5z" />
    <glyph glyph-name="numbersign" unicode="#" horiz-adv-x="488" 
d="M422 502l-32 -131h65l7 -44h-84l-34 -143h111l7 -44h-129l-34 -140l-48 5l33 135h-134l-34 -140l-48 5l33 135h-68l-8 44h87l35 143h-114l-8 44h133l32 131h49l-32 -131h134l32 131h49zM196 327l-35 -143h134l35 143h-134z" />
    <glyph glyph-name="dollar" unicode="$" horiz-adv-x="533" 
d="M186 -111v104q-38 6 -72.5 16t-46.5 20l15 43q26 -13 71 -26t95 -13q86 0 131.5 37.5t45.5 89.5q0 113 -183 167.5t-183 203.5q0 53 33.5 94t93.5 59v116l43 -3v-104q10 1 19.5 2t19.5 1q7 0 14 -0.5t14 -1.5v106h44v-112q28 -5 52.5 -13.5t43.5 -17.5l-22 -42
q-26 12 -59 23t-85 11q-72 0 -114 -33.5t-42 -85.5q0 -116 183 -172.5t183 -197.5q0 -58 -36 -101.5t-104 -60.5v-109l-44 4v97q-11 -1 -23 -2t-24 -1h-9.5t-10.5 1v-99h-43z" />
    <glyph glyph-name="percent" unicode="%" horiz-adv-x="800" 
d="M576 706l-309 -710l-52 4l308 710zM333 532q0 -78 -45 -123.5t-108 -45.5q-69 0 -112 44t-43 125q0 78 44.5 124t109.5 46q69 0 111.5 -44.5t42.5 -125.5zM80 532q0 -62 30.5 -93.5t69.5 -31.5q37 0 67.5 30t30.5 95q0 63 -29 94.5t-70 31.5q-36 0 -67.5 -30.5
t-31.5 -95.5zM774 168q0 -78 -45 -123.5t-108 -45.5q-68 0 -111 44t-43 125q0 78 44 124t110 46q69 0 111 -44.5t42 -125.5zM522 168q0 -62 30 -93.5t69 -31.5q37 0 67.5 30.5t30.5 94.5q0 63 -29 94.5t-69 31.5q-37 0 -68 -30t-31 -96z" />
    <glyph glyph-name="ampersand" unicode="&#x26;" horiz-adv-x="677" 
d="M315 33q54 0 97 22.5t73 60.5l-231 212q-13 12 -24.5 23t-22.5 22q-40 -27 -62 -70.5t-22 -97.5q0 -84 60 -128t132 -44zM639 34l-27 -34l-90 81q-35 -43 -87 -68.5t-121 -25.5q-103 0 -174 56.5t-71 159.5q0 67 31 121t79 85q-16 24 -25 51t-9 61q0 71 47 123t128 52
q50 0 87 -12.5t64 -26.5l-21 -41q-25 12 -51 22.5t-75 10.5q-56 0 -91 -38t-35 -85q0 -54 28 -93.5t80 -88.5l204 -191q22 40 35 88.5t14 97.5l41 -15q-1 -57 -14.5 -109.5t-38.5 -95.5z" />
    <glyph glyph-name="quotesingle" unicode="'" horiz-adv-x="136" 
d="M119 653q0 -46 -24.5 -86t-64.5 -59l-17 27q25 15 41 34.5t17 45.5q-18 1 -28.5 15t-10.5 28q0 17 12 30.5t32 13.5q18 0 30.5 -14.5t12.5 -34.5z" />
    <glyph glyph-name="parenleft" unicode="(" horiz-adv-x="239" 
d="M51 320q0 79 28 177t91 178l46 -18q-44 -47 -76 -155.5t-32 -180.5q0 -73 32 -183.5t76 -156.5l-46 -18q-63 81 -91 179t-28 178z" />
    <glyph glyph-name="parenright" unicode=")" horiz-adv-x="239" 
d="M188 320q0 -80 -29 -178t-90 -179l-46 18q43 46 75.5 156t32.5 182t-32.5 181.5t-75.5 156.5l46 18q61 -80 90 -178t29 -177z" />
    <glyph glyph-name="asterisk" unicode="*" horiz-adv-x="321" 
d="M181 656l120 29l13 -36l-120 -26l83 -122l-33 -21l-83 116l-81 -116l-36 21l83 122l-119 26l12 36l119 -29v118h42v-118z" />
    <glyph glyph-name="plus" unicode="+" horiz-adv-x="521" 
d="M496 251h-210v-247l-53 4v243h-200l-8 44h208v239l53 -3v-236h200z" />
    <glyph glyph-name="comma" unicode="," horiz-adv-x="146" 
d="M124 37q0 -46 -24.5 -86t-64.5 -59l-17 27q25 15 41.5 34.5t17.5 46.5q-19 1 -29.5 14.5t-10.5 27.5q0 17 12 30t31 13t31.5 -14t12.5 -34z" />
    <glyph glyph-name="hyphen" unicode="-" horiz-adv-x="299" 
d="M276 250h-245l-8 45h245z" />
    <glyph glyph-name="period" unicode="." horiz-adv-x="132" 
d="M109 43q0 -19 -13 -31t-30 -12q-19 0 -31 12t-12 31q0 18 12 30t31 12q17 0 30 -12t13 -30z" />
    <glyph glyph-name="slash" unicode="/" horiz-adv-x="376" 
d="M368 706l-309 -710l-51 4l308 710z" />
    <glyph glyph-name="zero" unicode="0" horiz-adv-x="580" 
d="M291 579q105 0 168 -75.5t63 -214.5q0 -136 -64 -219t-167 -83q-104 0 -168.5 81t-64.5 220q0 135 64.5 213t168.5 78zM291 34q74 0 123.5 70t49.5 182q0 116 -48 181t-125 65q-76 0 -125.5 -65t-49.5 -176q0 -117 49 -187t126 -70z" />
    <glyph glyph-name="one" unicode="1" horiz-adv-x="373" 
d="M323 0h-256l-9 44h110v454l-84 -57l-23 40l125 85h38v-522h92z" />
    <glyph glyph-name="two" unicode="2" horiz-adv-x="484" 
d="M411 415q0 -56 -38.5 -106t-110.5 -113l-169 -152h334l8 -44h-405v50l205 188q65 59 91 95t26 81q0 50 -32 84.5t-98 34.5q-50 0 -91.5 -22.5t-42.5 -23.5l-25 40q1 0 47 26t114 26q102 0 144.5 -54t42.5 -110z" />
    <glyph glyph-name="three" unicode="3" horiz-adv-x="493" 
d="M422 417q0 -54 -33.5 -94t-80.5 -55q56 -13 91 -57t35 -105q0 -77 -59 -129.5t-160 -52.5q-56 0 -106 16.5t-84 35.5l33 39q35 -21 70 -33t90 -12q60 0 109 36.5t49 97.5q0 64 -46.5 102.5t-150.5 38.5h-18l-10 42h34q84 0 131.5 36t47.5 93q0 44 -37 80.5t-100 36.5
q-54 0 -95 -16.5t-65 -32.5l-31 36q39 25 86.5 42t107.5 17q96 0 144 -49.5t48 -112.5z" />
    <glyph glyph-name="four" unicode="4" horiz-adv-x="533" 
d="M494 74h-102v-143h-56v143h-307l-9 51l337 446h35v-452h110zM79 119h257v344z" />
    <glyph glyph-name="five" unicode="5" horiz-adv-x="521" 
d="M86 230l15 336h325l-5 -46h-267l-11 -229q27 19 57.5 29t56.5 10q110 0 159 -59.5t49 -140.5q0 -83 -59 -144.5t-172 -61.5q-55 0 -102 16t-82 35l28 40q35 -21 72.5 -33t87.5 -12q78 0 123 44t45 116t-39.5 113t-105.5 41q-40 0 -73.5 -18t-51.5 -36h-50z" />
    <glyph glyph-name="six" unicode="6" horiz-adv-x="523" 
d="M364 599q-92 -25 -159.5 -105.5t-86.5 -182.5q25 33 69 54.5t90 21.5q94 0 146.5 -60.5t52.5 -136.5q0 -78 -55 -140.5t-143 -62.5q-99 0 -159.5 70t-60.5 203q0 110 78 227t203 147zM277 341q-55 0 -97 -29t-64 -64q1 -94 40.5 -154t119.5 -60q67 0 105.5 47t38.5 104
q0 63 -38 109.5t-105 46.5z" />
    <glyph glyph-name="seven" unicode="7" horiz-adv-x="470" 
d="M57 -49l319 569h-327l-8 46h377l22 -29l-330 -606z" />
    <glyph glyph-name="eight" unicode="8" horiz-adv-x="540" 
d="M459 481q0 -51 -34 -87.5t-74 -54.5q53 -13 94.5 -60t41.5 -110q0 -72 -55 -127t-162 -55q-108 0 -162.5 53.5t-54.5 128.5q0 54 40 105.5t97 64.5q-46 18 -77.5 55t-31.5 87q0 63 46.5 112.5t142.5 49.5q97 0 143 -50.5t46 -111.5zM137 481q0 -42 34.5 -77t98.5 -44
q63 9 98 45t35 76q0 46 -33 81t-103 35q-67 0 -98.5 -36t-31.5 -80zM110 164q0 -57 46 -94t114 -37q65 0 112 36.5t47 94.5q0 57 -40 99.5t-119 52.5q-80 -10 -120 -52.5t-40 -99.5z" />
    <glyph glyph-name="nine" unicode="9" horiz-adv-x="523" 
d="M245 178q-94 0 -146.5 60.5t-52.5 136.5q0 78 55 140.5t143 62.5q99 0 159.5 -70t60.5 -204q0 -110 -78 -226.5t-203 -146.5l-25 36q93 23 160 104t86 183q-25 -32 -69.5 -54t-89.5 -22zM246 532q-67 0 -105 -47.5t-38 -104.5q0 -63 37.5 -109.5t104.5 -46.5
q55 0 97 29.5t64 63.5q-2 94 -41 154.5t-119 60.5z" />
    <glyph glyph-name="colon" unicode=":" horiz-adv-x="132" 
d="M23 402q0 18 12 31t30 13t31 -13t13 -31t-13 -30t-31 -12t-30 12t-12 30zM23 84q0 18 12 30.5t30 12.5t31 -12.5t13 -30.5q0 -19 -13 -31t-31 -12t-30 12t-12 31z" />
    <glyph glyph-name="semicolon" unicode=";" horiz-adv-x="147" 
d="M38 402q0 18 12 31t31 13q18 0 30.5 -13t12.5 -31t-12.5 -30t-30.5 -12q-19 0 -31 12t-12 30zM124 77q0 -45 -24.5 -85t-64.5 -59l-17 27q25 15 41.5 34.5t17.5 46.5q-19 1 -29.5 14.5t-10.5 27.5q0 18 12 31t31 13t31.5 -14.5t12.5 -35.5z" />
    <glyph glyph-name="less" unicode="&#x3c;" horiz-adv-x="318" 
d="M269 19l-249 207v38l249 206l23 -39l-221 -186l221 -186z" />
    <glyph glyph-name="equal" unicode="=" horiz-adv-x="488" 
d="M462 327h-429l-8 44h430zM462 140h-429l-8 44h430z" />
    <glyph glyph-name="greater" unicode="&#x3e;" horiz-adv-x="318" 
d="M48 470l250 -207v-38l-250 -206l-23 39l221 186l-221 186z" />
    <glyph glyph-name="question" unicode="?" horiz-adv-x="393" 
d="M371 538q0 -57 -47 -113t-130 -93l-9 -194l-40 19l-7 206q78 25 126 71t48 103q0 60 -32.5 88.5t-92.5 28.5q-54 0 -90.5 -16.5t-75.5 -44.5l-8 48q33 24 75 42.5t101 18.5q94 0 138 -46t44 -118zM204 43q0 -19 -13 -31t-31 -12q-19 0 -30.5 12t-11.5 31q0 18 11.5 30
t30.5 12q18 0 31 -12t13 -30z" />
    <glyph glyph-name="at" unicode="@" horiz-adv-x="787" 
d="M573 63q-25 0 -46 9.5t-34 26.5q-19 -13 -45 -23t-51 -10q-76 0 -117.5 40.5t-41.5 104.5q0 87 65 141t152 54h71l19 -22l-24 -201q-1 -2 -1 -4v-3q0 -38 16.5 -53.5t41.5 -15.5q46 0 77 48.5t31 141.5q0 111 -69 181.5t-188 70.5q-134 0 -228.5 -91t-94.5 -244
q0 -125 78 -197t190 -72q43 0 87.5 9t75.5 26l15 -42q-42 -22 -91 -30.5t-98 -8.5q-123 0 -218 85t-95 229q0 155 100 268t282 113q135 0 220 -82.5t85 -207.5q0 -119 -44.5 -180t-119.5 -61zM397 107q23 0 44 7t34 18q-2 8 -3 16.5t-1 18.5q0 5 0.5 11t0.5 12l23 177h-45
q-63 0 -110 -42t-47 -114q0 -43 26.5 -73.5t77.5 -30.5z" />
    <glyph glyph-name="A" unicode="A" horiz-adv-x="588" 
d="M288 607l-130 -354h265zM315 680l260 -670l-56 -10l-80 208h-296l-76 -208h-54l247 680h55z" />
    <glyph glyph-name="B" unicode="B" horiz-adv-x="594" 
d="M102 0v680h143q107 0 176 -37.5t69 -139.5q0 -51 -25 -86t-66 -55q62 -19 100.5 -61t38.5 -113q0 -107 -75.5 -147.5t-180.5 -40.5h-180zM252 634h-94v-259h91q78 1 131 28t53 99q0 78 -49.5 105t-131.5 27zM300 330h-142v-285h131q80 0 136 31t56 110q0 76 -49.5 110
t-131.5 34z" />
    <glyph glyph-name="C" unicode="C" horiz-adv-x="584" 
d="M363 645q-107 -1 -170 -86t-63 -222q0 -122 54 -212t170 -90q54 0 88.5 9t61.5 21l24 -42q-28 -15 -78 -26t-93 -11q-156 0 -222 105.5t-66 244.5q0 149 73.5 253.5t220.5 104.5q31 0 84 -9t81 -28l-20 -41q-31 13 -61 21t-84 8z" />
    <glyph glyph-name="D" unicode="D" horiz-adv-x="675" 
d="M102 0v680h213q157 0 223.5 -98.5t66.5 -237.5q0 -142 -73.5 -243t-222.5 -101h-207zM321 634h-163v-589h153q107 0 173 83.5t66 214.5q0 121 -56.5 206t-172.5 85z" />
    <glyph glyph-name="E" unicode="E" horiz-adv-x="519" 
d="M102 0v680h354l5 -42h-303v-269h200l5 -42h-205v-283h320l6 -44h-382z" />
    <glyph glyph-name="F" unicode="F" horiz-adv-x="477" 
d="M353 323h-195v-323h-56v680h343l7 -42h-294v-273h189z" />
    <glyph glyph-name="G" unicode="G" horiz-adv-x="643" 
d="M361 342h202v-311q-28 -19 -80.5 -32t-95.5 -13q-155 0 -236.5 100.5t-81.5 249.5q0 158 89 258t235 100q31 0 84.5 -9t81.5 -28l-19 -40q-31 13 -61.5 21t-83.5 8q-117 0 -191 -85t-74 -230q0 -137 70 -216.5t186 -79.5q36 0 66.5 7t55.5 16v242h-153z" />
    <glyph glyph-name="H" unicode="H" horiz-adv-x="653" 
d="M495 0v322h-337v-322h-56v680l56 5v-319h337v314h55v-680h-55z" />
    <glyph glyph-name="I" unicode="I" horiz-adv-x="260" 
d="M102 0v680h56v-680h-56z" />
    <glyph glyph-name="J" unicode="J" horiz-adv-x="260" 
d="M107 134v546h55v-558q0 -60 -23 -91t-95 -53l-24 37q50 19 68.5 39t18.5 80z" />
    <glyph glyph-name="K" unicode="K" horiz-adv-x="591" 
d="M516 660l-240 -266l305 -394h-68l-273 354l-82 -91v-263h-56v680h56v-350l321 365z" />
    <glyph glyph-name="L" unicode="L" horiz-adv-x="499" 
d="M478 0h-376v680h56v-636h315z" />
    <glyph glyph-name="M" unicode="M" horiz-adv-x="751" 
d="M367 237l-209 317v-554h-56v680h29l244 -360l240 360h34v-680h-56v559l-206 -318z" />
    <glyph glyph-name="N" unicode="N" horiz-adv-x="680" 
d="M102 0v680h35l352 -501l34 -59v560h56v-680h-34l-373 538l-14 29v-567h-56z" />
    <glyph glyph-name="O" unicode="O" horiz-adv-x="717" 
d="M648 345q0 -141 -74 -250t-218 -109q-152 0 -219.5 106.5t-67.5 244.5q0 149 75 254t218 105q151 0 218.5 -106t67.5 -245zM354 34q107 0 170 89t63 221q0 122 -53.5 212.5t-170.5 90.5q-107 0 -170 -89t-63 -220q0 -122 54 -213t170 -91z" />
    <glyph glyph-name="P" unicode="P" horiz-adv-x="569" 
d="M102 0v680h170q106 0 175.5 -47t69.5 -158q0 -110 -75 -160.5t-181 -50.5h-103v-264h-56zM279 633h-121v-323h110q80 0 136 39.5t56 124.5q0 88 -49.5 123.5t-131.5 35.5z" />
    <glyph glyph-name="Q" unicode="Q" horiz-adv-x="717" 
d="M648 345q0 -75 -21 -143.5t-63 -118.5l71 -69q-8 -7 -17 -14t-17 -14l-69 64q-34 -29 -78.5 -46.5t-97.5 -17.5q-152 0 -219.5 106.5t-67.5 244.5q0 149 75 254t218 105q151 0 218.5 -106t67.5 -245zM354 34q41 0 76 13.5t62 39.5l-104 99l39 33l97 -96q30 41 46.5 98
t16.5 123q0 122 -53.5 212.5t-170.5 90.5q-107 0 -170 -89t-63 -220q0 -122 54 -213t170 -91z" />
    <glyph glyph-name="R" unicode="R" horiz-adv-x="612" 
d="M274 633h-116v-302h105q76 0 136.5 34t60.5 119q0 87 -54 118t-132 31zM517 486q-1 -70 -35 -113.5t-88 -64.5l177 -308h-63l-162 293q-21 -4 -42 -5.5t-43 -1.5h-103v-286h-56v680h170q106 0 175.5 -43.5t69.5 -150.5z" />
    <glyph glyph-name="S" unicode="S" horiz-adv-x="533" 
d="M248 33q86 0 131.5 37.5t45.5 89.5q0 113 -183 170t-183 202q0 71 56.5 117.5t152.5 46.5q50 0 94 -12t74 -27l-22 -42q-26 12 -59 23t-85 11q-72 0 -114 -33.5t-42 -85.5q0 -117 183 -172.5t183 -199.5q0 -75 -60 -123t-171 -48q-43 0 -104 13.5t-78 28.5l15 43
q26 -13 71 -26t95 -13z" />
    <glyph glyph-name="T" unicode="T" horiz-adv-x="514" 
d="M498 636h-214v-636h-56v636h-213v44h478z" />
    <glyph glyph-name="U" unicode="U" horiz-adv-x="667" 
d="M333 35q89 0 137.5 60t48.5 147v438h56v-441q0 -109 -63 -180t-179 -71q-115 0 -178 71t-63 180v441h55v-438q0 -87 50 -147t136 -60z" />
    <glyph glyph-name="V" unicode="V" horiz-adv-x="588" 
d="M272 0l-259 669l55 11l231 -608l222 608h54l-247 -680h-56z" />
    <glyph glyph-name="W" unicode="W" horiz-adv-x="949" 
d="M668 0l-195 588l-186 -588h-56l-218 669l55 11l190 -602l190 602h54l193 -602l187 602h55l-213 -680h-56z" />
    <glyph glyph-name="X" unicode="X" horiz-adv-x="608" 
d="M20 0l249 345l-231 324l60 11l214 -302l215 302h61l-246 -346l239 -334h-64l-217 304l-223 -314z" />
    <glyph glyph-name="Y" unicode="Y" horiz-adv-x="541" 
d="M240 0l1 272l-233 397l60 11l200 -352l204 352h62l-238 -402v-278h-56z" />
    <glyph glyph-name="Z" unicode="Z" horiz-adv-x="542" 
d="M496 0h-463l-6 50l428 586h-391l-10 44h452l5 -49l-425 -587h405z" />
    <glyph glyph-name="bracketleft" unicode="[" horiz-adv-x="259" 
d="M92 696h159l-8 -42h-98v-701h98l8 -41h-159v784z" />
    <glyph glyph-name="backslash" unicode="\" horiz-adv-x="376" 
d="M316 -4l-308 710l52 4l308 -710z" />
    <glyph glyph-name="bracketright" unicode="]" horiz-adv-x="259" 
d="M8 696h158v-784h-158l8 42h97v700h-97z" />
    <glyph glyph-name="asciicircum" unicode="^" horiz-adv-x="425" 
d="M72 143h-54l169 247h51l169 -247h-54l-140 203z" />
    <glyph glyph-name="underscore" unicode="_" horiz-adv-x="420" 
d="M397 0h-366l-8 44h366z" />
    <glyph glyph-name="grave" unicode="`" horiz-adv-x="152" 
d="M13 742h66l61 -153h-42z" />
    <glyph glyph-name="a" unicode="a" horiz-adv-x="490" 
d="M216 33q47 0 83 23.5t61 56.5v129h-134q-60 0 -89 -31.5t-29 -74.5q0 -40 27 -71.5t81 -31.5zM241 498q83 0 128.5 -43.5t45.5 -114.5v-340h-34l-18 52q-24 -26 -64 -45.5t-84 -19.5q-82 0 -122.5 43t-40.5 106q0 69 48.5 107t124.5 38h135v54q0 50 -28.5 83t-87.5 33
q-51 0 -81 -10.5t-58 -23.5l-19 39q28 19 76.5 30.5t78.5 11.5z" />
    <glyph glyph-name="b" unicode="b" horiz-adv-x="531" 
d="M82 0v696l55 10v-262q30 23 65.5 38.5t69.5 15.5q107 0 157.5 -72.5t50.5 -183.5t-50.5 -183t-157.5 -72q-35 0 -72.5 15.5t-68.5 40.5l-15 -43h-34zM271 34q82 0 117.5 59.5t35.5 147.5q0 89 -35.5 149.5t-117.5 60.5q-30 0 -66.5 -15t-67.5 -44v-300q31 -29 67.5 -43.5
t66.5 -14.5z" />
    <glyph glyph-name="c" unicode="c" horiz-adv-x="456" 
d="M261 -13q-107 0 -159 72.5t-52 185.5q0 109 55.5 181t162.5 72q29 0 70.5 -11.5t70.5 -30.5l-20 -39q-25 12 -50 23t-74 11q-80 0 -119 -60t-39 -145q0 -89 35.5 -151t117.5 -62q51 0 74.5 10.5t49.5 23.5l20 -39q-30 -19 -71 -30t-72 -11z" />
    <glyph glyph-name="d" unicode="d" horiz-adv-x="531" 
d="M260 451q-82 0 -117.5 -60t-35.5 -148q0 -89 35.5 -149t117.5 -60q30 0 66 14.5t67 43.5v300q-31 29 -67 44t-66 15zM449 705v-705h-34l-16 43q-31 -25 -68.5 -40.5t-72.5 -15.5q-106 0 -157 71.5t-51 182.5q0 112 51 184.5t157 72.5q33 0 69.5 -15.5t65.5 -38.5v252z
" />
    <glyph glyph-name="e" unicode="e" horiz-adv-x="509" 
d="M461 240h-354q1 -87 40.5 -147.5t129.5 -60.5q53 0 85.5 10.5t57.5 23.5l21 -41q-30 -19 -79.5 -28.5t-78.5 -9.5q-119 0 -176 72.5t-57 185.5q0 109 54.5 181t161.5 72q96 0 145.5 -73.5t49.5 -184.5zM261 451q-72 0 -108.5 -50t-43.5 -121h295q-7 71 -39 121t-104 50z
" />
    <glyph glyph-name="f" unicode="f" horiz-adv-x="280" 
d="M24 472h73v91q0 63 29 101t83 38q20 0 38 -4.5t28 -8.5l-12 -45q-6 3 -18.5 6t-22.5 3q-38 0 -53.5 -23t-15.5 -59v-99h88l21 -42h-109v-430h-56v430h-73v42z" />
    <glyph glyph-name="g" unicode="g" horiz-adv-x="531" 
d="M260 451q-82 0 -117.5 -60t-35.5 -148q0 -89 35.5 -149t117.5 -60q30 0 66 14.5t67 43.5v300q-31 29 -67 44t-66 15zM260 -221q-29 0 -78 11t-77 30l19 40q30 -13 57.5 -24t76.5 -11q61 0 98 28.5t37 88.5v98q-29 -24 -65.5 -38.5t-69.5 -14.5q-106 0 -157 71.5
t-51 182.5q0 112 51 184.5t157 72.5q35 0 72.5 -16.5t67.5 -41.5l17 45h34v-538q0 -72 -47 -120t-142 -48z" />
    <glyph glyph-name="h" unicode="h" horiz-adv-x="534" 
d="M82 0v696l55 10v-295q31 35 78.5 61t92.5 26q78 0 114.5 -45.5t36.5 -115.5v-336h-56v330q0 50 -24.5 84.5t-77.5 35.5q-32 0 -81 -24t-83 -67v-360h-55z" />
    <glyph glyph-name="i" unicode="i" horiz-adv-x="224" 
d="M69 638q0 18 12 30t31 12q17 0 30 -12t13 -30q0 -19 -13 -31t-30 -12q-19 0 -31 12t-12 31zM84 0v485h56v-485h-56z" />
    <glyph glyph-name="j" unicode="j" horiz-adv-x="224" 
d="M69 638q0 18 12 30t31 12q17 0 30 -12t13 -30q0 -19 -13 -31t-30 -12q-19 0 -31 12t-12 31zM84 -55v540h56v-547q0 -63 -29.5 -98.5t-101.5 -58.5l-21 39q49 19 72.5 44t23.5 81z" />
    <glyph glyph-name="k" unicode="k" horiz-adv-x="467" 
d="M82 0v696l55 10v-441l225 233l38 -34l-153 -155l210 -309h-67l-180 272l-73 -74v-198h-55z" />
    <glyph glyph-name="l" unicode="l" horiz-adv-x="219" 
d="M82 0v696l55 10v-706h-55z" />
    <glyph glyph-name="m" unicode="m" horiz-adv-x="818" 
d="M82 0v485h34l20 -59q31 30 73.5 51t82.5 21q53 0 85.5 -22t48.5 -59q31 33 77 57t89 24q79 0 115 -45.5t36 -115.5v-337h-56v331q0 50 -25 84.5t-77 35.5q-34 0 -72.5 -20t-72.5 -57q1 -9 1.5 -16t0.5 -15v-343h-56v331q0 50 -24 84.5t-76 35.5q-35 0 -75 -20.5
t-74 -60.5v-370h-55z" />
    <glyph glyph-name="n" unicode="n" horiz-adv-x="534" 
d="M82 0v485h34l20 -76q31 36 79 62.5t93 26.5q78 0 114.5 -45.5t36.5 -115.5v-337h-56v331q0 50 -24.5 84.5t-77.5 35.5q-32 0 -81 -24t-83 -67v-360h-55z" />
    <glyph glyph-name="o" unicode="o" horiz-adv-x="512" 
d="M50 245q1 107 53 180t156 73q107 0 155 -73.5t48 -185.5q0 -110 -54 -181t-159 -71q-105 1 -152 74.5t-47 183.5zM261 452q-80 0 -117 -60.5t-37 -145.5q0 -89 31 -151t112 -62t118.5 59.5t37.5 146.5t-31.5 150t-113.5 63z" />
    <glyph glyph-name="p" unicode="p" horiz-adv-x="531" 
d="M271 34q82 0 117.5 59.5t35.5 147.5q0 89 -35.5 149.5t-117.5 60.5q-30 0 -66.5 -15t-67.5 -44v-300q31 -29 67.5 -43.5t66.5 -14.5zM82 -219v704h34l15 -45q31 24 68.5 41t72.5 17q107 0 157.5 -72.5t50.5 -183.5t-50.5 -183t-157.5 -72q-34 0 -69.5 14.5t-65.5 38.5
v-248z" />
    <glyph glyph-name="q" unicode="q" horiz-adv-x="531" 
d="M449 485v-693l-56 -11v259q-29 -24 -65.5 -38.5t-69.5 -14.5q-106 0 -157 71.5t-51 182.5q0 112 51 184.5t157 72.5q35 0 72.5 -17t68.5 -41l16 45h34zM260 451q-82 0 -117.5 -60t-35.5 -148q0 -89 35.5 -149t117.5 -60q30 0 66 14.5t67 43.5v300q-31 29 -67 44t-66 15z
" />
    <glyph glyph-name="r" unicode="r" horiz-adv-x="315" 
d="M82 0v485h34l18 -67q26 22 68.5 44.5t80.5 22.5l17 -44q-46 0 -90.5 -24.5t-72.5 -55.5v-361h-55z" />
    <glyph glyph-name="s" unicode="s" horiz-adv-x="439" 
d="M207 33q60 0 94 22.5t34 63.5q0 35 -37.5 61.5t-90.5 45.5q-57 20 -103 53t-46 85q0 60 45 97t127 37q31 0 74 -11t68 -29l-20 -41q-20 10 -50.5 22t-75.5 12q-51 0 -82 -24t-31 -59q0 -34 35.5 -56.5t86.5 -41.5q59 -22 106.5 -57.5t47.5 -89.5q0 -64 -45.5 -100
t-138.5 -36q-30 0 -75.5 9.5t-73.5 28.5l19 44q26 -13 60 -24.5t72 -11.5z" />
    <glyph glyph-name="t" unicode="t" horiz-adv-x="298" 
d="M256 430h-109v-307q0 -36 15.5 -62.5t52.5 -26.5q11 0 23.5 3.5t17.5 5.5l12 -44q-10 -2 -27.5 -7t-38.5 -5q-50 0 -80.5 33t-30.5 96v314h-72v42h72v129l56 22v-151h88z" />
    <glyph glyph-name="u" unicode="u" horiz-adv-x="513" 
d="M432 485v-485h-36l-19 55q-31 -28 -71.5 -47.5t-79.5 -19.5q-80 0 -115.5 45t-35.5 117v335h55v-332q0 -49 25 -83.5t76 -34.5q28 0 69 17.5t76 50.5v382h56z" />
    <glyph glyph-name="v" unicode="v" horiz-adv-x="452" 
d="M202 0l-187 475l57 10l158 -418l152 418h55l-178 -485h-57z" />
    <glyph glyph-name="w" unicode="w" horiz-adv-x="740" 
d="M508 0l-140 401l-129 -401h-57l-167 475l57 10l137 -412l137 412h50l141 -412l133 412h55l-160 -485h-57z" />
    <glyph glyph-name="x" unicode="x" horiz-adv-x="463" 
d="M13 0l181 244l-167 231l57 10l152 -212l153 212h61l-184 -253l171 -232h-62l-151 203l-148 -203h-63z" />
    <glyph glyph-name="y" unicode="y" horiz-adv-x="452" 
d="M206 -3l-191 478l56 10l159 -416q38 104 76.5 208t75.5 208h55l-216 -597q-13 -38 -50 -68t-83 -39l-11 39q37 15 61.5 31.5t35.5 50.5z" />
    <glyph glyph-name="z" unicode="z" horiz-adv-x="455" 
d="M418 453l-312 -411h296l10 -42h-367l-8 31l308 411h-263l-16 43h349z" />
    <glyph glyph-name="braceleft" unicode="{" horiz-adv-x="268" 
d="M195 419q0 -44 -17 -71.5t-47 -38.5q28 -13 46 -41t18 -71q0 -27 -19 -71t-19 -70q0 -22 17.5 -40t54.5 -18h19l7 -42h-26q-63 0 -93.5 28.5t-30.5 77.5q0 31 18 71.5t18 71.5q0 38 -24 60.5t-54 22.5h-33v39h33q30 0 54 23t24 60q0 31 -18 72t-18 72q0 48 30.5 76.5
t93.5 28.5h26l-7 -42h-19q-37 0 -54.5 -18t-17.5 -39q0 -27 19 -71t19 -70z" />
    <glyph glyph-name="bar" unicode="|" horiz-adv-x="260" 
d="M158 706v-710l-56 4v710z" />
    <glyph glyph-name="braceright" unicode="}" horiz-adv-x="268" 
d="M72 197q0 43 17.5 70.5t47.5 38.5q-28 13 -46.5 41.5t-18.5 71.5q0 26 19 70t19 71q0 21 -17.5 39t-53.5 18h-19l-7 42h25q64 0 94.5 -28.5t30.5 -76.5q0 -31 -18.5 -72t-18.5 -72q0 -37 24 -60t54 -23h33v-38h-33q-30 0 -54 -23t-24 -61q0 -31 18.5 -71.5t18.5 -71.5
q0 -49 -30.5 -77.5t-94.5 -28.5h-25l7 42h19q36 0 53.5 18t17.5 40q0 26 -19 70t-19 71z" />
    <glyph glyph-name="asciitilde" unicode="~" horiz-adv-x="365" 
d="M251 204q-34 0 -70 24t-67 24q-19 0 -33 -11t-15 -31l-43 2q0 43 26 63t65 20q42 0 76 -24t60 -24q19 0 33 10.5t15 31.5l43 -2q0 -43 -26 -63t-64 -20z" />
    <glyph glyph-name="uni00A0" unicode="&#xa0;" horiz-adv-x="233" 
 />
    <glyph glyph-name="exclamdown" unicode="&#xa1;" horiz-adv-x="180" 
d="M46 659q0 18 13 30.5t31 12.5q19 0 31 -12.5t12 -30.5q0 -19 -12 -31.5t-31 -12.5q-18 0 -31 12.5t-13 31.5zM52 0l12 521l52 -20v-501h-64z" />
    <glyph glyph-name="cent" unicode="&#xa2;" horiz-adv-x="456" 
d="M290 605v-109q29 -3 62 -13.5t57 -26.5l-20 -39q-25 12 -50 23t-74 11q-80 0 -119 -60t-39 -145q0 -89 35.5 -151t117.5 -62q51 0 74.5 10.5t49.5 23.5l20 -39q-23 -15 -54 -25t-60 -14v-100l-45 2v96q-99 6 -147 78t-48 180q0 103 49.5 173t145.5 78v109h45z" />
    <glyph glyph-name="sterling" unicode="&#xa3;" horiz-adv-x="436" 
d="M185 553v-180h138l22 -41h-160v-184q0 -34 -7.5 -59.5t-26.5 -44.5h260l6 -44h-351q-1 11 -1.5 22t-0.5 22q36 1 50.5 24t14.5 59v205h-71l-2 41h73v172q0 63 29 101t82 38q17 0 33.5 -4.5t32.5 -8.5l-12 -45q-5 3 -17.5 6.5t-22.5 3.5q-38 0 -53.5 -23.5t-15.5 -59.5z
" />
    <glyph glyph-name="currency" unicode="&#xa4;" horiz-adv-x="664" 
d="M62 540l107 -106q32 28 74.5 46t92.5 18q49 0 89.5 -17t71.5 -45q26 25 52 51.5t52 52.5l32 -37l-104 -105q22 -32 34 -73t12 -86q0 -43 -13 -82t-35 -70q26 -27 52.5 -54t53.5 -53l-32 -36l-108 106q-31 -30 -74.5 -46.5t-93.5 -16.5q-48 0 -88.5 16t-69.5 44l-105 -103
l-32 36q26 26 52.5 52t51.5 52q-22 33 -34 74t-12 87q0 43 13 82t35 70q-26 27 -53 53t-53 53zM336 451q-83 0 -137 -60t-54 -145q0 -92 50 -152t131 -60q84 0 138 59t54 146t-47.5 149.5t-134.5 62.5z" />
    <glyph glyph-name="yen" unicode="&#xa5;" horiz-adv-x="551" 
d="M245 0v84h-174l-6 44h181v131h-175l-6 44h162l-219 366l60 11l205 -352l209 352h62l-226 -377h162l7 -44h-185v-131h178l7 -44h-186v-84h-56z" />
    <glyph glyph-name="brokenbar" unicode="&#xa6;" horiz-adv-x="260" 
d="M158 706v-300l-56 4v300zM158 288v-292l-56 4v292z" />
    <glyph glyph-name="section" unicode="&#xa7;" horiz-adv-x="594" 
d="M486 254q0 89 -123 133t-197 120q-25 -16 -38.5 -40.5t-13.5 -53.5q0 -90 121.5 -136t195.5 -118q27 18 41 42.5t14 52.5zM248 -73q86 0 131.5 37.5t45.5 89.5q0 113 -183 161t-183 200q0 41 20.5 75t56.5 56q-8 16 -12.5 33.5t-4.5 36.5q1 69 57 116.5t153 47.5
q50 0 93.5 -12t73.5 -27l-22 -41q-26 12 -58.5 23t-85.5 11q-72 0 -113.5 -34t-41.5 -86q0 -117 182.5 -167.5t182.5 -193.5q0 -43 -20 -78t-57 -57q8 -15 12.5 -33.5t4.5 -32.5q0 -75 -60 -123t-171 -48q-43 0 -104 13.5t-78 28.5l15 44q26 -13 71 -26.5t95 -13.5z" />
    <glyph glyph-name="dieresis" unicode="&#xa8;" horiz-adv-x="264" 
d="M251 658q0 -17 -12 -28.5t-28 -11.5q-18 0 -29 11.5t-11 28.5q0 16 11 27.5t29 11.5q16 0 28 -11.5t12 -27.5zM93 658q0 -17 -12 -28.5t-28 -11.5q-17 0 -28.5 11.5t-11.5 28.5q0 16 11.5 27.5t28.5 11.5q16 0 28 -11.5t12 -27.5z" />
    <glyph glyph-name="copyright" unicode="&#xa9;" horiz-adv-x="847" 
d="M423 -16q-166 0 -261.5 102t-95.5 250q0 149 97 251.5t260 102.5t260 -102.5t97 -251.5q0 -148 -97 -250t-260 -102zM423 27q140 0 222.5 89.5t82.5 220.5t-82.5 220t-222.5 89t-222 -89t-82 -220t82 -220.5t222 -89.5zM435 113q-95 0 -152 61.5t-57 166.5
q0 104 58.5 165.5t153.5 61.5q30 0 71 -11t66 -31l-20 -38q-23 13 -49.5 23.5t-69.5 10.5q-73 0 -113.5 -50t-40.5 -130q0 -87 38.5 -135.5t113.5 -48.5q43 0 69.5 10.5t48.5 23.5l20 -37q-25 -20 -65.5 -31t-71.5 -11z" />
    <glyph glyph-name="ordfeminine" unicode="&#xaa;" horiz-adv-x="344" 
d="M157 403q28 0 51.5 15.5t39.5 37.5v69h-77q-36 0 -57.5 -16.5t-21.5 -44.5q0 -22 17.5 -41.5t47.5 -19.5zM167 702q64 0 98 -37.5t34 -84.5v-208h-37l-11 36q-16 -18 -41 -31.5t-53 -13.5q-51 0 -83 29t-32 72q0 46 34.5 71.5t85.5 25.5h86v21q0 34 -20 55t-60 21
q-34 0 -54 -7.5t-38 -14.5l-12 37q19 13 51 21t52 8z" />
    <glyph glyph-name="guillemotleft" unicode="&#xab;" horiz-adv-x="359" 
d="M182 264l140 142l21 -36l-118 -125l118 -125l-21 -36l-140 142v38zM30 264l140 142l21 -36l-117 -125l117 -125l-21 -36l-140 142v38z" />
    <glyph glyph-name="logicalnot" unicode="&#xac;" horiz-adv-x="508" 
d="M482 356v-244l-53 5v244h-408l-8 45h461z" />
    <glyph glyph-name="softhyphen" unicode="&#xad;" horiz-adv-x="125" 
 />
    <glyph glyph-name="registered" unicode="&#xae;" horiz-adv-x="736" 
d="M369 176q-144 0 -231 90t-87 221q0 132 86.5 222.5t231.5 90.5q143 0 230 -90.5t87 -222.5q0 -131 -87 -221t-230 -90zM369 218q122 1 193.5 78.5t71.5 191.5q0 116 -71.5 192.5t-193.5 76.5q-124 0 -195.5 -76.5t-71.5 -192.5q0 -114 71.5 -191.5t195.5 -78.5zM344 643
h-36v-146h31q42 0 73.5 14t31.5 60q0 49 -28.5 60.5t-71.5 11.5zM469 304l-90 159q-7 0 -14.5 -0.5t-14.5 -0.5h-42v-158h-45v376h92q59 0 97.5 -24.5t38.5 -83.5q0 -38 -20.5 -63t-48.5 -37l99 -168h-52z" />
    <glyph glyph-name="macron" unicode="&#xaf;" horiz-adv-x="266" 
d="M13 683h241v-43h-241v43z" />
    <glyph glyph-name="degree" unicode="&#xb0;" horiz-adv-x="249" 
d="M231 599q0 -45 -31 -73t-76 -28t-75.5 28t-30.5 73q0 43 30.5 73t75.5 30t76 -30t31 -73zM189 599q0 25 -18.5 45t-46.5 20t-45.5 -20t-17.5 -45t18 -45.5t47 -20.5t46 20.5t17 45.5z" />
    <glyph glyph-name="plusminus" unicode="&#xb1;" horiz-adv-x="483" 
d="M454 305h-189v-197l-53 5v192h-179l-8 42h187v187l53 -3v-184h181zM457 0h-424l-8 42h424z" />
    <glyph glyph-name="twosuperior" unicode="&#xb2;" horiz-adv-x="380" 
d="M318 650q0 -42 -25.5 -80.5t-79.5 -86.5l-125 -109h238l6 -38h-302v40l156 139q49 45 65.5 77t16.5 55q0 28 -21 56t-72 28q-38 0 -69 -17.5t-32 -18.5l-20 38q1 0 36.5 19t86.5 19q76 0 108.5 -39.5t32.5 -81.5z" />
    <glyph glyph-name="threesuperior" unicode="&#xb3;" horiz-adv-x="395" 
d="M328 651q0 -41 -24.5 -71.5t-58.5 -41.5q43 -10 67.5 -42.5t24.5 -79.5q0 -58 -45 -98t-124 -40q-42 0 -79.5 12.5t-63.5 27.5l24 35q26 -16 53 -24.5t70 -8.5q45 0 80 24.5t35 70.5q0 49 -30.5 75.5t-108.5 26.5h-20l-7 39h32q62 0 93 25.5t31 68.5q0 34 -26 57.5
t-72 23.5q-43 0 -73.5 -13t-49.5 -25l-22 34q30 19 65 31.5t81 12.5q75 0 111.5 -35.5t36.5 -84.5z" />
    <glyph glyph-name="acute" unicode="&#xb4;" horiz-adv-x="152" 
d="M73 742h67l-86 -153h-41z" />
    <glyph glyph-name="mu" unicode="&#xb5;" horiz-adv-x="520" 
d="M438 485v-485h-35l-19 55q-31 -28 -72 -47.5t-79 -19.5q-31 0 -55 7t-41 19v-222l-55 -11v704h55v-332q0 -49 25 -83.5t76 -34.5q28 0 69 16.5t75 49.5v384h56z" />
    <glyph glyph-name="paragraph" unicode="&#xb6;" horiz-adv-x="819" 
d="M347 0v264h-38q-106 0 -180.5 52t-75.5 159q0 107 69 156t176 49h490v-44h-105v-636h-56v636h-225v-636h-55z" />
    <glyph glyph-name="periodcentered" unicode="&#xb7;" horiz-adv-x="132" 
d="M109 262q0 -18 -13 -30.5t-30 -12.5q-19 0 -31 12.5t-12 30.5t12 30t31 12q17 0 30 -12t13 -30z" />
    <glyph glyph-name="cedilla" unicode="&#xb8;" horiz-adv-x="212" 
d="M92 13h47l-26 -66q40 -6 63 -30.5t23 -50.5q0 -42 -32.5 -64.5t-78.5 -22.5q-18 0 -40 5.5t-35 13.5l15 36q9 -4 26 -9t33 -5q26 0 45 12.5t19 31.5q0 21 -26 38t-69 19z" />
    <glyph glyph-name="onesuperior" unicode="&#xb9;" horiz-adv-x="309" 
d="M259 336h-198l-3 38h79v332l-54 -37l-23 31l96 65h30v-391h66z" />
    <glyph glyph-name="ordmasculine" unicode="&#xba;" horiz-adv-x="369" 
d="M339 532q0 -78 -45.5 -123.5t-109.5 -45.5t-108.5 44t-44.5 125q0 78 45 124t108 46q65 0 110 -44.5t45 -125.5zM83 532q0 -62 31.5 -94.5t69.5 -32.5q37 0 69 31t32 96q0 63 -30 95t-71 32q-36 0 -68.5 -31t-32.5 -96z" />
    <glyph glyph-name="guillemotright" unicode="&#xbb;" horiz-adv-x="359" 
d="M177 226l-140 -142q-6 9 -11.5 18t-10.5 18l118 125q-30 31 -59.5 62.5t-58.5 62.5q5 9 10.5 18t11.5 18l140 -142v-38zM328 226l-139 -142q-6 9 -11.5 18t-10.5 18l118 125q-30 31 -59.5 62.5t-58.5 62.5q5 9 10.5 18t11.5 18l139 -142v-38z" />
    <glyph glyph-name="onequarter" unicode="&#xbc;" horiz-adv-x="728" 
d="M259 336h-198l-3 38h79v332l-54 -37l-23 31l96 65h30v-391h66zM497 498l-290 -502l-50 4l290 501zM693 -70h-77v-93h-48v93h-233q-2 9 -3.5 20.5t-1.5 18.5q4 7 9.5 13t9.5 12l235 327h32v-352h81zM383 -31h185v260q-46 -65 -92.5 -130t-92.5 -130z" />
    <glyph glyph-name="onehalf" unicode="&#xbd;" horiz-adv-x="777" 
d="M259 336h-198l-3 38h79v332l-54 -37l-23 31l96 65h30v-391h66zM491 498l-290 -502l-49 4l290 501zM715 204q0 -42 -25.5 -80.5t-79.5 -86.5l-125 -109h238l6 -38h-301v40l155 140q49 44 65.5 76t16.5 55q0 28 -21 56t-71 28q-38 0 -69.5 -17t-32.5 -18l-19 37q1 0 36 19
t86 19q75 0 108 -39.5t33 -81.5z" />
    <glyph glyph-name="threequarters" unicode="&#xbe;" horiz-adv-x="802" 
d="M571 498l-291 -502l-49 4l290 501zM328 651q0 -41 -24.5 -71.5t-58.5 -41.5q43 -10 67.5 -42.5t24.5 -79.5q0 -58 -45 -98t-124 -40q-42 0 -79.5 12.5t-63.5 27.5l24 35q26 -16 53 -24.5t70 -8.5q45 0 80 24.5t35 70.5q0 49 -30.5 75.5t-108.5 26.5h-20l-7 39h32
q62 0 93 25.5t31 68.5q0 34 -26 57.5t-72 23.5q-43 0 -73.5 -13t-49.5 -25q-5 8 -11 16.5t-11 17.5q30 19 65 31.5t81 12.5q75 0 111.5 -35.5t36.5 -84.5zM767 -70h-77v-93h-48v93h-233q-2 9 -3.5 20t-1.5 19q4 7 9 13l10 12l235 327h32v-352h81zM457 -31h185v260z" />
    <glyph glyph-name="questiondown" unicode="&#xbf;" horiz-adv-x="402" 
d="M197 579q0 18 13 30.5t31 12.5q19 0 31 -12.5t12 -30.5q0 -19 -12 -31.5t-31 -12.5q-18 0 -31 12.5t-13 31.5zM30 83q0 57 47 113.5t131 93.5l8 194l40 -20l7 -206q-78 -25 -125.5 -71t-47.5 -103q0 -60 32 -88.5t92 -28.5q54 0 90.5 16.5t75.5 44.5l8 -48
q-32 -25 -74.5 -42.5t-101.5 -17.5q-94 0 -138 45.5t-44 117.5z" />
    <glyph glyph-name="Agrave" unicode="&#xc0;" horiz-adv-x="588" 
d="M203 892h66l61 -153h-42zM288 607l-130 -354h265zM315 680l260 -670l-56 -10l-80 208h-296l-76 -208h-54l247 680h55z" />
    <glyph glyph-name="Aacute" unicode="&#xc1;" horiz-adv-x="588" 
d="M303 892h67l-86 -153h-41zM288 607l-130 -354h265zM315 680l260 -670l-56 -10l-80 208h-296l-76 -208h-54l247 680h55z" />
    <glyph glyph-name="Acircumflex" unicode="&#xc2;" horiz-adv-x="588" 
d="M208 739h-55l110 153h50l111 -153h-57l-79 114zM288 607l-130 -354h265zM315 680l260 -670l-56 -10l-80 208h-296l-76 -208h-54l247 680h55z" />
    <glyph glyph-name="Atilde" unicode="&#xc3;" horiz-adv-x="588" 
d="M343 758q-34 0 -60.5 26t-51.5 26q-17 0 -28.5 -12.5t-13.5 -35.5h-42q0 50 24 70.5t59 20.5q42 0 64.5 -26t48.5 -26q16 0 27.5 12.5t13.5 35.5h42q0 -50 -24 -70.5t-59 -20.5zM288 607q-32 -88 -64.5 -177t-65.5 -177h265zM315 680l260 -670l-56 -10l-80 208h-296
q-19 -51 -38 -104t-38 -104h-54l247 680h55z" />
    <glyph glyph-name="Adieresis" unicode="&#xc4;" horiz-adv-x="588" 
d="M407 808q0 -17 -11.5 -28.5t-28.5 -11.5t-28.5 11.5t-11.5 28.5q0 16 11.5 27.5t28.5 11.5t28.5 -11.5t11.5 -27.5zM250 808q0 -17 -12 -28.5t-29 -11.5t-28.5 11.5t-11.5 28.5q0 16 11.5 27.5t28.5 11.5t29 -11.5t12 -27.5zM288 607l-130 -354h265zM315 680l260 -670
l-56 -10l-80 208h-296l-76 -208h-54l247 680h55z" />
    <glyph glyph-name="Aring" unicode="&#xc5;" horiz-adv-x="588" 
d="M376 825q0 -35 -26 -58t-62 -23t-62.5 23t-26.5 58q0 36 26.5 60t62.5 24t62 -24t26 -60zM334 825q0 21 -13 34.5t-33 13.5t-33.5 -13.5t-13.5 -34.5q0 -20 13.5 -33.5t33.5 -13.5t33 13.5t13 33.5zM288 607l-130 -354h265zM315 680l260 -670l-56 -10l-80 208h-296
l-76 -208h-54l247 680h55z" />
    <glyph glyph-name="AE" unicode="&#xc6;" horiz-adv-x="849" 
d="M432 208h-243l-128 -208l-53 10l416 670h362l6 -42h-304v-269h200l5 -42h-205v-283h320q1 -11 2.5 -22t2.5 -22h-381v208zM217 253h215v350q-54 -87 -108 -175t-107 -175z" />
    <glyph glyph-name="Ccedilla" unicode="&#xc7;" horiz-adv-x="584" 
d="M363 645q-107 -1 -170 -86t-63 -222q0 -122 54 -212t170 -90q54 0 88.5 9t61.5 21l24 -42q-25 -13 -67 -23.5t-82 -12.5l-15 -40q39 -6 62 -30.5t23 -50.5q0 -42 -32 -64.5t-78 -22.5q-18 0 -40.5 5.5t-35.5 13.5l15 36q9 -4 26 -9t33 -5q26 0 45 12.5t19 31.5
q0 21 -25.5 38t-68.5 19l25 66q-142 9 -202.5 112t-60.5 237q0 149 73.5 253.5t220.5 104.5q31 0 84 -9t81 -28l-20 -41q-31 13 -61 21t-84 8z" />
    <glyph glyph-name="Egrave" unicode="&#xc8;" horiz-adv-x="519" 
d="M188 892h66l61 -153h-42zM102 0v680h354l5 -42h-303v-269h200l5 -42h-205v-283h320l6 -44h-382z" />
    <glyph glyph-name="Eacute" unicode="&#xc9;" horiz-adv-x="519" 
d="M288 892h67l-86 -153h-41zM102 0v680h354l5 -42h-303v-269h200l5 -42h-205v-283h320l6 -44h-382z" />
    <glyph glyph-name="Ecircumflex" unicode="&#xca;" horiz-adv-x="519" 
d="M193 739h-55l110 153h50l111 -153h-57l-79 114zM102 0v680h354l5 -42h-303v-269h200l5 -42h-205v-283h320l6 -44h-382z" />
    <glyph glyph-name="Edieresis" unicode="&#xcb;" horiz-adv-x="519" 
d="M392 808q0 -17 -11.5 -28.5t-28.5 -11.5t-28.5 11.5t-11.5 28.5q0 16 11.5 27.5t28.5 11.5t28.5 -11.5t11.5 -27.5zM235 808q0 -17 -12 -28.5t-29 -11.5t-28.5 11.5t-11.5 28.5q0 16 11.5 27.5t28.5 11.5t29 -11.5t12 -27.5zM102 0v680h354l5 -42h-303v-269h200l5 -42
h-205v-283h320l6 -44h-382z" />
    <glyph glyph-name="Igrave" unicode="&#xcc;" horiz-adv-x="260" 
d="M42 892h66l61 -153h-42zM102 0v680h56v-680h-56z" />
    <glyph glyph-name="Iacute" unicode="&#xcd;" horiz-adv-x="260" 
d="M153 892h67l-86 -153h-41zM102 0v680h56v-680h-56z" />
    <glyph glyph-name="Icircumflex" unicode="&#xce;" horiz-adv-x="260" 
d="M50 739h-55l110 153h50l111 -153h-57l-79 114zM102 0v680h56v-680h-56z" />
    <glyph glyph-name="Idieresis" unicode="&#xcf;" horiz-adv-x="260" 
d="M249 808q0 -17 -11.5 -28.5t-28.5 -11.5t-28.5 11.5t-11.5 28.5q0 16 11.5 27.5t28.5 11.5t28.5 -11.5t11.5 -27.5zM92 808q0 -17 -12 -28.5t-29 -11.5t-28.5 11.5t-11.5 28.5q0 16 11.5 27.5t28.5 11.5t29 -11.5t12 -27.5zM102 0v680h56v-680h-56z" />
    <glyph glyph-name="Eth" unicode="&#xd0;" horiz-adv-x="679" 
d="M105 0v311h-81l-9 45h90v324h214q156 0 223 -98.5t67 -237.5q0 -142 -74 -243t-223 -101h-207zM263 356l9 -45h-111v-266h152q107 0 173.5 83.5t66.5 214.5q0 121 -56.5 206t-172.5 85h-163v-278h102z" />
    <glyph glyph-name="Ntilde" unicode="&#xd1;" horiz-adv-x="680" 
d="M402 758q-34 0 -60.5 26t-51.5 26q-17 0 -28.5 -12.5t-13.5 -35.5h-42q0 50 24 70.5t59 20.5q42 0 64.5 -26t48.5 -26q17 0 28.5 12.5t13.5 35.5h42q0 -50 -24 -70.5t-60 -20.5zM102 0v680h35q87 -125 175.5 -250.5t176.5 -250.5l34 -59v560h56v-680h-34
q-93 134 -186.5 269t-186.5 269l-14 29v-567h-56z" />
    <glyph glyph-name="Ograve" unicode="&#xd2;" horiz-adv-x="717" 
d="M277 892h66l61 -153h-42zM648 345q0 -141 -74 -250t-218 -109q-152 0 -219.5 106.5t-67.5 244.5q0 149 75 254t218 105q151 0 218.5 -106t67.5 -245zM354 34q107 0 170 89t63 221q0 122 -53.5 212.5t-170.5 90.5q-107 0 -170 -89t-63 -220q0 -122 54 -213t170 -91z" />
    <glyph glyph-name="Oacute" unicode="&#xd3;" horiz-adv-x="717" 
d="M377 892h67l-86 -153h-41zM648 345q0 -141 -74 -250t-218 -109q-152 0 -219.5 106.5t-67.5 244.5q0 149 75 254t218 105q151 0 218.5 -106t67.5 -245zM354 34q107 0 170 89t63 221q0 122 -53.5 212.5t-170.5 90.5q-107 0 -170 -89t-63 -220q0 -122 54 -213t170 -91z" />
    <glyph glyph-name="Ocircumflex" unicode="&#xd4;" horiz-adv-x="717" 
d="M282 739h-55l110 153h50l111 -153h-57l-79 114zM648 345q0 -141 -74 -250t-218 -109q-152 0 -219.5 106.5t-67.5 244.5q0 149 75 254t218 105q151 0 218.5 -106t67.5 -245zM354 34q107 0 170 89t63 221q0 122 -53.5 212.5t-170.5 90.5q-107 0 -170 -89t-63 -220
q0 -122 54 -213t170 -91z" />
    <glyph glyph-name="Otilde" unicode="&#xd5;" horiz-adv-x="717" 
d="M417 758q-34 0 -60.5 26t-51.5 26q-17 0 -28.5 -12.5t-13.5 -35.5h-42q0 50 24 70.5t59 20.5q42 0 64.5 -26t48.5 -26q16 0 27.5 12.5t13.5 35.5h42q0 -50 -24 -70.5t-59 -20.5zM648 345q0 -141 -74 -250t-218 -109q-152 0 -219.5 106.5t-67.5 244.5q0 149 75 254
t218 105q151 0 218.5 -106t67.5 -245zM354 34q107 0 170 89t63 221q0 122 -53.5 212.5t-170.5 90.5q-107 0 -170 -89t-63 -220q0 -122 54 -213t170 -91z" />
    <glyph glyph-name="Odieresis" unicode="&#xd6;" horiz-adv-x="717" 
d="M481 808q0 -17 -11.5 -28.5t-28.5 -11.5t-28.5 11.5t-11.5 28.5q0 16 11.5 27.5t28.5 11.5t28.5 -11.5t11.5 -27.5zM324 808q0 -17 -12 -28.5t-29 -11.5t-28.5 11.5t-11.5 28.5q0 16 11.5 27.5t28.5 11.5t29 -11.5t12 -27.5zM648 345q0 -141 -74 -250t-218 -109
q-152 0 -219.5 106.5t-67.5 244.5q0 149 75 254t218 105q151 0 218.5 -106t67.5 -245zM354 34q107 0 170 89t63 221q0 122 -53.5 212.5t-170.5 90.5q-107 0 -170 -89t-63 -220q0 -122 54 -213t170 -91z" />
    <glyph glyph-name="multiply" unicode="&#xd7;" horiz-adv-x="469" 
d="M25 41l170 207l-165 206l52 10l148 -187l157 187h57l-183 -224l167 -209h-56l-148 180l-148 -180z" />
    <glyph glyph-name="Oslash" unicode="&#xd8;" horiz-adv-x="717" 
d="M648 345q0 -141 -74 -250t-218 -109q-152 0 -219.5 106.5t-67.5 244.5q0 149 75 254t218 105q151 0 218.5 -106t67.5 -245zM130 338q0 -78 21.5 -146t67.5 -109l234 543q-19 10 -42 15t-48 5q-107 0 -170 -88.5t-63 -219.5zM354 35q107 0 170 88.5t63 220.5
q0 78 -22.5 146.5t-68.5 108.5l-233 -545q19 -10 42 -14.5t49 -4.5z" />
    <glyph glyph-name="Ugrave" unicode="&#xd9;" horiz-adv-x="667" 
d="M248 892h66l61 -153h-42zM333 35q89 0 137.5 60t48.5 147v438h56v-441q0 -109 -63 -180t-179 -71q-115 0 -178 71t-63 180v441h55v-438q0 -87 50 -147t136 -60z" />
    <glyph glyph-name="Uacute" unicode="&#xda;" horiz-adv-x="667" 
d="M348 892h67l-86 -153h-41zM333 35q89 0 137.5 60t48.5 147v438h56v-441q0 -109 -63 -180t-179 -71q-115 0 -178 71t-63 180v441h55v-438q0 -87 50 -147t136 -60z" />
    <glyph glyph-name="Ucircumflex" unicode="&#xdb;" horiz-adv-x="667" 
d="M253 739h-55l110 153h50l111 -153h-57l-78 114zM333 35q89 0 137.5 60t48.5 147v438h56v-441q0 -109 -63 -180t-179 -71q-115 0 -178 71t-63 180v441h55v-438q0 -87 50 -147t136 -60z" />
    <glyph glyph-name="Udieresis" unicode="&#xdc;" horiz-adv-x="667" 
d="M456 808q0 -17 -12 -28.5t-28 -11.5q-18 0 -29 11.5t-11 28.5q0 16 11 27.5t29 11.5q16 0 28 -11.5t12 -27.5zM298 808q0 -17 -12 -28.5t-28 -11.5q-17 0 -28.5 11.5t-11.5 28.5q0 16 11.5 27.5t28.5 11.5q16 0 28 -11.5t12 -27.5zM333 35q89 0 137.5 60t48.5 147v438h56
v-441q0 -109 -63 -180t-179 -71q-115 0 -178 71t-63 180v441h55v-438q0 -87 50 -147t136 -60z" />
    <glyph glyph-name="Yacute" unicode="&#xdd;" horiz-adv-x="541" 
d="M284 892h67l-86 -153h-41zM240 0l1 272l-233 397l60 11l200 -352l204 352h62l-238 -402v-278h-56z" />
    <glyph glyph-name="Thorn" unicode="&#xde;" horiz-adv-x="575" 
d="M158 680v-116h114q106 0 175.5 -47t69.5 -158q0 -110 -75.5 -160.5t-180.5 -50.5h-103v-148h-56v680h56zM279 518h-121v-324h110q80 0 136 39.5t56 124.5q0 88 -49.5 124t-131.5 36z" />
    <glyph glyph-name="germandbls" unicode="&#xdf;" horiz-adv-x="573" 
d="M291 680q78 0 135 -44.5t57 -132.5q0 -53 -24 -90t-67 -57q54 -19 89.5 -61t35.5 -107q0 -107 -75 -147.5t-181 -40.5h-43v45h51q80 0 135.5 31t55.5 110q0 76 -49.5 110t-131.5 34h-45v45h27q90 0 127.5 32t37.5 95q0 66 -40 98.5t-94 32.5q-74 0 -111.5 -46t-37.5 -114
v-473h-56v473q0 99 55.5 153t148.5 54z" />
    <glyph glyph-name="agrave" unicode="&#xe0;" horiz-adv-x="490" 
d="M157 742h67l61 -153h-42zM216 33q47 0 83 23.5t61 56.5v129h-134q-60 0 -89 -31.5t-29 -74.5q0 -40 27 -71.5t81 -31.5zM241 498q83 0 128.5 -43.5t45.5 -114.5v-340h-34l-18 52q-24 -26 -64 -45.5t-84 -19.5q-82 0 -122.5 43t-40.5 106q0 69 48.5 107t124.5 38h135v54
q0 50 -28.5 83t-87.5 33q-51 0 -81 -10.5t-58 -23.5l-19 39q28 19 76.5 30.5t78.5 11.5z" />
    <glyph glyph-name="aacute" unicode="&#xe1;" horiz-adv-x="490" 
d="M258 742h66l-85 -153h-42zM216 33q47 0 83 23.5t61 56.5v129h-134q-60 0 -89 -31.5t-29 -74.5q0 -40 27 -71.5t81 -31.5zM241 498q83 0 128.5 -43.5t45.5 -114.5v-340h-34l-18 52q-24 -26 -64 -45.5t-84 -19.5q-82 0 -122.5 43t-40.5 106q0 69 48.5 107t124.5 38h135v54
q0 50 -28.5 83t-87.5 33q-51 0 -81 -10.5t-58 -23.5l-19 39q28 19 76.5 30.5t78.5 11.5z" />
    <glyph glyph-name="acircumflex" unicode="&#xe2;" horiz-adv-x="490" 
d="M162 589h-55l111 153h49l111 -153h-56l-79 113zM216 33q47 0 83 23.5t61 56.5v129h-134q-60 0 -89 -31.5t-29 -74.5q0 -40 27 -71.5t81 -31.5zM241 498q83 0 128.5 -43.5t45.5 -114.5v-340h-34l-18 52q-24 -26 -64 -45.5t-84 -19.5q-82 0 -122.5 43t-40.5 106
q0 69 48.5 107t124.5 38h135v54q0 50 -28.5 83t-87.5 33q-51 0 -81 -10.5t-58 -23.5l-19 39q28 19 76.5 30.5t78.5 11.5z" />
    <glyph glyph-name="atilde" unicode="&#xe3;" horiz-adv-x="490" 
d="M297 608q-34 0 -60 26t-52 26q-17 0 -28 -12.5t-13 -35.5h-43q0 50 24 70.5t60 20.5q42 0 64 -26t48 -26q17 0 28.5 12.5t13.5 35.5h42q0 -50 -24 -70.5t-60 -20.5zM216 33q47 0 83 23.5t61 56.5v129h-134q-60 0 -89 -31.5t-29 -74.5q0 -40 27 -71.5t81 -31.5zM241 498
q83 0 128.5 -43.5t45.5 -114.5v-340h-34l-18 52q-24 -26 -64 -45.5t-84 -19.5q-82 0 -122.5 43t-40.5 106q0 69 48.5 107t124.5 38h135v54q0 50 -28.5 83t-87.5 33q-51 0 -81 -10.5t-58 -23.5l-19 39q28 19 76.5 30.5t78.5 11.5z" />
    <glyph glyph-name="adieresis" unicode="&#xe4;" horiz-adv-x="490" 
d="M362 658q0 -17 -12 -28.5t-28 -11.5q-18 0 -29 11.5t-11 28.5q0 16 11 27.5t29 11.5q16 0 28 -11.5t12 -27.5zM205 658q0 -17 -12 -28.5t-28 -11.5q-19 0 -30 11.5t-11 28.5q0 16 11 27.5t30 11.5q16 0 28 -11.5t12 -27.5zM216 33q47 0 83 23.5t61 56.5v129h-134
q-60 0 -89 -31.5t-29 -74.5q0 -40 27 -71.5t81 -31.5zM241 498q83 0 128.5 -43.5t45.5 -114.5v-340h-34l-18 52q-24 -26 -64 -45.5t-84 -19.5q-82 0 -122.5 43t-40.5 106q0 69 48.5 107t124.5 38h135v54q0 50 -28.5 83t-87.5 33q-51 0 -81 -10.5t-58 -23.5l-19 39
q28 19 76.5 30.5t78.5 11.5z" />
    <glyph glyph-name="aring" unicode="&#xe5;" horiz-adv-x="490" 
d="M331 675q0 -35 -26 -58t-62 -23t-62.5 23t-26.5 58q0 36 26.5 60t62.5 24t62 -24t26 -60zM290 675q0 21 -13.5 34.5t-33.5 13.5t-33.5 -13.5t-13.5 -34.5q0 -20 13.5 -33.5t33.5 -13.5t33.5 13.5t13.5 33.5zM216 33q47 0 83 23.5t61 56.5v129h-134q-60 0 -89 -31.5
t-29 -74.5q0 -40 27 -71.5t81 -31.5zM241 498q83 0 128.5 -43.5t45.5 -114.5v-340h-34l-18 52q-24 -26 -64 -45.5t-84 -19.5q-82 0 -122.5 43t-40.5 106q0 69 48.5 107t124.5 38h135v54q0 50 -28.5 83t-87.5 33q-51 0 -81 -10.5t-58 -23.5l-19 39q28 19 76.5 30.5t78.5 11.5
z" />
    <glyph glyph-name="ae" unicode="&#xe6;" horiz-adv-x="819" 
d="M771 240h-354q1 -87 41 -147.5t130 -60.5q53 0 85.5 10.5t57.5 23.5l19 -41q-29 -19 -77 -28.5t-78 -9.5q-69 0 -118.5 26t-76.5 72q-23 -35 -71.5 -66.5t-111.5 -31.5q-84 0 -124.5 43t-40.5 106q0 69 48.5 107t124.5 38h135v54q0 50 -28.5 83t-87.5 33q-51 0 -81 -10.5
t-58 -23.5l-19 39q28 19 76.5 30.5t78.5 11.5q61 0 102 -25t59 -67q26 43 71 67.5t105 24.5q96 0 144.5 -73.5t48.5 -184.5zM571 451q-72 0 -108.5 -50t-44.5 -121h296q-7 71 -39 121t-104 50zM216 33q56 0 97 29.5t65 69.5q-8 25 -13 52t-5 57h-134q-60 0 -89 -31t-29 -74
q0 -40 27 -71.5t81 -31.5z" />
    <glyph glyph-name="ccedilla" unicode="&#xe7;" horiz-adv-x="456" 
d="M404 28q-27 -16 -62 -27t-66 -13l-15 -41q39 -6 62.5 -30.5t23.5 -50.5q0 -42 -32.5 -64.5t-78.5 -22.5q-18 0 -40.5 5.5t-35.5 13.5l16 36q8 -4 25.5 -9t33.5 -5q25 0 44 12.5t19 31.5q0 21 -25.5 38t-68.5 19l26 68q-91 10 -135.5 81t-44.5 175q1 109 56 181t162 72
q29 0 70.5 -11.5t70.5 -30.5l-20 -39q-25 12 -50 23t-74 11q-80 0 -119 -58.5t-39 -146.5q0 -87 35.5 -150t117.5 -63q51 0 74.5 10.5t49.5 23.5z" />
    <glyph glyph-name="egrave" unicode="&#xe8;" horiz-adv-x="509" 
d="M178 742h66l61 -153h-42zM461 240h-354q1 -87 40.5 -147.5t129.5 -60.5q53 0 85.5 10.5t57.5 23.5l21 -41q-30 -19 -79.5 -28.5t-78.5 -9.5q-119 0 -176 72.5t-57 185.5q0 109 54.5 181t161.5 72q96 0 145.5 -73.5t49.5 -184.5zM261 451q-72 0 -108.5 -50t-43.5 -121h295
q-7 71 -39 121t-104 50z" />
    <glyph glyph-name="eacute" unicode="&#xe9;" horiz-adv-x="509" 
d="M278 742h66l-85 -153h-42zM461 240h-354q1 -87 40.5 -147.5t129.5 -60.5q53 0 85.5 10.5t57.5 23.5l21 -41q-30 -19 -79.5 -28.5t-78.5 -9.5q-119 0 -176 72.5t-57 185.5q0 109 54.5 181t161.5 72q96 0 145.5 -73.5t49.5 -184.5zM261 451q-72 0 -108.5 -50t-43.5 -121
h295q-7 71 -39 121t-104 50z" />
    <glyph glyph-name="ecircumflex" unicode="&#xea;" horiz-adv-x="509" 
d="M183 589h-56l111 153h49l111 -153h-57l-78 113zM461 240h-354q1 -87 40.5 -147.5t129.5 -60.5q53 0 85.5 10.5t57.5 23.5l21 -41q-30 -19 -79.5 -28.5t-78.5 -9.5q-119 0 -176 72.5t-57 185.5q0 109 54.5 181t161.5 72q96 0 145.5 -73.5t49.5 -184.5zM261 451
q-72 0 -108.5 -50t-43.5 -121h295q-7 71 -39 121t-104 50z" />
    <glyph glyph-name="edieresis" unicode="&#xeb;" horiz-adv-x="509" 
d="M382 658q0 -17 -12 -28.5t-28 -11.5q-18 0 -29.5 11.5t-11.5 28.5q0 16 11.5 27.5t29.5 11.5q16 0 28 -11.5t12 -27.5zM225 658q0 -17 -12 -28.5t-29 -11.5q-18 0 -29 11.5t-11 28.5q0 16 11 27.5t29 11.5q17 0 29 -11.5t12 -27.5zM461 240h-354q1 -87 40.5 -147.5
t129.5 -60.5q53 0 85.5 10.5t57.5 23.5l21 -41q-30 -19 -79.5 -28.5t-78.5 -9.5q-119 0 -176 72.5t-57 185.5q0 109 54.5 181t161.5 72q96 0 145.5 -73.5t49.5 -184.5zM261 451q-72 0 -108.5 -50t-43.5 -121h295q-7 71 -39 121t-104 50z" />
    <glyph glyph-name="igrave" unicode="&#xec;" horiz-adv-x="220" 
d="M12 742h66l61 -153h-42zM82 0v485h56v-485h-56z" />
    <glyph glyph-name="iacute" unicode="&#xed;" horiz-adv-x="220" 
d="M141 742h67l-86 -153h-41zM82 0v485h56v-485h-56z" />
    <glyph glyph-name="icircumflex" unicode="&#xee;" horiz-adv-x="220" 
d="M30 589h-56l111 153h50l111 -153h-57l-78 113zM82 0v485h56v-485h-56z" />
    <glyph glyph-name="idieresis" unicode="&#xef;" horiz-adv-x="220" 
d="M230 658q0 -17 -12.5 -28.5t-28.5 -11.5q-17 0 -29 11.5t-12 28.5q0 16 12 27.5t29 11.5q16 0 28.5 -11.5t12.5 -27.5zM72 658q0 -17 -12.5 -28.5t-28.5 -11.5q-17 0 -28.5 11.5t-11.5 28.5q0 16 11.5 27.5t28.5 11.5q16 0 28.5 -11.5t12.5 -27.5zM82 0v485h56v-485h-56z
" />
    <glyph glyph-name="eth" unicode="&#xf0;" horiz-adv-x="527" 
d="M126 698q38 -11 76.5 -30t73.5 -45l78 70l27 -34l-72 -63q69 -62 114.5 -149t45.5 -186q0 -133 -60.5 -203.5t-160.5 -70.5q-89 0 -143.5 62.5t-54.5 140.5q0 76 52.5 136.5t145.5 60.5q45 0 90.5 -21.5t70.5 -54.5q-10 72 -46 137.5t-90 115.5l-105 -93l-27 34l99 87
q-31 25 -66.5 43.5t-72.5 28.5q6 8 12.5 16.5t12.5 17.5zM249 341q-67 0 -104.5 -46.5t-37.5 -109.5q0 -57 38 -104t105 -47q80 0 119 60t41 154q-22 35 -64 64t-97 29z" />
    <glyph glyph-name="ntilde" unicode="&#xf1;" horiz-adv-x="534" 
d="M343 608q-34 0 -60.5 26t-52.5 26q-17 0 -28 -12.5t-13 -35.5h-43q0 50 25 70.5t59 20.5q42 0 64.5 -26t47.5 -26q17 0 28.5 12.5t13.5 35.5h42q0 -50 -23.5 -70.5t-59.5 -20.5zM82 0v485h34l20 -76q31 36 79 62.5t93 26.5q78 0 114.5 -45.5t36.5 -115.5v-337h-56v331
q0 49 -24.5 84.5t-77.5 35.5q-32 0 -81 -24t-83 -67v-360h-55z" />
    <glyph glyph-name="ograve" unicode="&#xf2;" horiz-adv-x="512" 
d="M173 742h66l61 -153h-42zM50 245q1 107 53 180t156 73q107 0 155 -73.5t48 -185.5q0 -110 -54 -181t-159 -71q-105 1 -152 74.5t-47 183.5zM261 452q-80 0 -117 -60.5t-37 -145.5q0 -89 31 -151t112 -62t118.5 59.5t37.5 146.5t-31.5 150t-113.5 63z" />
    <glyph glyph-name="oacute" unicode="&#xf3;" horiz-adv-x="512" 
d="M273 742h67l-86 -153h-41zM50 245q1 107 53 180t156 73q107 0 155 -73.5t48 -185.5q0 -110 -54 -181t-159 -71q-105 1 -152 74.5t-47 183.5zM261 452q-80 0 -117 -60.5t-37 -145.5q0 -89 31 -151t112 -62t118.5 59.5t37.5 146.5t-31.5 150t-113.5 63z" />
    <glyph glyph-name="ocircumflex" unicode="&#xf4;" horiz-adv-x="512" 
d="M178 589h-55l110 153h49l112 -153h-57l-79 113zM50 245q1 107 53 180t156 73q107 0 155 -73.5t48 -185.5q0 -110 -54 -181t-159 -71q-105 1 -152 74.5t-47 183.5zM261 452q-80 0 -117 -60.5t-37 -145.5q0 -89 31 -151t112 -62t118.5 59.5t37.5 146.5t-31.5 150t-113.5 63
z" />
    <glyph glyph-name="otilde" unicode="&#xf5;" horiz-adv-x="512" 
d="M313 608q-34 0 -60.5 26t-51.5 26q-18 0 -29 -12.5t-13 -35.5h-43q0 50 24 70.5t59 20.5q43 0 65.5 -26t48.5 -26q16 0 27.5 12.5t13.5 35.5h42q0 -50 -24 -70.5t-59 -20.5zM50 245q1 107 53 180t156 73q107 0 155 -73.5t48 -185.5q0 -110 -54.5 -181t-158.5 -71
q-105 0 -152 74t-47 184zM261 452q-79 0 -116.5 -60.5t-37.5 -145.5q0 -89 31 -151t112 -62q80 0 118 59.5t38 146.5t-31.5 150t-113.5 63z" />
    <glyph glyph-name="odieresis" unicode="&#xf6;" horiz-adv-x="512" 
d="M383 658q0 -17 -12 -28.5t-29 -11.5t-28.5 11.5t-11.5 28.5q0 16 11.5 27.5t28.5 11.5t29 -11.5t12 -27.5zM225 658q0 -17 -12 -28.5t-28 -11.5q-18 0 -29.5 11.5t-11.5 28.5q0 16 11.5 27.5t29.5 11.5q16 0 28 -11.5t12 -27.5zM50 245q1 107 53 180t156 73
q107 0 155 -73.5t48 -185.5q0 -110 -54 -181t-159 -71q-105 1 -152 74.5t-47 183.5zM261 452q-80 0 -117 -60.5t-37 -145.5q0 -89 31 -151t112 -62t118.5 59.5t37.5 146.5t-31.5 150t-113.5 63z" />
    <glyph glyph-name="divide" unicode="&#xf7;" horiz-adv-x="488" 
d="M196 415q0 20 13 33.5t34 13.5q19 0 33 -13.5t14 -33.5q0 -19 -14 -33t-33 -14q-21 0 -34 14t-13 33zM462 251h-429l-8 44h429zM199 113q0 19 13 33t34 14q19 0 33 -14t14 -33q0 -20 -14 -34t-33 -14q-21 0 -34 14t-13 34z" />
    <glyph glyph-name="oslash" unicode="&#xf8;" horiz-adv-x="512" 
d="M50 245q1 107 53 180t156 73q107 0 155 -73.5t48 -185.5q0 -110 -54 -181t-159 -71q-105 1 -152 74.5t-47 183.5zM261 451q-80 0 -116.5 -60t-37.5 -145q0 -52 9.5 -97t33.5 -73l183 355q-13 10 -31.5 15t-40.5 5zM406 239q0 46 -8.5 86.5t-27.5 69.5l-180 -349
q13 -7 28 -9.5t32 -2.5q81 0 118 59t38 146z" />
    <glyph glyph-name="ugrave" unicode="&#xf9;" horiz-adv-x="513" 
d="M168 742h65l61 -153h-42zM432 485v-485h-36l-19 55q-31 -28 -71.5 -47.5t-79.5 -19.5q-80 0 -115.5 45t-35.5 117v335h55v-332q0 -49 25 -83.5t76 -34.5q28 0 69 17.5t76 50.5v382h56z" />
    <glyph glyph-name="uacute" unicode="&#xfa;" horiz-adv-x="513" 
d="M267 742h67l-86 -153h-40zM432 485v-485h-36l-19 55q-31 -28 -71.5 -47.5t-79.5 -19.5q-80 0 -115.5 45t-35.5 117v335h55v-332q0 -49 25 -83.5t76 -34.5q28 0 69 17.5t76 50.5v382h56z" />
    <glyph glyph-name="ucircumflex" unicode="&#xfb;" horiz-adv-x="513" 
d="M178 589h-56l110 153h50l111 -153h-56l-79 113zM432 485v-485h-36l-19 55q-31 -28 -71.5 -47.5t-79.5 -19.5q-80 0 -115.5 45t-35.5 117v335h55v-332q0 -49 25 -83.5t76 -34.5q28 0 69 17.5t76 50.5v382h56z" />
    <glyph glyph-name="udieresis" unicode="&#xfc;" horiz-adv-x="513" 
d="M377 658q0 -17 -12 -28.5t-28 -11.5q-17 0 -29 11.5t-12 28.5q0 16 12 27.5t29 11.5q16 0 28 -11.5t12 -27.5zM219 658q0 -17 -12 -28.5t-28 -11.5q-18 0 -29.5 11.5t-11.5 28.5q0 16 11.5 27.5t29.5 11.5q16 0 28 -11.5t12 -27.5zM432 485v-485h-36l-19 55
q-31 -28 -71.5 -47.5t-79.5 -19.5q-80 0 -115.5 45t-35.5 117v335h55v-332q0 -49 25 -83.5t76 -34.5q28 0 69 17.5t76 50.5v382h56z" />
    <glyph glyph-name="yacute" unicode="&#xfd;" horiz-adv-x="452" 
d="M247 742h67l-86 -153h-41zM206 -3l-191 478l56 10l159 -416q38 104 76.5 208t75.5 208h55l-216 -597q-13 -38 -50 -68t-83 -39l-11 39q37 15 61.5 31.5t35.5 50.5z" />
    <glyph glyph-name="thorn" unicode="&#xfe;" horiz-adv-x="531" 
d="M271 34q82 0 117.5 59.5t35.5 147.5q0 89 -35.5 149.5t-117.5 60.5q-30 0 -66.5 -15t-67.5 -44v-300q31 -29 67.5 -43.5t66.5 -14.5zM82 -219v915l55 10v-262q30 23 65.5 38.5t69.5 15.5q107 0 157.5 -72.5t50.5 -183.5t-50.5 -183t-157.5 -72q-34 0 -69.5 14.5
t-65.5 38.5v-248z" />
    <glyph glyph-name="ydieresis" unicode="&#xff;" horiz-adv-x="452" 
d="M271 658q0 16 11.5 27.5t29.5 11.5q16 0 28 -11.5t12 -27.5q0 -17 -12 -28.5t-28 -11.5q-18 0 -29.5 11.5t-11.5 28.5zM114 658q0 16 11 27.5t29 11.5q16 0 28 -11.5t12 -27.5q0 -17 -12 -28.5t-28 -11.5q-18 0 -29 11.5t-11 28.5zM206 -3l-191 478l56 10l159 -416
q38 104 76.5 208t75.5 208h55l-216 -597q-13 -38 -50 -68t-83 -39l-11 39q37 15 61.5 31.5t35.5 50.5z" />
    <glyph glyph-name="Amacron" unicode="&#x100;" horiz-adv-x="588" 
d="M168 833h241v-43h-241v43zM288 607l-130 -354h265zM315 680l260 -670l-56 -10l-80 208h-296l-76 -208h-54l247 680h55z" />
    <glyph glyph-name="amacron" unicode="&#x101;" horiz-adv-x="490" 
d="M122 683h241v-43h-241v43zM216 33q47 0 83 23.5t61 56.5v129h-134q-60 0 -89 -31.5t-29 -74.5q0 -40 27 -71.5t81 -31.5zM241 498q83 0 128.5 -43.5t45.5 -114.5v-340h-34l-18 52q-24 -26 -64 -45.5t-84 -19.5q-82 0 -122.5 43t-40.5 106q0 69 48.5 107t124.5 38h135v54
q0 50 -28.5 83t-87.5 33q-51 0 -81 -10.5t-58 -23.5l-19 39q28 19 76.5 30.5t78.5 11.5z" />
    <glyph glyph-name="Abreve" unicode="&#x102;" horiz-adv-x="588" 
d="M288 751q-66 1 -98 40.5t-32 89.5h43q0 -31 22.5 -59t64.5 -28q40 0 63 27t23 60h44q0 -50 -31.5 -89.5t-98.5 -40.5zM288 607l-130 -354h265zM315 680l260 -670l-56 -10l-80 208h-296l-76 -208h-54l247 680h55z" />
    <glyph glyph-name="abreve" unicode="&#x103;" horiz-adv-x="490" 
d="M242 601q-66 1 -97.5 40.5t-31.5 89.5h43q0 -31 22.5 -59t63.5 -28q42 0 64 27t22 60h44q0 -50 -31.5 -89.5t-98.5 -40.5zM216 33q47 0 83 23.5t61 56.5v129h-134q-60 0 -89 -31.5t-29 -74.5q0 -40 27 -71.5t81 -31.5zM241 498q83 0 128.5 -43.5t45.5 -114.5v-340h-34
l-18 52q-24 -26 -64 -45.5t-84 -19.5q-82 0 -122.5 43t-40.5 106q0 69 48.5 107t124.5 38h135v54q0 50 -28.5 83t-87.5 33q-51 0 -81 -10.5t-58 -23.5l-19 39q28 19 76.5 30.5t78.5 11.5z" />
    <glyph glyph-name="Aogonek" unicode="&#x104;" horiz-adv-x="588" 
d="M315 680l260 -670q-26 -22 -45.5 -54.5t-19.5 -65.5q0 -30 19 -43t38 -13q16 0 29.5 5.5t25.5 15.5l22 -32q-13 -13 -34 -21.5t-46 -8.5q-45 0 -74.5 26.5t-29.5 69.5q0 29 16.5 61t41.5 52l-79 206h-296l-76 -208h-54l247 680h55zM288 607l-130 -354h265z" />
    <glyph glyph-name="aogonek" unicode="&#x105;" horiz-adv-x="490" 
d="M241 498q83 0 128.5 -43.5t45.5 -114.5v-340q-22 -19 -40.5 -47.5t-18.5 -60.5q0 -30 19 -44t38 -14q16 0 29.5 5.5t25.5 15.5l22 -32q-13 -13 -34.5 -21.5t-46.5 -8.5q-44 0 -74 26.5t-30 69.5q0 36 21.5 71t47.5 56l-11 36q-24 -26 -64 -45.5t-84 -19.5
q-82 0 -122.5 43t-40.5 106q0 69 48.5 107t124.5 38h135v54q0 50 -28.5 83t-87.5 33q-51 0 -81 -10.5t-58 -23.5l-19 39q28 19 76.5 30.5t78.5 11.5zM216 33q47 0 83 23.5t61 56.5v129h-134q-60 0 -89 -31.5t-29 -74.5q0 -40 27 -71.5t81 -31.5z" />
    <glyph glyph-name="Cacute" unicode="&#x106;" horiz-adv-x="584" 
d="M377 892h67l-86 -153h-41zM363 645q-107 -1 -170 -86t-63 -222q0 -122 54 -212t170 -90q54 0 88.5 9t61.5 21l24 -42q-28 -15 -78 -26t-93 -11q-156 0 -222 105.5t-66 244.5q0 149 73.5 253.5t220.5 104.5q31 0 84 -9t81 -28l-20 -41q-31 13 -61 21t-84 8z" />
    <glyph glyph-name="cacute" unicode="&#x107;" horiz-adv-x="456" 
d="M278 742h66l-85 -153h-42zM261 -13q-107 0 -159 72.5t-52 185.5q0 109 55.5 181t162.5 72q29 0 70.5 -11.5t70.5 -30.5l-20 -39q-25 12 -50 23t-74 11q-80 0 -119 -60t-39 -145q0 -89 35.5 -151t117.5 -62q51 0 74.5 10.5t49.5 23.5l20 -39q-30 -19 -71 -30t-72 -11z" />
    <glyph glyph-name="Ccaron" unicode="&#x10c;" horiz-adv-x="584" 
d="M440 892h56l-111 -153h-50l-110 153h56q19 -28 39 -57t40 -57zM363 645q-107 -1 -170 -86t-63 -222q0 -122 54 -212t170 -90q54 0 88.5 9t61.5 21l24 -42q-28 -15 -78 -26t-93 -11q-156 0 -222 105.5t-66 244.5q0 149 73.5 253.5t220.5 104.5q31 0 84 -9t81 -28
q-5 -10 -10 -20.5t-10 -20.5q-31 13 -61 21t-84 8z" />
    <glyph glyph-name="ccaron" unicode="&#x10d;" horiz-adv-x="456" 
d="M346 742h55q-28 -38 -55.5 -76.5t-54.5 -76.5h-50l-110 153h56q19 -28 39 -57t40 -57zM261 -13q-107 0 -159 72.5t-52 185.5q0 109 56 181t162 72q29 0 70.5 -11.5t70.5 -30.5l-20 -39q-25 12 -50 23t-74 11q-79 0 -118.5 -60t-39.5 -145q0 -89 35.5 -151t117.5 -62
q51 0 74.5 10.5t49.5 23.5l20 -39q-30 -19 -71 -30t-72 -11z" />
    <glyph glyph-name="Dcaron" unicode="&#x10e;" horiz-adv-x="675" 
d="M374 891h56l-111 -153h-50l-110 153h56q19 -28 39 -57t40 -57zM102 0v680h213q157 0 223.5 -98.5t66.5 -237.5q0 -142 -73.5 -243t-222.5 -101h-207zM321 634h-163v-589h153q107 0 173 83.5t66 214.5q0 121 -56.5 206t-172.5 85z" />
    <glyph glyph-name="dcaron" unicode="&#x10f;" horiz-adv-x="667" 
d="M649 653q0 -46 -24 -86t-64 -59l-18 27q25 15 41.5 34.5t18.5 45.5q-19 1 -29.5 15t-10.5 28q0 17 12 30.5t31 13.5t31 -14.5t12 -34.5zM260 451q-82 0 -117.5 -60t-35.5 -148q0 -89 35.5 -149t117.5 -60q30 0 66 14.5t67 43.5v300q-31 29 -67 44t-66 15zM449 705v-705
h-34l-16 43q-31 -25 -68.5 -40.5t-72.5 -15.5q-106 0 -157 71.5t-51 182.5q0 112 51 184.5t157 72.5q33 0 69.5 -15.5t65.5 -38.5v252z" />
    <glyph glyph-name="Dcroat" unicode="&#x110;" horiz-adv-x="679" 
d="M105 0v311h-81l-9 45h90v324h214q156 0 223 -98.5t67 -237.5q0 -142 -74 -243t-223 -101h-207zM263 356l9 -45h-111v-266h152q107 0 173.5 83.5t66.5 214.5q0 121 -56.5 206t-172.5 85h-163v-278h102z" />
    <glyph glyph-name="dcroat" unicode="&#x111;" horiz-adv-x="531" 
d="M260 451q-82 0 -117.5 -60t-35.5 -148q0 -89 35.5 -149t117.5 -60q30 0 66 14.5t67 43.5v300q-31 29 -67 44t-66 15zM502 613l9 -40h-62v-573h-34l-16 43q-31 -25 -68.5 -40.5t-72.5 -15.5q-106 0 -157 71.5t-51 182.5q0 112 51 184.5t157 72.5q33 0 69.5 -15.5
t65.5 -38.5v129h-130l-9 40h139v83l56 9v-92h53z" />
    <glyph glyph-name="Emacron" unicode="&#x112;" horiz-adv-x="519" 
d="M153 833h241v-43h-241v43zM102 0v680h354l5 -42h-303v-269h200l5 -42h-205v-283h320l6 -44h-382z" />
    <glyph glyph-name="emacron" unicode="&#x113;" horiz-adv-x="509" 
d="M142 683h241v-43h-241v43zM461 240h-354q1 -87 40.5 -147.5t129.5 -60.5q53 0 85.5 10.5t57.5 23.5l21 -41q-30 -19 -79.5 -28.5t-78.5 -9.5q-119 0 -176 72.5t-57 185.5q0 109 54.5 181t161.5 72q96 0 145.5 -73.5t49.5 -184.5zM261 451q-72 0 -108.5 -50t-43.5 -121
h295q-7 71 -39 121t-104 50z" />
    <glyph glyph-name="Edotaccent" unicode="&#x116;" horiz-adv-x="519" 
d="M316 811q0 -19 -13 -31t-30 -12q-19 0 -31 12t-12 31q0 18 12 30.5t31 12.5q17 0 30 -12.5t13 -30.5zM102 0v680h354l5 -42h-303v-269h200l5 -42h-205v-283h320l6 -44h-382z" />
    <glyph glyph-name="edotaccent" unicode="&#x117;" horiz-adv-x="509" 
d="M306 661q0 -19 -13 -31t-30 -12q-19 0 -31 12t-12 31q0 18 12 30.5t31 12.5q17 0 30 -12.5t13 -30.5zM461 240h-354q1 -87 40.5 -147.5t129.5 -60.5q53 0 85.5 10.5t57.5 23.5l21 -41q-30 -19 -79.5 -28.5t-78.5 -9.5q-119 0 -176 72.5t-57 185.5q0 109 54.5 181
t161.5 72q96 0 145.5 -73.5t49.5 -184.5zM261 451q-72 0 -108.5 -50t-43.5 -121h295q-7 71 -39 121t-104 50z" />
    <glyph glyph-name="Eogonek" unicode="&#x118;" horiz-adv-x="519" 
d="M102 0v680h354l5 -42h-303v-269h200l5 -42h-205v-283h320l6 -44h-71q-25 -19 -44.5 -49t-19.5 -61q0 -30 19 -43t38 -13q16 0 29.5 5.5t25.5 15.5l22 -32q-13 -13 -34 -21.5t-46 -8.5q-45 0 -75 26.5t-30 69.5q0 28 15.5 59t39.5 52h-251z" />
    <glyph glyph-name="eogonek" unicode="&#x119;" horiz-adv-x="509" 
d="M461 240h-354q1 -87 40.5 -147.5t129.5 -60.5q53 0 85.5 10.5t57.5 23.5l21 -41q-16 -10 -39 -17.5t-45 -11.5q-23 -18 -41 -47t-18 -58q0 -30 19 -43t38 -13q16 0 29.5 5.5t24.5 15.5q6 -8 12 -16.5t11 -16.5q-13 -13 -34 -21.5t-46 -8.5q-45 0 -75 26.5t-30 69.5
q0 25 12 51.5t31 47.5h-8q-118 0 -175 73t-57 184q0 109 55 181t161 72q96 0 145.5 -73.5t49.5 -184.5zM261 451q-72 0 -108.5 -50t-43.5 -121h295q-7 71 -39 121t-104 50z" />
    <glyph glyph-name="Ecaron" unicode="&#x11a;" horiz-adv-x="519" 
d="M351 892h56l-111 -153h-50l-110 153h56q19 -28 39 -57t40 -57zM102 0v680h354l5 -42h-303v-269h200l5 -42h-205v-283h320l6 -44h-382z" />
    <glyph glyph-name="ecaron" unicode="&#x11b;" horiz-adv-x="509" 
d="M344 742h55q-28 -38 -55.5 -76.5t-54.5 -76.5h-50l-110 153h56q19 -28 39 -57t40 -57zM461 240h-354q1 -87 40.5 -147.5t129.5 -60.5q53 0 85.5 10.5t57.5 23.5l21 -41q-30 -19 -79.5 -28.5t-78.5 -9.5q-119 0 -176 72.5t-57 185.5q0 109 55 181t161 72q96 0 145.5 -73.5
t49.5 -184.5zM261 451q-72 0 -108.5 -50t-43.5 -121h295q-7 71 -39 121t-104 50z" />
    <glyph glyph-name="Gbreve" unicode="&#x11e;" horiz-adv-x="643" 
d="M393 751q-66 1 -98 40.5t-32 89.5h43q0 -31 22.5 -59t64.5 -28q40 0 63 27t23 60h44q0 -50 -31.5 -89.5t-98.5 -40.5zM361 342h202v-311q-28 -19 -80.5 -32t-95.5 -13q-155 0 -236.5 100.5t-81.5 249.5q0 158 89 258t235 100q31 0 84.5 -9t81.5 -28l-19 -40
q-31 13 -61.5 21t-83.5 8q-117 0 -191 -85t-74 -230q0 -137 70 -216.5t186 -79.5q36 0 66.5 7t55.5 16v242h-153z" />
    <glyph glyph-name="gbreve" unicode="&#x11f;" horiz-adv-x="531" 
d="M258 601q-66 1 -98 40.5t-32 89.5h44q0 -31 22.5 -59t63.5 -28t63.5 27t22.5 60h43q0 -50 -31 -89.5t-98 -40.5zM260 451q-82 0 -117.5 -60t-35.5 -148q0 -89 35.5 -149t117.5 -60q30 0 66 14.5t67 43.5v300q-31 29 -67 44t-66 15zM260 -221q-29 0 -78 11t-77 30l19 40
q30 -13 57.5 -24t76.5 -11q61 0 98 28.5t37 88.5v98q-29 -24 -65.5 -38.5t-69.5 -14.5q-106 0 -157 71.5t-51 182.5q0 112 51 184.5t157 72.5q35 0 72.5 -16.5t67.5 -41.5l17 45h34v-538q0 -72 -47 -120t-142 -48z" />
    <glyph glyph-name="Gcedilla" unicode="&#x122;" horiz-adv-x="643" 
d="M361 342h202v-311q-25 -17 -73 -29.5t-89 -14.5l-15 -39q39 -7 62 -31.5t23 -50.5q0 -42 -32 -64.5t-78 -22.5q-19 0 -41 5.5t-35 13.5l15 37q9 -4 26.5 -9t32.5 -5q26 0 45 12t19 31q0 21 -25.5 38.5t-68.5 18.5q6 16 12.5 33.5t13.5 33.5q-140 10 -213 108t-73 240
q0 158 89 258t235 100q31 0 84.5 -9t81.5 -28l-19 -40q-31 13 -61.5 21t-83.5 8q-117 0 -191 -85t-74 -230q0 -137 70 -216.5t186 -79.5q36 0 66.5 7t55.5 16v242h-153z" />
    <glyph glyph-name="gcedilla" unicode="&#x123;" horiz-adv-x="531" 
d="M215 620q0 45 24.5 85t63.5 60l18 -28q-25 -15 -41.5 -34.5t-18.5 -45.5q19 -1 29.5 -15t10.5 -28q0 -17 -11.5 -30.5t-31.5 -13.5q-19 0 -31 14.5t-12 35.5zM260 451q-82 0 -117.5 -60t-35.5 -148q0 -89 35.5 -149t117.5 -60q30 0 66 14.5t67 43.5v300q-31 29 -67 44
t-66 15zM260 -221q-29 0 -78 11t-77 30l19 40q30 -13 57.5 -24t76.5 -11q61 0 98 28.5t37 88.5v98q-29 -24 -65.5 -38.5t-69.5 -14.5q-106 0 -157 71.5t-51 182.5q0 112 51 184.5t157 72.5q35 0 72.5 -16.5t67.5 -41.5l17 45h34v-538q0 -72 -47 -120t-142 -48z" />
    <glyph glyph-name="Imacron" unicode="&#x12a;" horiz-adv-x="260" 
d="M10 833h241v-43h-241v43zM102 0v680h56v-680h-56z" />
    <glyph glyph-name="imacron" unicode="&#x12b;" horiz-adv-x="220" 
d="M-11 683h242v-43h-242v43zM82 0v485h56v-485h-56z" />
    <glyph glyph-name="Iogonek" unicode="&#x12e;" horiz-adv-x="260" 
d="M158 680v-680q-25 -16 -44.5 -46.5t-19.5 -62.5q0 -30 19 -43t38 -13q16 0 29.5 5.5t25.5 15.5l22 -33q-13 -13 -34 -21.5t-46 -8.5q-45 0 -75 26.5t-30 69.5q0 30 16.5 62t42.5 52v677h56z" />
    <glyph glyph-name="iogonek" unicode="&#x12f;" horiz-adv-x="224" 
d="M69 638q0 18 12 30t31 12q17 0 30 -12t13 -30q0 -19 -13 -31t-30 -12q-19 0 -31 12t-12 31zM84 5v480h56v-485q-24 -17 -45 -46.5t-21 -62.5q0 -30 19 -43t39 -13q16 0 29 5.5t25 15.5l22 -33q-13 -13 -34.5 -21.5t-46.5 -8.5q-44 0 -74 26.5t-30 69.5q0 31 18 63t43 53z
" />
    <glyph glyph-name="Idotaccent" unicode="&#x130;" horiz-adv-x="260" 
d="M173 811q0 -19 -13 -31t-30 -12q-19 0 -31 12t-12 31q0 18 12 30.5t31 12.5q17 0 30 -12.5t13 -30.5zM102 0v680h56v-680h-56z" />
    <glyph glyph-name="dotlessi" unicode="&#x131;" horiz-adv-x="220" 
d="M82 0v485h56v-485h-56z" />
    <glyph glyph-name="Kcedilla" unicode="&#x136;" horiz-adv-x="591" 
d="M516 660l-240 -266l305 -394h-68l-273 354l-82 -91v-263h-56v680h56v-350l321 365zM376 -69q0 -46 -24.5 -86.5t-64.5 -59.5l-17 28q25 15 41.5 34.5t17.5 45.5q-19 1 -29 15t-10 28q0 17 12 30t31 13t31 -14t12 -34z" />
    <glyph glyph-name="kcedilla" unicode="&#x137;" horiz-adv-x="467" 
d="M82 0v696l55 10v-441l225 233l38 -34l-153 -155l210 -309h-67l-180 272l-73 -74v-198h-55zM295 -70q0 -45 -25 -85.5t-65 -59.5l-17 27q25 15 41.5 34.5t18.5 46.5q-19 1 -29.5 15t-10.5 27q0 18 12 31t31 13t31.5 -14.5t12.5 -34.5z" />
    <glyph glyph-name="Lacute" unicode="&#x139;" horiz-adv-x="499" 
d="M189 892h67l-86 -153h-41zM478 0h-376v680h56v-636h315z" />
    <glyph glyph-name="lacute" unicode="&#x13a;" horiz-adv-x="219" 
d="M151 847h67l-86 -135h-41zM82 0v673l55 11v-684h-55z" />
    <glyph glyph-name="Lcedilla" unicode="&#x13b;" horiz-adv-x="499" 
d="M478 0h-376v680h56v-636h315zM350 -70q0 -45 -24.5 -85.5t-64.5 -59.5l-17 27q25 15 41.5 34.5t17.5 46.5q-19 1 -29 15t-10 27q0 18 12 31t31 13t31 -14.5t12 -34.5z" />
    <glyph glyph-name="lcedilla" unicode="&#x13c;" horiz-adv-x="219" 
d="M82 0v696l55 10v-706h-55zM153 -70q0 -45 -24 -85.5t-64 -59.5l-18 27q25 15 41.5 34.5t18.5 46.5q-19 1 -29.5 15t-10.5 27q0 18 11.5 31t31.5 13q19 0 31 -14.5t12 -34.5z" />
    <glyph glyph-name="Lcaron" unicode="&#x13d;" horiz-adv-x="499" 
d="M394 653q0 -46 -24.5 -86t-64.5 -59l-17 27q25 15 41 34.5t18 45.5q-19 1 -29 15t-10 28q0 17 11.5 30.5t31.5 13.5q19 0 31 -14.5t12 -34.5zM478 0h-376v680h56v-636h315z" />
    <glyph glyph-name="lcaron" unicode="&#x13e;" horiz-adv-x="356" 
d="M82 0v696l55 10v-706h-55zM338 653q0 -46 -24.5 -86t-64.5 -59l-17 27q25 15 41.5 34.5t17.5 45.5q-19 1 -29 15t-10 28q0 17 11.5 30.5t30.5 13.5t31.5 -14.5t12.5 -34.5z" />
    <glyph glyph-name="Lslash" unicode="&#x141;" horiz-adv-x="501" 
d="M480 0h-376v271l-62 -54l-26 38l88 75v350h55v-301l106 93l26 -36l-132 -116v-276h316z" />
    <glyph glyph-name="lslash" unicode="&#x142;" horiz-adv-x="250" 
d="M262 446l-109 -96v-350h-56v301l-83 -73l-26 37l109 95v336l56 10v-297l83 74z" />
    <glyph glyph-name="Nacute" unicode="&#x143;" horiz-adv-x="680" 
d="M366 892h67l-86 -153h-41zM102 0v680h35l352 -501l34 -59v560h56v-680h-34l-373 538l-14 29v-567h-56z" />
    <glyph glyph-name="nacute" unicode="&#x144;" horiz-adv-x="534" 
d="M318 742h67l-86 -153h-41zM82 0v485h34l20 -76q31 36 79 62.5t93 26.5q78 0 114.5 -45.5t36.5 -115.5v-337h-56v331q0 50 -24.5 84.5t-77.5 35.5q-32 0 -81 -24t-83 -67v-360h-55z" />
    <glyph glyph-name="Ncedilla" unicode="&#x145;" horiz-adv-x="680" 
d="M102 0v680h35l352 -501l34 -59v560h56v-680h-34l-373 538l-14 29v-567h-56zM387 -69q0 -46 -24.5 -86t-64.5 -59l-17 27q25 15 42 34t18 46q-19 1 -29.5 15t-10.5 28q0 17 12 30t31 13t31 -14.5t12 -33.5z" />
    <glyph glyph-name="ncedilla" unicode="&#x146;" horiz-adv-x="534" 
d="M82 0v485h34l20 -76q31 36 79 62.5t93 26.5q78 0 114.5 -45.5t36.5 -115.5v-337h-56v331q0 50 -24.5 84.5t-77.5 35.5q-32 0 -81 -24t-83 -67v-360h-55zM315 -70q0 -45 -25 -85.5t-65 -59.5l-16 27q25 15 41 34.5t18 46.5q-19 1 -29.5 15t-10.5 27q0 18 12 31t31 13
t31.5 -14.5t12.5 -34.5z" />
    <glyph glyph-name="Ncaron" unicode="&#x147;" horiz-adv-x="680" 
d="M424 892h56l-111 -153h-50l-110 153h56q19 -28 39 -57t40 -57zM102 0v680h35q87 -125 175.5 -250.5t176.5 -250.5l34 -59v560h56v-680h-34q-93 134 -186.5 269t-186.5 269l-14 29v-567h-56z" />
    <glyph glyph-name="ncaron" unicode="&#x148;" horiz-adv-x="534" 
d="M371 742h56l-111 -153h-49l-111 153h56l80 -114zM82 0v485h34l20 -76q31 36 79 62.5t93 26.5q78 0 114.5 -45.5t36.5 -115.5v-337h-56v331q0 49 -24.5 84.5t-77.5 35.5q-32 0 -81 -24t-83 -67v-360h-55z" />
    <glyph glyph-name="Omacron" unicode="&#x14c;" horiz-adv-x="717" 
d="M237 833h241v-43h-241v43zM648 345q0 -141 -74 -250t-218 -109q-152 0 -219.5 106.5t-67.5 244.5q0 149 75 254t218 105q151 0 218.5 -106t67.5 -245zM354 34q107 0 170 89t63 221q0 122 -53.5 212.5t-170.5 90.5q-107 0 -170 -89t-63 -220q0 -122 54 -213t170 -91z" />
    <glyph glyph-name="omacron" unicode="&#x14d;" horiz-adv-x="512" 
d="M138 683h241v-43h-241v43zM50 245q1 107 53 180t156 73q107 0 155 -73.5t48 -185.5q0 -110 -54 -181t-159 -71q-105 1 -152 74.5t-47 183.5zM261 452q-80 0 -117 -60.5t-37 -145.5q0 -89 31 -151t112 -62t118.5 59.5t37.5 146.5t-31.5 150t-113.5 63z" />
    <glyph glyph-name="Ohungarumlaut" unicode="&#x150;" horiz-adv-x="717" 
d="M444 892h66l-84 -153h-41zM321 892h65l-86 -153h-39zM648 345q0 -141 -74 -250t-218 -109q-152 0 -219.5 106.5t-67.5 244.5q0 149 75 254t218 105q151 0 218.5 -106t67.5 -245zM354 34q107 0 170 89t63 221q0 122 -53.5 212.5t-170.5 90.5q-107 0 -170 -89t-63 -220
q0 -122 54 -213t170 -91z" />
    <glyph glyph-name="ohungarumlaut" unicode="&#x151;" horiz-adv-x="512" 
d="M340 742h66l-85 -153h-40zM217 742h65l-85 -153h-40zM50 245q1 107 53 180t156 73q107 0 155 -73.5t48 -185.5q0 -110 -54 -181t-159 -71q-105 1 -152 74.5t-47 183.5zM261 452q-80 0 -117 -60.5t-37 -145.5q0 -89 31 -151t112 -62t118.5 59.5t37.5 146.5t-31.5 150
t-113.5 63z" />
    <glyph glyph-name="OE" unicode="&#x152;" horiz-adv-x="931" 
d="M372 645q-107 -1 -174.5 -86t-67.5 -222q0 -122 58.5 -212t174.5 -90q54 0 90.5 10.5t60.5 23.5v545q-28 13 -59.5 22t-82.5 9zM514 0v15q-30 -12 -71.5 -20.5t-75.5 -8.5q-156 0 -227 105.5t-71 244.5q0 149 78 253.5t225 104.5q25 0 67 -7t75 -20v13h353l6 -42h-304
v-269h200l6 -42h-206v-283h321l5 -44h-381z" />
    <glyph glyph-name="oe" unicode="&#x153;" horiz-adv-x="809" 
d="M762 240h-356q1 -87 41 -147.5t130 -60.5q53 0 85.5 10.5t58.5 23.5l19 -41q-29 -19 -77 -28.5t-78 -9.5q-46 0 -83.5 11.5t-65.5 33.5q-28 -19 -68.5 -32t-80.5 -13q-112 0 -174 70.5t-63 185.5q0 110 64 182.5t177 72.5q39 0 77.5 -12t66.5 -31q25 20 58.5 31.5
t73.5 11.5q97 0 146 -73.5t49 -184.5zM286 32q41 0 68 9.5t49 22.5q-27 34 -40 80.5t-13 100.5q0 52 13 97.5t38 78.5q-19 12 -43.5 22t-69.5 10q-84 0 -132.5 -61t-48.5 -146q0 -89 46 -151.5t133 -62.5zM560 451q-71 0 -107.5 -50t-44.5 -121h296q-7 71 -39.5 121
t-104.5 50z" />
    <glyph glyph-name="Racute" unicode="&#x154;" horiz-adv-x="612" 
d="M292 892h67l-86 -153h-41zM274 633h-116v-302h105q76 0 136.5 34t60.5 119q0 87 -54 118t-132 31zM517 486q-1 -70 -35 -113.5t-88 -64.5l177 -308h-63l-162 293q-21 -4 -42 -5.5t-43 -1.5h-103v-286h-56v680h170q106 0 175.5 -43.5t69.5 -150.5z" />
    <glyph glyph-name="racute" unicode="&#x155;" horiz-adv-x="315" 
d="M194 742h67l-85 -153h-42zM82 0v485h34l18 -67q26 22 68.5 44.5t80.5 22.5l17 -44q-46 0 -90.5 -24.5t-72.5 -55.5v-361h-55z" />
    <glyph glyph-name="Rcedilla" unicode="&#x156;" horiz-adv-x="612" 
d="M274 633h-116v-302h105q76 0 136.5 34t60.5 119q0 87 -54 118t-132 31zM517 486q-1 -70 -35 -113.5t-88 -64.5l177 -308h-63l-162 293q-21 -4 -42 -5.5t-43 -1.5h-103v-286h-56v680h170q106 0 175.5 -43.5t69.5 -150.5zM363 -69q0 -46 -25 -86.5t-65 -59.5l-17 28
q25 15 41.5 34.5t17.5 45.5q-19 1 -29 15t-10 28q0 17 11.5 30t31.5 13q19 0 31.5 -14t12.5 -34z" />
    <glyph glyph-name="rcedilla" unicode="&#x157;" horiz-adv-x="315" 
d="M82 0v485h34l18 -67q26 22 68.5 44.5t80.5 22.5l17 -44q-46 0 -90.5 -24.5t-72.5 -55.5v-361h-55zM153 -70q0 -45 -24.5 -85.5t-64.5 -59.5l-17 27q25 15 41.5 34.5t17.5 46.5q-19 1 -29 15t-10 27q0 18 11.5 31t31.5 13q19 0 31 -14.5t12 -34.5z" />
    <glyph glyph-name="Rcaron" unicode="&#x158;" horiz-adv-x="612" 
d="M355 892h56l-111 -153h-50l-110 153h56q19 -28 39 -57t40 -57zM274 633h-116v-302h105q76 0 136.5 34t60.5 119q0 87 -54 118t-132 31zM517 486q-1 -70 -35 -113.5t-88 -64.5l177 -308h-63l-162 293q-21 -4 -42 -5.5t-43 -1.5h-103v-286h-56v680h170q106 0 175.5 -43.5
t69.5 -150.5z" />
    <glyph glyph-name="rcaron" unicode="&#x159;" horiz-adv-x="315" 
d="M237 742h56l-111 -153h-49l-111 153h56q20 -28 40 -57t39 -57zM82 0v485h34l18 -67q26 22 68.5 44.5t80.5 22.5l17 -44q-46 0 -90.5 -24.5t-72.5 -55.5v-361h-55z" />
    <glyph glyph-name="Sacute" unicode="&#x15a;" horiz-adv-x="533" 
d="M288 892h67l-86 -153h-41zM248 33q86 0 131.5 37.5t45.5 89.5q0 113 -183 164t-183 208q0 69 56.5 116.5t152.5 47.5q50 0 94 -12t74 -27l-22 -42q-26 12 -59 23t-85 11q-72 0 -114 -33.5t-42 -85.5q0 -117 183 -174.5t183 -197.5q0 -75 -60 -123t-171 -48
q-43 0 -104 13.5t-78 28.5l15 43q26 -13 71 -26t95 -13z" />
    <glyph glyph-name="sacute" unicode="&#x15b;" horiz-adv-x="439" 
d="M243 742h66l-85 -153h-41zM207 33q60 0 94 22.5t34 63.5q0 35 -37.5 61.5t-90.5 45.5q-57 20 -103 53t-46 85q0 60 45 97t127 37q31 0 74 -11t68 -29l-20 -41q-20 10 -50.5 22t-75.5 12q-51 0 -82 -24t-31 -59q0 -34 35.5 -56.5t86.5 -41.5q59 -22 106.5 -57.5
t47.5 -89.5q0 -64 -45.5 -100t-138.5 -36q-30 0 -75.5 9.5t-73.5 28.5l19 44q26 -13 60 -24.5t72 -11.5z" />
    <glyph glyph-name="Scedilla" unicode="&#x15e;" horiz-adv-x="533" 
d="M248 33q86 0 131.5 37.5t45.5 89.5q0 113 -183 165.5t-183 206.5q0 69 56.5 116.5t152.5 47.5q50 0 94 -12t74 -27l-22 -42q-26 12 -59 23t-85 11q-72 0 -114 -33.5t-42 -85.5q0 -117 183 -176t183 -196q0 -66 -52.5 -115t-149.5 -55l-16 -41q39 -6 62.5 -30.5
t23.5 -50.5q0 -42 -32.5 -64.5t-78.5 -22.5q-18 0 -40 5.5t-36 13.5l16 36q9 -4 26 -9t33 -5q25 0 44 12.5t19 31.5q0 21 -25.5 38t-68.5 19l26 67q-44 2 -96 15t-68 26l15 43q26 -13 71 -26t95 -13z" />
    <glyph glyph-name="scedilla" unicode="&#x15f;" horiz-adv-x="439" 
d="M207 33q60 0 94 22.5t34 63.5q0 35 -37.5 61.5t-90.5 45.5q-57 20 -103 53t-46 85q0 60 45 97t127 37q31 0 74 -11t68 -29l-20 -41q-20 10 -50.5 22t-75.5 12q-51 0 -82 -24t-31 -59q0 -34 35.5 -56.5t86.5 -41.5q59 -22 106.5 -57.5t47.5 -89.5q0 -60 -39.5 -95.5
t-120.5 -39.5l-16 -41q39 -6 62.5 -30.5t23.5 -50.5q0 -42 -32 -64.5t-78 -22.5q-19 0 -41 5.5t-35 13.5l15 36q9 -4 26 -9t33 -5q26 0 44.5 12.5t18.5 31.5q0 21 -25 38t-68 19l25 67q-30 3 -66.5 12t-59.5 25l19 44q26 -13 60 -24.5t72 -11.5z" />
    <glyph glyph-name="Scaron" unicode="&#x160;" horiz-adv-x="533" 
d="M346 892h56q-27 -38 -55 -76.5t-55 -76.5h-50l-111 153h56q20 -28 40 -57t39 -57zM248 33q86 0 131.5 37.5t45.5 89.5q0 113 -183 167.5t-183 203.5q0 69 56.5 117t152.5 48q50 0 94 -12t74 -27l-22 -42q-26 12 -59 23t-85 11q-72 0 -114 -33.5t-42 -85.5
q0 -116 183 -172.5t183 -197.5q0 -75 -59.5 -124t-171.5 -49q-43 0 -104 13.5t-78 28.5l15 43q26 -13 71 -26t95 -13z" />
    <glyph glyph-name="scaron" unicode="&#x161;" horiz-adv-x="439" 
d="M307 742h55l-111 -153h-49l-111 153h56q20 -28 40 -57t39 -57zM207 33q60 0 94 22.5t34 63.5q0 81 -138.5 111t-138.5 134q0 60 45 97t127 37q31 0 74 -11t68 -29l-20 -41q-20 10 -50.5 22t-75.5 12q-51 0 -82 -24t-31 -59q0 -74 138 -106t138 -139q0 -64 -45.5 -100
t-138.5 -36q-30 0 -75.5 9.5t-73.5 28.5l19 44q26 -13 60 -24.5t72 -11.5z" />
    <glyph glyph-name="Tcedilla" unicode="&#x162;" horiz-adv-x="514" 
d="M498 636h-214v-636h-6l-21 -52q39 -7 62 -31.5t23 -50.5q0 -42 -32 -64.5t-78 -22.5q-18 0 -40 5.5t-35 13.5l15 37q9 -4 26 -9t33 -5q25 0 44 12t19 31q0 21 -25.5 38.5t-68.5 18.5l28 79v636h-213v44h478z" />
    <glyph glyph-name="tcedilla" unicode="&#x163;" horiz-adv-x="298" 
d="M256 430h-109v-307q0 -36 15.5 -62.5t52.5 -26.5q11 0 23.5 3.5t17.5 5.5l12 -44q-8 -2 -23.5 -6.5t-33.5 -5.5l-16 -40q40 -6 63 -30.5t23 -50.5q0 -42 -32 -64.5t-78 -22.5q-19 0 -41 5.5t-35 13.5l16 36q8 -4 25 -9t33 -5q25 0 44 12.5t19 31.5q0 21 -25 38t-68 19
l27 71q-35 10 -55 41.5t-20 82.5v314h-72v42h72v129l56 22v-151h88z" />
    <glyph glyph-name="Tcaron" unicode="&#x164;" horiz-adv-x="514" 
d="M335 892h56l-111 -153h-50l-110 153h56q19 -28 39 -57t40 -57zM498 636h-214v-636h-56v636h-213v44h478z" />
    <glyph glyph-name="tcaron" unicode="&#x165;" horiz-adv-x="434" 
d="M417 653q0 -46 -24.5 -86t-64.5 -59l-17 27q25 15 41.5 34.5t17.5 45.5q-19 1 -29.5 15t-10.5 28q0 17 12 30.5t32 13.5q19 0 31 -14.5t12 -34.5zM256 430h-109v-307q0 -36 15.5 -62.5t52.5 -26.5q11 0 23.5 3.5t17.5 5.5l12 -44q-10 -2 -27.5 -7t-38.5 -5
q-50 0 -80.5 33t-30.5 96v314h-72v42h72v129l56 22v-151h88z" />
    <glyph glyph-name="Umacron" unicode="&#x16a;" horiz-adv-x="667" 
d="M213 833h241v-43h-241v43zM333 35q89 0 137.5 60t48.5 147v438h56v-441q0 -109 -63 -180t-179 -71q-115 0 -178 71t-63 180v441h55v-438q0 -87 50 -147t136 -60z" />
    <glyph glyph-name="umacron" unicode="&#x16b;" horiz-adv-x="513" 
d="M132 683h242v-43h-242v43zM432 485v-485h-36l-19 55q-31 -28 -71.5 -47.5t-79.5 -19.5q-80 0 -115.5 45t-35.5 117v335h55v-332q0 -49 25 -83.5t76 -34.5q28 0 69 17.5t76 50.5v382h56z" />
    <glyph glyph-name="Uring" unicode="&#x16e;" horiz-adv-x="667" 
d="M421 825q0 -35 -26 -58t-62 -23t-62.5 23t-26.5 58q0 36 26.5 60t62.5 24t62 -24t26 -60zM380 825q0 21 -13.5 34.5t-33.5 13.5t-33.5 -13.5t-13.5 -34.5q0 -20 13.5 -33.5t33.5 -13.5t33.5 13.5t13.5 33.5zM333 35q89 0 137.5 60t48.5 147v438h56v-441q0 -109 -63 -180
t-179 -71q-115 0 -178 71t-63 180v441h55v-438q0 -87 50 -147t136 -60z" />
    <glyph glyph-name="uring" unicode="&#x16f;" horiz-adv-x="513" 
d="M342 675q0 -35 -26.5 -58t-61.5 -23q-36 0 -62.5 23t-26.5 58q0 36 26.5 60t62.5 24q35 0 61.5 -24t26.5 -60zM300 675q0 21 -12.5 34.5t-33.5 13.5q-20 0 -33.5 -13.5t-13.5 -34.5q0 -20 13.5 -33.5t33.5 -13.5q21 0 33.5 13.5t12.5 33.5zM432 485v-485h-36l-19 55
q-31 -28 -71.5 -47.5t-79.5 -19.5q-80 0 -115.5 45t-35.5 117v335h55v-332q0 -49 25 -83.5t76 -34.5q28 0 69 17.5t76 50.5v382h56z" />
    <glyph glyph-name="Uhungarumlaut" unicode="&#x170;" horiz-adv-x="667" 
d="M410 892h66l-84 -153h-41zM287 892h65l-86 -153h-39zM333 35q89 0 137.5 60t48.5 147v438h56v-441q0 -109 -63 -180t-179 -71q-115 0 -178 71t-63 180v441h55v-438q0 -87 50 -147t136 -60z" />
    <glyph glyph-name="uhungarumlaut" unicode="&#x171;" horiz-adv-x="513" 
d="M334 742h66l-84 -153h-41zM211 742h66l-86 -153h-40zM432 485v-485h-36l-19 55q-31 -28 -71.5 -47.5t-79.5 -19.5q-80 0 -115.5 45t-35.5 117v335h55v-332q0 -49 25 -83.5t76 -34.5q28 0 69 17.5t76 50.5v382h56z" />
    <glyph glyph-name="Uogonek" unicode="&#x172;" horiz-adv-x="667" 
d="M333 35q89 0 137.5 60t48.5 147v438h56v-441q0 -94 -46.5 -160.5t-134.5 -84.5q-22 -19 -39.5 -47.5t-17.5 -56.5q0 -30 19 -43t38 -13q16 0 29.5 5.5t25.5 15.5l22 -32q-13 -13 -34 -21.5t-46 -8.5q-45 0 -74.5 26.5t-29.5 69.5q0 25 11.5 51.5t30.5 47.5
q-113 1 -175 71.5t-62 179.5v441h55v-438q0 -87 50 -147t136 -60z" />
    <glyph glyph-name="uogonek" unicode="&#x173;" horiz-adv-x="513" 
d="M432 485v-485q-23 -20 -42.5 -48t-19.5 -62q0 -30 18.5 -43t38.5 -13q16 0 29 5.5t25 15.5l23 -32q-13 -13 -34.5 -21.5t-46.5 -8.5q-44 0 -74 26.5t-30 69.5q0 37 20.5 71.5t50.5 56.5l-13 38q-31 -28 -71.5 -47.5t-79.5 -19.5q-80 0 -115.5 45t-35.5 117v335h55v-332
q0 -49 25 -83.5t76 -34.5q28 0 69 17.5t76 50.5v382h56z" />
    <glyph glyph-name="Ydieresis" unicode="&#x178;" horiz-adv-x="541" 
d="M388 808q0 -17 -11.5 -28.5t-28.5 -11.5t-28.5 11.5t-11.5 28.5q0 16 11.5 27.5t28.5 11.5t28.5 -11.5t11.5 -27.5zM231 808q0 -17 -12 -28.5t-29 -11.5t-28.5 11.5t-11.5 28.5q0 16 11.5 27.5t28.5 11.5t29 -11.5t12 -27.5zM240 0l1 272l-233 397l60 11l200 -352
l204 352h62l-238 -402v-278h-56z" />
    <glyph glyph-name="Zacute" unicode="&#x179;" horiz-adv-x="542" 
d="M302 892h67l-86 -153h-41zM496 0h-463l-6 50l428 586h-391l-10 44h452l5 -49l-425 -587h405z" />
    <glyph glyph-name="zacute" unicode="&#x17a;" horiz-adv-x="455" 
d="M265 742h66l-85 -153h-41zM418 453l-312 -411h296l10 -42h-367l-8 31l308 411h-263l-16 43h349z" />
    <glyph glyph-name="Zdotaccent" unicode="&#x17b;" horiz-adv-x="542" 
d="M330 811q0 -19 -12.5 -31t-30.5 -12q-19 0 -31 12t-12 31q0 18 12 30.5t31 12.5q18 0 30.5 -12.5t12.5 -30.5zM496 0h-463l-6 50l428 586h-391l-10 44h452l5 -49l-425 -587h405z" />
    <glyph glyph-name="zdotaccent" unicode="&#x17c;" horiz-adv-x="455" 
d="M291 661q0 -19 -12.5 -31t-31.5 -12t-30.5 12t-11.5 31q0 18 11.5 30.5t30.5 12.5t31.5 -12.5t12.5 -30.5zM418 453l-312 -411h296l10 -42h-367l-8 31l308 411h-263l-16 43h349z" />
    <glyph glyph-name="Zcaron" unicode="&#x17d;" horiz-adv-x="542" 
d="M360 892h56q-27 -38 -55 -76.5t-55 -76.5h-50l-111 153h56q20 -28 40 -57t39 -57zM496 0h-463l-6 50l428 586h-391l-10 44h452l5 -49l-425 -587h405z" />
    <glyph glyph-name="zcaron" unicode="&#x17e;" horiz-adv-x="455" 
d="M325 742h56q-27 -38 -55 -76.5t-55 -76.5h-50l-111 153h57l78 -114zM418 453l-312 -411h296l10 -42h-367l-8 31q76 102 154 205.5t154 205.5h-263l-16 43h349z" />
    <glyph glyph-name="florin" unicode="&#x192;" horiz-adv-x="290" 
d="M35 472h73v91q0 63 28.5 101t82.5 38q20 0 38 -4.5t28 -8.5l-12 -45q-6 3 -18.5 6t-22.5 3q-38 0 -53.5 -23t-15.5 -59v-99h88l21 -42h-109v-357q0 -63 -28.5 -100.5t-81.5 -37.5q-21 0 -39 4.5t-27 7.5l11 45q6 -3 18 -6t22 -3q39 0 54.5 22.5t15.5 59.5v365h-73v42z
" />
    <glyph glyph-name="Scommaaccent" unicode="&#x218;" horiz-adv-x="533" 
d="M248 33q86 0 131.5 37.5t45.5 89.5q0 113 -183 168t-183 204q0 66 56.5 115t152.5 49q50 0 94 -12t74 -27l-22 -42q-26 12 -59 23t-85 11q-72 0 -114 -33.5t-42 -85.5q0 -117 183 -173.5t183 -198.5q0 -80 -60 -125.5t-171 -45.5q-43 0 -104 13.5t-78 28.5l15 43
q26 -13 71 -26t95 -13zM294 -70q0 -45 -24.5 -85.5t-64.5 -59.5l-17 27q25 15 41.5 34.5t17.5 46.5q-19 1 -29 15t-10 27q0 18 12 31t31 13t31 -14.5t12 -34.5z" />
    <glyph glyph-name="scommaaccent" unicode="&#x219;" horiz-adv-x="439" 
d="M207 33q60 0 94 22.5t34 63.5q0 35 -37.5 61.5t-90.5 45.5q-57 20 -103 53t-46 85q0 60 45 97t127 37q31 0 74 -11t68 -29l-20 -41q-20 10 -50.5 22t-75.5 12q-51 0 -82 -24t-31 -59q0 -34 35.5 -56.5t86.5 -41.5q59 -22 106.5 -57.5t47.5 -89.5q0 -64 -45.5 -100
t-138.5 -36q-30 0 -75.5 9.5t-73.5 28.5l19 44q26 -13 60 -24.5t72 -11.5zM256 -70q0 -45 -24.5 -85.5t-64.5 -59.5l-17 27q25 15 41.5 34.5t17.5 46.5q-19 1 -29.5 15t-10.5 27q0 18 12 31t32 13q19 0 31 -14.5t12 -34.5z" />
    <glyph glyph-name="uni021A" unicode="&#x21a;" horiz-adv-x="514" 
d="M498 636h-214v-636h-56v636h-213v44h478zM300 -70q0 -45 -24.5 -85.5t-64.5 -59.5l-18 27q25 15 41.5 34.5t18.5 46.5q-19 1 -29.5 15t-10.5 27q0 18 12 31t32 13q19 0 31 -14.5t12 -34.5z" />
    <glyph glyph-name="uni021B" unicode="&#x21b;" horiz-adv-x="298" 
d="M256 430h-109v-307q0 -36 15.5 -62.5t52.5 -26.5q11 0 23.5 3.5t17.5 5.5l12 -44q-10 -2 -27.5 -7t-38.5 -5q-50 0 -80.5 33t-30.5 96v314h-72v42h72v129l56 22v-151h88zM233 -70q0 -45 -24.5 -85.5t-64.5 -59.5l-18 27q25 15 41.5 34.5t17.5 46.5q-18 1 -28.5 15
t-10.5 27q0 18 12 31t31 13t31.5 -14.5t12.5 -34.5z" />
    <glyph glyph-name="circumflex" unicode="&#x2c6;" horiz-adv-x="296" 
d="M68 589h-55l110 153h50l111 -153h-57l-79 113z" />
    <glyph glyph-name="caron" unicode="&#x2c7;" horiz-adv-x="296" 
d="M228 742h56l-111 -153h-50l-110 153h56q19 -28 39 -57t40 -57z" />
    <glyph glyph-name="uni02C9" unicode="&#x2c9;" horiz-adv-x="266" 
d="M13 689h241v-44h-241v44z" />
    <glyph glyph-name="breve" unicode="&#x2d8;" horiz-adv-x="285" 
d="M143 601q-66 1 -98 40.5t-32 89.5h43q0 -31 22.5 -59t64.5 -28q40 0 63 27t23 60h44q0 -50 -31.5 -89.5t-98.5 -40.5z" />
    <glyph glyph-name="dotaccent" unicode="&#x2d9;" horiz-adv-x="112" 
d="M99 661q0 -19 -13 -31t-30 -12q-19 0 -31 12t-12 31q0 18 12 30.5t31 12.5q17 0 30 -12.5t13 -30.5z" />
    <glyph glyph-name="ring" unicode="&#x2da;" horiz-adv-x="203" 
d="M190 675q0 -35 -26 -58t-62 -23t-62.5 23t-26.5 58q0 36 26.5 60t62.5 24t62 -24t26 -60zM148 675q0 21 -13 34.5t-33 13.5t-33.5 -13.5t-13.5 -34.5q0 -20 13.5 -33.5t33.5 -13.5t33 13.5t13 33.5z" />
    <glyph glyph-name="ogonek" unicode="&#x2db;" horiz-adv-x="210" 
d="M72 4h62q-27 -18 -49 -49.5t-22 -64.5q0 -30 19 -43t38 -13q16 0 29.5 5.5t25.5 15.5l22 -32q-13 -13 -34 -21.5t-46 -8.5q-45 0 -74.5 26.5t-29.5 69.5q0 30 16.5 62t42.5 53z" />
    <glyph glyph-name="tilde" unicode="&#x2dc;" horiz-adv-x="306" 
d="M209 608q-34 0 -60.5 26t-51.5 26q-17 0 -28.5 -12.5t-13.5 -35.5h-42q0 50 24 70.5t59 20.5q42 0 64.5 -26t48.5 -26q17 0 28.5 12.5t13.5 35.5h42q0 -50 -24 -70.5t-60 -20.5z" />
    <glyph glyph-name="hungarumlaut" unicode="&#x2dd;" horiz-adv-x="275" 
d="M196 742h66l-84 -153h-41zM73 742h65l-86 -153h-39z" />
    <glyph glyph-name="pi" unicode="&#x3c0;" horiz-adv-x="570" 
d="M117 0v440h-99v45h535v-45h-100v-440h-56v440h-224v-440h-56z" />
    <glyph glyph-name="dv_CandrabinduInverted" unicode="&#x900;" horiz-adv-x="0" 
d="M58 821l-40 24q34 66 84 99t116 33t116.5 -33t84.5 -99l-41 -24q-28 57 -69.5 84.5t-90.5 27.5t-90 -27.5t-70 -84.5zM265 813q0 -19 -13 -31.5t-32 -12.5t-32 12.5t-13 31.5t13 32t32 13t32 -13t13 -32z" />
    <glyph glyph-name="dv_Candrabindu" unicode="&#x901;" horiz-adv-x="0" 
d="M174 933q0 19 13 31.5t32 12.5t32 -12.5t13 -31.5q0 -18 -13 -31t-32 -13t-32 13t-13 31zM378 925l41 -23q-35 -66 -85 -99.5t-115 -33.5q-66 0 -116.5 33.5t-84.5 99.5l40 23q28 -56 70 -84t91 -28q48 0 89 28t70 84z" />
    <glyph glyph-name="dv_Anusvara" unicode="&#x902;" horiz-adv-x="0" 
d="M24 792q0 19 12.5 32t31.5 13t32 -13t13 -32q0 -18 -13 -30.5t-32 -12.5t-31.5 12.5t-12.5 30.5z" />
    <glyph glyph-name="dv_Visarga" unicode="&#x903;" horiz-adv-x="135" 
d="M22 462q0 19 13 32.5t32 13.5t32 -13.5t13 -32.5q0 -18 -13 -30.5t-32 -12.5t-32 12.5t-13 30.5zM22 132q0 19 13 32t32 13t32 -13t13 -32q0 -18 -13 -31t-32 -13t-32 13t-13 31z" />
    <glyph glyph-name="dv_ShortA" unicode="&#x904;" horiz-adv-x="862" 
d="M679 0v327h-279q40 -25 63 -65t23 -83q0 -85 -58 -140t-171 -55q-59 0 -108 17.5t-80 39.5l12 50q36 -25 81.5 -42t97.5 -17q72 0 118.5 39t46.5 106q0 60 -35 101t-96 48q-16 1 -33 2t-36 1h-62l-17 42h91q84 0 128.5 37t44.5 106q0 54 -34.5 92.5t-104.5 38.5
q-51 0 -97 -18.5t-84 -48.5l-9 51q32 26 81.5 45.5t109.5 19.5q107 0 153 -54.5t46 -126.5q0 -41 -22 -78.5t-61 -62.5h291v261h-121l-15 47h136v17q0 38 -28 65t-81 27h-10q-75 0 -124 38.5t-49 98.5v15l56 -15q0 -38 31 -63t80 -25h10q78 -1 125.5 -42.5t47.5 -98.5v-17
h121l16 -47h-137v-649z" />
    <glyph glyph-name="dv_A" unicode="&#x905;" horiz-adv-x="862" 
d="M257 -16q-59 0 -108 17.5t-80 39.5l12 50q36 -25 81.5 -42t97.5 -17q72 0 118.5 39t46.5 106q0 66 -42 109t-126 43h-94l-17 42h113q75 0 113 43t38 100q0 54 -34.5 92.5t-104.5 38.5q-51 0 -97 -18.5t-84 -48.5l-9 51q32 26 81.5 45.5t109.5 19.5q107 0 153 -54.5
t46 -126.5q0 -41 -22 -78.5t-61 -62.5h291v261h-121l-15 47h315l16 -47h-137v-649l-58 16v327h-279q40 -25 63 -65t23 -83q0 -85 -58 -140t-171 -55z" />
    <glyph glyph-name="dv_Aa" unicode="&#x906;" horiz-adv-x="1144" 
d="M679 0v327h-279q40 -25 63 -65t23 -83q0 -85 -58 -140t-171 -55q-59 0 -108 17.5t-80 39.5l12 50q36 -25 81.5 -42t97.5 -17q72 0 118.5 39t46.5 106q0 66 -42 109t-126 43h-94l-17 42h113q75 0 113 43t38 100q0 54 -34.5 92.5t-104.5 38.5q-51 0 -97 -18.5t-84 -48.5
l-9 51q32 26 81.5 45.5t109.5 19.5q107 0 153 -54.5t46 -126.5q0 -41 -22 -78.5t-61 -62.5h291v261h-121l-15 47h597l15 -47h-136v-649l-58 16v633h-224v-649z" />
    <glyph glyph-name="dv_I" unicode="&#x907;" horiz-adv-x="532" 
d="M276 29q69 0 112.5 31.5t43.5 84.5q0 48 -33.5 82.5t-93.5 34.5h-101q-58 0 -103.5 36t-45.5 91q0 60 43.5 93t107.5 33h166v118h-369l-14 47h539l15 -47h-113v-166h-231q-39 0 -62 -23.5t-23 -54.5q0 -33 24 -56t63 -23h95q87 0 141 -42t54 -120q0 -66 -54 -116.5
t-161 -50.5q-19 0 -39.5 2t-39.5 6l102 -127l-38 -26l-128 164q-28 12 -56.5 37.5t-28.5 56.5q0 13 8.5 22.5t24.5 9.5q28 0 53.5 -19t41.5 -62q24 -7 49.5 -11t50.5 -5z" />
    <glyph glyph-name="dv_Ii" unicode="&#x908;" horiz-adv-x="532" 
d="M276 29q71 0 113.5 31.5t42.5 84.5q0 49 -33.5 83t-93.5 34h-101q-58 0 -103.5 36t-45.5 91q0 60 43.5 93t107.5 33h166v118h-369l-14 47h377q-27 22 -47 65t-20 78q0 53 32.5 94.5t95.5 41.5q37 0 63.5 -10.5t43.5 -22.5l-20 -35q-16 10 -36 17t-45 7q-34 0 -57.5 -25.5
t-23.5 -67.5q0 -40 23.5 -81.5t48.5 -60.5h104l15 -47h-113v-166h-231q-39 0 -62 -23.5t-23 -54.5q0 -33 24 -56t63 -23h95q87 0 141 -42t54 -120q0 -66 -54 -116.5t-161 -50.5q-19 0 -39.5 2t-39.5 6l102 -127l-38 -26l-128 164q-28 12 -56.5 37.5t-28.5 56.5
q0 13 8.5 22.5t24.5 9.5q28 0 53.5 -19t41.5 -62q24 -7 49.5 -11t50.5 -5z" />
    <glyph glyph-name="dv_U" unicode="&#x909;" horiz-adv-x="538" 
d="M243 -16q-60 0 -109 17.5t-80 39.5l12 50q37 -25 82.5 -42t97.5 -17q72 0 118 39t46 106t-43 109.5t-127 42.5h-92l-17 42h111q75 0 114 43t39 100q0 40 -17.5 72t-51.5 47h-323l-14 47h544l16 -47h-139q22 -23 34.5 -55t12.5 -65q0 -45 -27.5 -92t-86.5 -68
q66 -19 97 -72t31 -102q0 -85 -58 -140t-170 -55z" />
    <glyph glyph-name="dv_Uu" unicode="&#x90a;" horiz-adv-x="831" 
d="M243 -16q-60 0 -109 17.5t-80 39.5l12 50q37 -25 82.5 -42t97.5 -17q72 0 118 39t46 106t-43 109.5t-127 42.5h-92l-17 42h114q74 0 112 43t38 100q0 40 -17.5 72t-51.5 47h-323l-14 47h838l15 -47h-432q22 -23 34.5 -55t12.5 -65q0 -45 -27.5 -92t-86.5 -68
q25 -7 44 -18t33 -27q25 27 71 53t109 26q99 0 157.5 -60t58.5 -144q0 -95 -68.5 -149t-138.5 -54l-14 46q62 0 110 44.5t48 113.5q0 65 -43 109.5t-108 44.5q-54 0 -93 -22.5t-61 -47.5q11 -22 17 -45.5t6 -43.5q0 -85 -58 -140t-170 -55z" />
    <glyph glyph-name="dv_VocalicR" unicode="&#x90b;" horiz-adv-x="859" 
d="M648 76q43 0 71.5 32t28.5 96q0 47 -23 91.5t-52 74.5q-19 -29 -72.5 -59t-122.5 -30h-39v-297l-58 16v253l-272 -146l-30 42l294 159q-69 83 -122 104t-96 21q-19 0 -44.5 -9t-47.5 -19l-25 49q22 10 57 19t53 9q46 0 106.5 -17t126.5 -98v266h-378l-14 47h866l16 -47
h-432v-306h20q81 0 125.5 30t59.5 55q-10 10 -18.5 24.5t-8.5 34.5q0 19 11.5 31t32.5 12q30 0 52.5 -19t22.5 -42q0 -12 -5 -25.5t-20 -26.5q40 -35 66.5 -96t26.5 -107q0 -70 -38.5 -119.5t-117.5 -49.5q-29 0 -49 3t-45 12l15 43q22 -7 38 -9t41 -2z" />
    <glyph glyph-name="dv_VocalicL" unicode="&#x90c;" horiz-adv-x="840" 
d="M673 -93q16 0 29.5 3t28.5 7l9 -44q-18 -5 -38 -8t-40 -3q-56 0 -101 37t-45 101q0 66 48 102.5t99 36.5v145q-3 54 -24.5 100.5t-87.5 46.5q-54 0 -84 -42.5t-30 -108.5v-124l-58 18v106q0 66 -32 107.5t-95 41.5q-56 0 -90.5 -37t-34.5 -86q0 -79 30 -142.5t79 -162.5
q-12 -4 -24 -9.5t-25 -9.5q-45 88 -82 166t-37 165q0 65 50.5 116t133.5 51q50 0 90 -21t64 -58q23 38 61 58.5t85 20.5q37 0 66 -14t45 -30v197h-660l-14 47h847l15 -47h-130v-539h-48q-44 0 -72.5 -25.5t-28.5 -68.5t27.5 -68t73.5 -25z" />
    <glyph glyph-name="dv_CandraE" unicode="&#x90d;" horiz-adv-x="655" 
d="M495 925l40 -23q-34 -66 -84 -99.5t-115 -33.5q-66 0 -116.5 33.5t-83.5 99.5l39 23q28 -56 70 -84t91 -28q48 0 89 28t70 84zM479 259v374h-295v-504q0 -35 12 -66t43 -50l253 -157l-29 -42l-252 150q-44 26 -64.5 65.5t-20.5 105.5v498h-123l-14 47h662l15 -47h-129
v-388q0 -67 -29 -105.5t-107 -63.5l-27 42q56 20 80.5 48t24.5 93z" />
    <glyph glyph-name="dv_ShortE" unicode="&#x90e;" horiz-adv-x="655" 
d="M479 259v374h-295v-504q0 -35 12 -66t43 -50l253 -157q-7 -10 -14.5 -21t-14.5 -21l-252 150q-44 26 -64.5 65.5t-20.5 105.5v498h-123l-14 47h490v17q0 38 -28.5 65t-80.5 27h-77q-72 0 -122.5 38.5t-50.5 98.5v15l56 -15q0 -38 31 -63.5t80 -25.5h76q77 0 125.5 -41.5
t48.5 -98.5v-17h114l15 -47h-129v-388q0 -67 -29 -105.5t-107 -63.5l-27 42q56 20 80.5 48t24.5 93z" />
    <glyph glyph-name="dv_E" unicode="&#x90f;" horiz-adv-x="655" 
d="M479 259v374h-295v-504q0 -35 12 -66t43 -50l253 -157l-29 -42l-252 150q-44 26 -64.5 65.5t-20.5 105.5v498h-123l-14 47h662l15 -47h-129v-388q0 -67 -29 -105.5t-107 -63.5l-27 42q56 20 80.5 48t24.5 93z" />
    <glyph glyph-name="dv_Ai" unicode="&#x910;" horiz-adv-x="655" 
d="M479 259v374h-295v-504q0 -35 12 -66t43 -50l253 -157l-29 -42l-252 150q-44 26 -64.5 65.5t-20.5 105.5v498h-123l-14 47h473l-244 224l45 34l263 -258h125l15 -47h-129v-388q0 -67 -29 -105.5t-107 -63.5l-27 42q56 20 80.5 48t24.5 93z" />
    <glyph glyph-name="dv_CandraO" unicode="&#x911;" horiz-adv-x="1144" 
d="M1011 925l40 -23q-34 -66 -84 -99.5t-115 -33.5q-66 0 -116.5 33.5t-84.5 99.5l40 23q28 -56 70 -84t91 -28q48 0 89 28t70 84zM679 0v327h-279q40 -25 63 -65t23 -83q0 -85 -58 -140t-171 -55q-59 0 -108 17.5t-80 39.5l12 50q36 -25 81.5 -42t97.5 -17q72 0 118.5 39
t46.5 106t-43 109.5t-127 42.5h-92l-17 42h113q75 0 113 43t38 100q0 54 -34.5 92.5t-104.5 38.5q-51 0 -97 -18.5t-84 -48.5l-9 51q32 26 81.5 45.5t109.5 19.5q107 0 153 -54.5t46 -126.5q0 -41 -22 -78.5t-61 -62.5h291v261h-121l-15 47h597l15 -47h-136v-649l-58 16v633
h-224v-649z" />
    <glyph glyph-name="dv_ShortO" unicode="&#x912;" horiz-adv-x="1144" 
d="M679 0v327h-279q40 -25 63 -66.5t23 -84.5q0 -85 -58 -138.5t-171 -53.5q-59 0 -108 17.5t-80 39.5l12 50q36 -25 81.5 -42t97.5 -17q72 0 118.5 38t46.5 104q0 83 -53 119t-146 36h-63l-17 42h79q90 0 137.5 33.5t47.5 107.5q0 54 -34.5 93.5t-104.5 39.5
q-51 0 -97 -18.5t-84 -48.5l-9 51q32 26 81.5 45.5t109.5 19.5q107 0 153 -56t46 -128q0 -40 -22 -76.5t-61 -61.5h291v261h-121l-15 47h419v17q0 38 -28.5 65t-81.5 27h-16q-81 0 -135 36.5t-54 100.5v15l56 -15q0 -38 31 -63t80 -25h33q78 0 125.5 -42t47.5 -99v-17h120
l15 -47h-136v-649l-58 16v633h-224v-649z" />
    <glyph glyph-name="dv_O" unicode="&#x913;" horiz-adv-x="1144" 
d="M679 0v327h-279q40 -25 63 -65t23 -83q0 -85 -58 -140t-171 -55q-59 0 -108 17.5t-80 39.5l12 50q36 -25 81.5 -42t97.5 -17q72 0 118.5 39t46.5 106q0 84 -53.5 118t-145.5 34h-63l-17 42h79q90 0 137.5 35.5t47.5 107.5q0 54 -34.5 92.5t-104.5 38.5q-51 0 -97 -18.5
t-84 -48.5l-9 51q32 26 81.5 45.5t109.5 19.5q107 0 153 -54.5t46 -126.5q0 -41 -22 -78.5t-61 -62.5h291v261h-121l-15 47h402l-244 224l44 34l264 -258h131l15 -47h-136v-649l-58 16v633h-224v-649z" />
    <glyph glyph-name="dv_Au" unicode="&#x914;" horiz-adv-x="1144" 
d="M679 0v327h-279q40 -25 63 -65t23 -83q0 -85 -58 -140t-171 -55q-59 0 -108 17.5t-80 39.5l12 50q36 -25 81.5 -42t97.5 -17q72 0 118.5 39t46.5 106t-43 109.5t-127 42.5h-92l-17 42h78q90 0 138 35.5t48 107.5q0 54 -34.5 92.5t-104.5 38.5q-51 0 -97 -18.5t-84 -48.5
l-9 51q32 26 81.5 45.5t109.5 19.5q107 0 153 -54.5t46 -126.5q0 -41 -22 -78.5t-61 -62.5h291v261h-121l-15 47h415l-42 45q-52 56 -89.5 68.5t-80.5 12.5h-85l-13 49h95q56 0 102.5 -15t101.5 -84l-74 237l55 24l84 -337h128l15 -47h-136v-649l-58 16v633h-224v-649z" />
    <glyph glyph-name="dv_Ka" unicode="&#x915;" horiz-adv-x="881" 
d="M109 307q0 -67 44.5 -111t109.5 -44q62 0 97 31t53 62v123q-18 31 -53 62t-97 31q-63 0 -108 -44t-46 -110zM778 307q0 66 -45.5 110t-108.5 44q-64 0 -100 -33.5t-53 -63.5v-380l-58 16v164q-23 -23 -60 -42t-87 -19q-91 0 -156 53.5t-65 149.5q0 93 62.5 148.5
t158.5 55.5q50 0 87 -20t60 -43v186h-410l-14 47h888l15 -47h-421v-190q23 25 61 46t90 21q95 0 157.5 -55.5t62.5 -148.5q0 -94 -62.5 -148.5t-143.5 -54.5l-12 47q70 0 112 46t42 111z" />
    <glyph glyph-name="dv_Kha" unicode="&#x916;" horiz-adv-x="906" 
d="M396 340q0 75 54.5 127.5t140.5 52.5q41 0 74.5 -14.5t57.5 -37.5v165h-434q26 -30 39 -73t13 -83q0 -73 -46 -133.5t-127 -76.5q5 -78 81.5 -157t190.5 -79q111 0 186 60.5t93 120.5q-25 -22 -56.5 -37t-71.5 -15q-82 0 -138.5 51t-56.5 129zM723 340v5q-2 54 -38 91
t-94 37q-57 0 -95.5 -38.5t-38.5 -94.5q0 -57 37 -95t97 -38t96 38t36 95zM723 0v116q-37 -51 -109.5 -91.5t-173.5 -40.5q-148 0 -235 90t-92 191h-32q-14 0 -22 9t-8 22q0 31 24 60t59 29q12 0 21 -11t11 -27l3 -25q48 13 80.5 55t32.5 100q0 42 -19 88.5t-50 67.5h-210
l-14 47h913l15 -47h-136v-649z" />
    <glyph glyph-name="dv_Ga" unicode="&#x917;" horiz-adv-x="598" 
d="M185 633v-408q0 -20 -7 -32t-21 -12q-40 0 -68.5 30.5t-28.5 61.5q0 15 8 24.5t24 9.5h35v326h-124l-14 47h605l16 -47h-136v-649l-58 16v633h-231z" />
    <glyph glyph-name="dv_Gha" unicode="&#x918;" horiz-adv-x="700" 
d="M518 0v218q-29 -55 -88 -93t-148 -38q-96 0 -153 48.5t-57 120.5q0 49 24.5 91t73.5 58q-40 13 -63.5 50t-23.5 83q0 26 10 51t28 44h-118l-14 47h707l15 -47h-136v-649zM143 537q0 -49 34 -80.5t105 -31.5h35l19 -43h-49q-89 0 -121.5 -39t-32.5 -88q0 -54 47 -85
t105 -31q99 0 166 69t67 222v203h-309q-26 -7 -46 -37.5t-20 -58.5z" />
    <glyph glyph-name="dv_Nga" unicode="&#x919;" horiz-adv-x="566" 
d="M485 383q0 19 13 32t31 13q19 0 32.5 -13t13.5 -32q0 -18 -13.5 -31t-32.5 -13q-18 0 -31 13t-13 31zM274 29q71 0 113.5 31.5t42.5 84.5q0 49 -33.5 83t-93.5 34h-97q-58 0 -103.5 36t-45.5 91q0 60 43.5 93t107.5 33h162v118h-367l-14 47h573l16 -47h-150v-166h-227
q-39 0 -62 -23.5t-23 -54.5q0 -33 24 -56t63 -23h91q87 0 141 -42t54 -120q0 -69 -52.5 -118t-162.5 -49q-61 0 -120.5 18t-88.5 39l12 52q36 -25 90 -42.5t107 -18.5z" />
    <glyph glyph-name="dv_Ca" unicode="&#x91a;" horiz-adv-x="685" 
d="M423 423h-74q-77 0 -119 -38.5t-42 -97.5q0 -64 41.5 -103t113.5 -39q75 0 117.5 41.5t42.5 107.5v339h-500l-14 47h692l15 -47h-135v-649l-58 16v155q-25 -25 -65.5 -42.5t-94.5 -17.5q-88 0 -151 48.5t-63 143.5q0 43 19.5 80t47.5 56h-158l-15 49h382z" />
    <glyph glyph-name="dv_Cha" unicode="&#x91b;" horiz-adv-x="761" 
d="M312 -16q-113 0 -180.5 52t-67.5 144q0 49 32.5 102.5t98.5 72.5q-59 22 -88 68.5t-29 90.5q0 34 12 65t34 54h-120l-15 47h767l16 -47h-157v-77q56 -13 83.5 -58.5t27.5 -90.5q0 -110 -105 -266.5t-309 -156.5zM311 32q104 0 188.5 64t120.5 146q-62 2 -123.5 49.5
t-61.5 120.5q0 62 37 102.5t94 44.5v74h-357q-34 -15 -51.5 -46t-17.5 -71q0 -58 39 -100t115 -42h52l17 -42h-68q-80 0 -125 -43t-45 -111q0 -70 55.5 -108t130.5 -38zM671 403q0 38 -20 73t-71 35q-43 0 -66.5 -29.5t-23.5 -69.5q0 -58 52 -92.5t100 -38.5q13 29 21 60
t8 62z" />
    <glyph glyph-name="dv_Ja" unicode="&#x91c;" horiz-adv-x="739" 
d="M203 82q-60 0 -108.5 17t-80.5 39l13 52q35 -27 80 -43t96 -16q72 0 113.5 39t41.5 103q0 62 -42.5 99t-110.5 37h-68l-17 49h437v175h-554l-14 47h746l15 -47h-136v-649l-57 16v409h-203q30 -19 47.5 -56t17.5 -80q0 -93 -60.5 -142t-155.5 -49z" />
    <glyph glyph-name="dv_Jha" unicode="&#x91d;" horiz-adv-x="836" 
d="M653 633h-223v-166h-231q-39 0 -62 -23.5t-23 -54.5q0 -33 24 -56t63 -23h95q49 0 89.5 -14t65.5 -40h202v377zM276 29q71 0 113.5 31.5t42.5 84.5q0 49 -33.5 83t-93.5 34h-101q-58 0 -103.5 36t-45.5 91q0 60 43.5 93t107.5 33h166v118h-369l-14 47h843l15 -47h-136
v-649l-58 16v211h-174q6 -14 9 -30t3 -33q0 -66 -54 -116.5t-161 -50.5q-19 0 -39.5 2t-39.5 6l102 -127l-38 -26l-128 164q-28 12 -56.5 37.5t-28.5 56.5q0 13 8.5 22.5t24.5 9.5q28 0 53.5 -19t41.5 -62q24 -7 49.5 -11t50.5 -5z" />
    <glyph glyph-name="dv_Nya" unicode="&#x91e;" horiz-adv-x="745" 
d="M208 93q-60 0 -108.5 17.5t-80.5 39.5l13 52q35 -27 80 -43t96 -16q72 0 113.5 43t41.5 116t-38.5 116t-116.5 43q-25 0 -52 -4.5t-49 -11.5l-14 47q25 8 54.5 13t60.5 5q84 0 145.5 -44t68.5 -145h141v312h-560l-14 47h752l15 -47h-135v-649l-58 16v275h-141
q-9 -92 -70 -137t-144 -45z" />
    <glyph glyph-name="dv_Tta" unicode="&#x91f;" horiz-adv-x="611" 
d="M358 31q55 0 104.5 15t95.5 48l8 -53q-38 -29 -93 -44t-115 -15q-115 0 -207.5 52t-92.5 193q0 124 90.5 186t221.5 62h67v158h-434l-14 47h618l15 -47h-127v-207h-125q-112 0 -181 -51.5t-69 -147.5q0 -109 68.5 -152.5t169.5 -43.5z" />
    <glyph glyph-name="dv_Ttha" unicode="&#x920;" horiz-adv-x="706" 
d="M59 227q0 112 77.5 174.5t190.5 70.5v161h-324l-14 47h713l15 -47h-332v-160q109 -6 190.5 -62t81.5 -182q0 -122 -88 -184.5t-211 -62.5q-117 0 -208 55.5t-91 189.5zM358 32q100 0 169 50.5t69 146.5q0 107 -68.5 151t-169.5 44q-100 0 -169 -50.5t-69 -146.5
q0 -107 68.5 -151t169.5 -44z" />
    <glyph glyph-name="dv_Dda" unicode="&#x921;" horiz-adv-x="530" 
d="M274 29q71 0 113.5 31.5t42.5 84.5q0 49 -33.5 83t-93.5 34h-97q-58 0 -103.5 36t-45.5 91q0 60 43.5 93t107.5 33h162v118h-367l-14 47h537l15 -47h-113v-166h-227q-39 0 -62 -23.5t-23 -54.5q0 -33 24 -56t63 -23h91q87 0 141 -42t54 -120q0 -69 -52.5 -118t-162.5 -49
q-61 0 -120.5 18t-88.5 39l12 52q36 -25 90 -42.5t107 -18.5z" />
    <glyph glyph-name="dv_Ddha" unicode="&#x922;" horiz-adv-x="626" 
d="M350 31q-20 19 -38.5 48.5t-18.5 66.5q0 58 41 100t104 42q67 0 107 -38.5t40 -95.5q0 -72 -65 -122t-162 -50q-115 0 -207.5 56t-92.5 197q0 123 90.5 189.5t221.5 66.5h66v142h-433l-14 47h633l15 -47h-142v-191h-125q-112 0 -181 -55.5t-69 -151.5q0 -107 65.5 -155
t164.5 -49zM351 145q0 -37 19.5 -64t52.5 -42q53 13 79 45t26 68q0 32 -21 58t-64 26q-42 0 -67 -25.5t-25 -65.5z" />
    <glyph glyph-name="dv_Nna" unicode="&#x923;" horiz-adv-x="849" 
d="M283 178q-84 0 -133.5 52.5t-49.5 151.5v251h-97l-14 47h856l15 -47h-135v-649l-58 16v633h-201v-251q0 -99 -49 -151.5t-134 -52.5zM157 377q0 -68 32 -109t96 -42q61 2 92.5 43t31.5 108v256h-252v-256z" />
    <glyph glyph-name="dv_Ta" unicode="&#x924;" horiz-adv-x="654" 
d="M472 0v401h-200q-75 0 -110.5 -30.5t-35.5 -82.5q0 -53 40.5 -123t102.5 -163l-50 -20q-50 72 -101 155.5t-51 154.5q0 66 45 111t125 45h235v185h-469l-14 47h661l15 -47h-135v-649z" />
    <glyph glyph-name="dv_Tha" unicode="&#x925;" horiz-adv-x="647" 
d="M148 493q-43 0 -77.5 26.5t-34.5 69.5t31.5 74t82.5 31q57 0 101.5 -50t44.5 -116q0 -87 -45 -125.5t-95 -61.5q14 -52 58.5 -81.5t100.5 -32.5q66 0 107.5 36.5t41.5 102.5v267h-88l-14 47h281l15 -47h-135v-649l-59 16v235q-22 -28 -62.5 -42.5t-86.5 -14.5
q-88 0 -151.5 56.5t-63.5 128.5l12 14q39 12 85.5 43t46.5 97v12t-1 12q-13 -19 -40 -33.5t-55 -14.5zM151 647q-25 0 -42.5 -15.5t-17.5 -41.5q0 -23 17.5 -38t42.5 -15q29 0 48 18t27 40q-12 23 -31.5 37.5t-43.5 14.5z" />
    <glyph glyph-name="dv_Da" unicode="&#x926;" horiz-adv-x="578" 
d="M531 -16l-46 -27l-72 134q-17 -5 -40 -6.5t-45 -1.5q-104 0 -187 55t-83 172q0 100 78.5 159.5t203.5 59.5h58v104h-395l-14 47h584l16 -47h-133v-152h-113q-99 0 -161.5 -47.5t-62.5 -123.5q0 -83 58.5 -129.5t150.5 -46.5q16 0 32 1.5t29 3.5q-5 13 -8 23t-3 20
q0 20 13 30.5t31 10.5q22 0 48.5 -14.5t26.5 -39.5q0 -14 -9.5 -30t-28.5 -31z" />
    <glyph glyph-name="dv_Dha" unicode="&#x927;" horiz-adv-x="714" 
d="M147 537q0 -49 33.5 -80.5t104.5 -31.5h36l18 -43h-49q-89 0 -121.5 -39t-32.5 -88q0 -57 50 -86.5t108 -29.5q97 0 167.5 67.5t70.5 216.5v210h-80l-14 47h272l15 -47h-135v-649l-58 16v218q-28 -55 -90 -93t-151 -38q-96 0 -155.5 46.5t-59.5 122.5q0 49 24.5 91
t73.5 58q-40 13 -64 50t-24 83q0 63 47 109.5t128 46.5q47 0 84.5 -18.5t48.5 -34.5l-30 -34q-15 16 -41.5 26.5t-60.5 10.5q-51 0 -83 -31t-32 -76z" />
    <glyph glyph-name="dv_Na" unicode="&#x928;" horiz-adv-x="591" 
d="M408 0v331h-241v-37q0 -21 -7.5 -33t-21.5 -12q-40 0 -68.5 31t-28.5 63q0 14 8.5 23.5t24.5 9.5h334v257h-405l-14 47h598l15 -47h-136v-649z" />
    <glyph glyph-name="dv_Nnna" unicode="&#x929;" horiz-adv-x="591" 
d="M408 0v331h-241v-37q0 -21 -7.5 -33t-21.5 -12q-40 0 -68.5 31t-28.5 63q0 14 8.5 23.5t24.5 9.5h334v257h-405l-14 47h598l15 -47h-136v-649zM92 23q0 19 13.5 32t31.5 13q19 0 32 -13t13 -32q0 -17 -13 -30t-32 -13q-18 0 -31.5 13t-13.5 30z" />
    <glyph glyph-name="dv_Pa" unicode="&#x92a;" horiz-adv-x="635" 
d="M453 0v234q-22 -25 -61.5 -40.5t-85.5 -15.5q-98 0 -153.5 55t-55.5 154v246h-94l-14 47h642l15 -47h-135v-649zM453 365v268h-299v-253q0 -69 40 -110.5t115 -41.5q66 0 104.5 37.5t39.5 99.5z" />
    <glyph glyph-name="dv_Pha" unicode="&#x92b;" horiz-adv-x="919" 
d="M309 228q66 0 104.5 38.5t38.5 101.5v265h-298v-253q0 -69 40 -110.5t115 -41.5zM452 0v234q-22 -25 -61 -40.5t-85 -15.5q-98 0 -154 55t-56 154v246h-93l-14 47h926l16 -47h-420v-197q23 24 60.5 45t88.5 21q95 0 157.5 -55.5t62.5 -148.5q0 -94 -63 -148.5t-143 -54.5
l-11 46q70 0 112 46t42 111q0 67 -46 110.5t-108 43.5q-64 0 -100 -32.5t-52 -62.5v-373z" />
    <glyph glyph-name="dv_Ba" unicode="&#x92c;" horiz-adv-x="595" 
d="M413 0v164q-23 -23 -60 -42t-87 -19q-91 0 -156 53.5t-65 149.5q0 93 62.5 148.5t158.5 55.5q50 0 87 -19t60 -42v184h-410l-14 47h602l16 -47h-136v-649zM263 461q-24 0 -46 -6.5t-40 -19.5l206 -231q10 10 17 20.5t13 20.5v123q-18 31 -53 62t-97 31zM109 307
q0 -67 44.5 -111t109.5 -44q26 0 48 7t39 17l-206 229q-16 -19 -25.5 -44.5t-9.5 -53.5z" />
    <glyph glyph-name="dv_Bha" unicode="&#x92d;" horiz-adv-x="704" 
d="M521 0v265h-254v-37q0 -20 -7 -32t-21 -12q-41 0 -69.5 33t-28.5 66q0 13 10 20.5t23 7.5h36v191q-13 -10 -31.5 -15.5t-35.5 -5.5q-51 0 -81.5 30t-30.5 76t32.5 76.5t80.5 30.5q60 0 92 -41.5t32 -107.5v-234h253v322h-128l-15 47h321l16 -47h-136v-649zM147 524
q19 0 35.5 9t26.5 21q-1 38 -15.5 64.5t-48.5 26.5q-28 0 -44 -18t-16 -43q0 -23 16.5 -41.5t45.5 -18.5z" />
    <glyph glyph-name="dv_Ma" unicode="&#x92e;" horiz-adv-x="635" 
d="M453 0v265h-281v-37q0 -20 -7 -32t-21 -12q-40 0 -68.5 30.5t-28.5 61.5q0 14 8 24.5t24 10.5h35v322h-111l-14 47h642l16 -47h-136v-649zM453 633h-280v-322h280v322z" />
    <glyph glyph-name="dv_Ya" unicode="&#x92f;" horiz-adv-x="613" 
d="M430 0v235q-22 -28 -62.5 -42.5t-86.5 -14.5q-88 0 -151.5 56.5t-63.5 128.5l12 14q31 9 56.5 46.5t25.5 92.5q0 42 -19.5 73.5t-54.5 43.5h-83l-14 47h620l15 -47h-136v-649zM281 228q80 0 114.5 40t34.5 124v241h-264q20 -14 35 -47t15 -76q0 -48 -23.5 -95t-70.5 -71
q14 -51 58.5 -82t100.5 -34z" />
    <glyph glyph-name="dv_Ra" unicode="&#x930;" horiz-adv-x="429" 
d="M128 265h-40q-11 0 -20.5 5.5t-9.5 19.5q0 33 20.5 64t52.5 31q13 0 22 -11t15 -27l10 -25q48 13 80.5 55t32.5 100q0 46 -19 90.5t-50 65.5h-219l-14 47h435l16 -47h-141q27 -30 40 -73t13 -83q0 -74 -45.5 -131.5t-122.5 -76.5l168 -269l-60 -18z" />
    <glyph glyph-name="dv_Rra" unicode="&#x931;" horiz-adv-x="429" 
d="M128 265h-40q-11 0 -20.5 7t-9.5 18q0 29 20.5 62t52.5 33q13 0 22 -11t15 -27l10 -25q48 13 80.5 55t32.5 100q0 46 -19 90.5t-50 65.5h-219l-14 47h435l16 -47h-141q27 -30 40 -73t13 -83q0 -74 -45.5 -131.5t-122.5 -76.5l168 -269l-60 -18zM53 25q0 19 13 32t31 13
q19 0 32.5 -13t13.5 -32q0 -18 -13.5 -31t-32.5 -13q-18 0 -31 13t-13 31z" />
    <glyph glyph-name="dv_La" unicode="&#x932;" horiz-adv-x="845" 
d="M663 0v309q-4 50 -32 86t-80 36q-54 0 -84 -42.5t-30 -108.5v-124l-58 18v106q0 66 -32 107.5t-95 41.5q-56 0 -90.5 -37t-34.5 -86q0 -79 30 -142.5t79 -162.5l-49 -19q-45 88 -82 166t-37 165q0 66 50.5 116.5t133.5 50.5q50 0 90 -21t64 -58q23 38 61 58.5t85 20.5
q37 0 66 -14t45 -30v197h-660l-14 47h852l15 -47h-135v-649z" />
    <glyph glyph-name="dv_Lla" unicode="&#x933;" horiz-adv-x="893" 
d="M641 52q-59 0 -112 36.5t-84 93.5q-28 -51 -72 -90.5t-104 -39.5q-98 0 -155.5 60.5t-57.5 156.5q0 95 58.5 162t154.5 67q60 0 113 -37.5t86 -90.5q23 45 61.5 82t89.5 44v137h-616l-14 47h900l15 -47h-227v-138q80 -10 128 -69t48 -146q0 -95 -60.5 -161.5
t-151.5 -66.5zM640 448q-63 0 -100 -60t-56 -117q-2 -5 -7 -20t-7 -20q27 -52 72.5 -91.5t97.5 -39.5q69 0 112 52.5t43 130.5q0 70 -41.5 117.5t-113.5 47.5zM431 278q3 10 6 20.5t7 20.5q-28 51 -71.5 89.5t-101.5 38.5q-72 0 -115 -52t-43 -128q0 -70 43 -117.5
t115 -47.5q63 0 103 59.5t57 116.5z" />
    <glyph glyph-name="dv_Llla" unicode="&#x934;" horiz-adv-x="893" 
d="M641 52q-59 0 -112 36.5t-84 93.5q-28 -51 -72 -90.5t-104 -39.5q-98 0 -155.5 60.5t-57.5 156.5q0 95 58.5 162t154.5 67q60 0 113 -37.5t86 -90.5q23 45 61.5 82t89.5 44v137h-616l-14 47h900l15 -47h-227v-138q80 -10 128 -69t48 -146q0 -95 -60.5 -161.5
t-151.5 -66.5zM640 448q-63 0 -100 -60t-56 -117q-2 -5 -7 -20t-7 -20q27 -52 72.5 -91.5t97.5 -39.5q69 0 112 52.5t43 130.5q0 70 -41.5 117.5t-113.5 47.5zM431 278q3 10 6 20.5t7 20.5q-28 51 -71.5 89.5t-101.5 38.5q-72 0 -115 -52t-43 -128q0 -70 43 -117.5
t115 -47.5q63 0 103 59.5t57 116.5zM399 -37q0 19 13 32t32 13t31.5 -13t12.5 -32q0 -18 -12.5 -31t-31.5 -13t-32 13t-13 31z" />
    <glyph glyph-name="dv_Va" unicode="&#x935;" horiz-adv-x="595" 
d="M413 449v184h-410l-14 47h602l16 -47h-136v-649l-58 16v164q-23 -23 -60 -42t-87 -19q-91 0 -156 53.5t-65 149.5q0 93 62.5 148.5t158.5 55.5q50 0 87 -19t60 -42zM263 152q62 0 97 31t53 62v123q-18 31 -53 62t-97 31t-108 -44t-46 -110q0 -67 44.5 -111t109.5 -44z
" />
    <glyph glyph-name="dv_Sha" unicode="&#x936;" horiz-adv-x="753" 
d="M571 0v633h-122l-14 47h314l15 -47h-135v-649zM175 529q36 0 62.5 27.5t36.5 58.5q-15 15 -35 24t-44 9q-34 0 -59 -18.5t-25 -48.5q0 -25 19 -38.5t45 -13.5zM395 478q0 -91 -57 -137t-133 -71l180 -270l-60 -18l-175 284h-39q-14 0 -22 8.5t-8 23.5q0 31 21 59.5
t52 28.5q13 0 22.5 -11t14.5 -27l9 -28q53 7 95 50t42 110q0 23 -8 51t-25 52q-12 -35 -46.5 -66t-85.5 -31q-47 0 -82 26.5t-35 69.5q0 46 40 79t103 33q88 0 142.5 -63.5t54.5 -152.5z" />
    <glyph glyph-name="dv_Ssa" unicode="&#x937;" horiz-adv-x="637" 
d="M455 0v234q-22 -25 -62.5 -40.5t-86.5 -15.5q-98 0 -153.5 55t-55.5 154v246h-94l-14 47h644l16 -47h-136v-649zM455 365v268h-269l265 -300q2 7 2.5 15t1.5 17zM309 228q42 0 73.5 15t48.5 43l-277 313v-219q0 -69 40 -110.5t115 -41.5z" />
    <glyph glyph-name="dv_Sa" unicode="&#x938;" horiz-adv-x="747" 
d="M564 633h-265q27 -30 40 -73t13 -83q0 -38 -13 -72.5t-36 -62.5h261v291zM128 265h-40q-11 0 -20.5 7.5t-9.5 17.5q0 30 20.5 62.5t52.5 32.5q13 0 22 -11t15 -27l10 -25q48 13 80.5 55t32.5 100q0 46 -19 90.5t-50 65.5h-219l-14 47h753l15 -47h-135v-649l-58 16v299
h-309q-16 -10 -34 -18t-37 -12l168 -269l-60 -18z" />
    <glyph glyph-name="dv_Ha" unicode="&#x939;" horiz-adv-x="531" 
d="M285 338q-66 0 -106.5 -38.5t-40.5 -94.5q0 -85 78 -127t155 -47l-15 -47q-106 6 -191 64t-85 157q0 43 16 77.5t44 58.5q-22 13 -37.5 37.5t-15.5 54.5q1 54 35.5 81t98.5 27h157v92h-375l-14 47h537l16 -47h-107v-140h-221q-32 0 -50.5 -16.5t-19.5 -42.5
q0 -24 13.5 -40.5t33.5 -24.5q21 8 45 12.5t51 4.5q91 0 144 -44t53 -103q0 -31 -13 -63.5t-38 -50.5l-40 33q20 18 28.5 37t8.5 41q0 43 -40 72.5t-105 29.5z" />
    <glyph glyph-name="dv_MatraOe" unicode="&#x93a;" horiz-adv-x="0" 
d="M-40 881v-201h-56v217z" />
    <glyph glyph-name="dv_MatraOoe" unicode="&#x93b;" 
d="M182 881v-201h121l16 -47h-136v-649l-58 16v633h-122l-14 47h137v217z" />
    <glyph glyph-name="dv_Nukta" unicode="&#x93c;" horiz-adv-x="0" 
d="M24 -97q0 19 13 32t32 13t32 -13t13 -32q0 -18 -13 -30.5t-32 -12.5t-32 12.5t-13 30.5z" />
    <glyph glyph-name="dv_Avagraha" unicode="&#x93d;" horiz-adv-x="520" 
d="M249 29q69 0 111.5 35.5t42.5 94.5q0 60 -54 136.5t-110 141.5l-170 196v47h385l12 -45h-339l139 -155q60 -68 127.5 -157t67.5 -164t-57 -126.5t-164 -51.5q-52 0 -109.5 16t-96.5 40l20 50q36 -25 90 -41.5t105 -16.5z" />
    <glyph glyph-name="dv_MatraAa" unicode="&#x93e;" 
d="M125 0v633h-122l-14 47h314l16 -47h-136v-649z" />
    <glyph glyph-name="dv_MatraI" unicode="&#x93f;" 
d="M294 893q-74 0 -112.5 -34.5t-38.5 -86.5q0 -34 13 -58t23 -34h124l16 -47h-136v-649l-58 16v633h-122l-14 47h127q-10 15 -20.5 39t-10.5 55q0 74 55.5 120.5t151.5 46.5q125 0 264 -71.5t199 -118.5l-26 -35q-75 51 -199.5 114t-235.5 63z" />
    <glyph glyph-name="dv_MatraIi" unicode="&#x940;" 
d="M-182 708q-13 21 -24 47.5t-11 56.5q0 55 39.5 92t99.5 37q108 0 168.5 -93t83.5 -168h127l16 -47h-136v-649l-58 16v633h-122l-15 47h130q-13 43 -60 128t-132 85q-41 0 -65 -23.5t-24 -58.5q0 -19 6 -39t19 -41z" />
    <glyph glyph-name="dv_MatraU" unicode="&#x941;" horiz-adv-x="0" 
d="M-140 -251q50 0 75 28t25 66t-27 65.5t-73 27.5h-48v46h56q56 0 101 -37t45 -102t-46 -102t-109 -37q-69 0 -131.5 42.5t-110.5 117.5l37 24q49 -61 97 -100t109 -39z" />
    <glyph glyph-name="dv_MatraUu" unicode="&#x942;" horiz-adv-x="0" 
d="M-139 -64q-50 0 -75 -28t-25 -65q0 -38 27 -66t73 -28h49v-45h-57q-55 0 -100 36.5t-45 102.5q0 64 45.5 101.5t109.5 37.5q69 0 131.5 -43t110.5 -118l-37 -24q-50 61 -97.5 100t-109.5 39z" />
    <glyph glyph-name="dv_MatraVocalicR" unicode="&#x943;" horiz-adv-x="0" 
d="M-167 -251q16 0 30 3t28 7l9 -44q-17 -5 -37.5 -8t-40.5 -3q-56 0 -99.5 37t-43.5 102t45.5 102t97.5 37h59v-46h-48q-43 0 -72 -25t-29 -68t27.5 -68.5t73.5 -25.5z" />
    <glyph glyph-name="dv_MatraVocalicRr" unicode="&#x944;" horiz-adv-x="0" 
d="M-264 -100q0 46 32.5 64t67.5 18h41v-41h-33q-22 0 -39 -10.5t-17 -29.5q0 -18 17 -28t39 -10h32l-27 -38q-30 0 -46.5 -10.5t-16.5 -28.5t13.5 -28.5t47.5 -10.5h30l-22 -40h-19q-35 0 -67.5 17.5t-32.5 61.5q0 19 12 35t28 23q-12 4 -26 20.5t-14 35.5z" />
    <glyph glyph-name="dv_MatraCandraE" unicode="&#x945;" horiz-adv-x="0" 
d="M377 925l40 -23q-34 -66 -84.5 -99.5t-114.5 -33.5q-66 0 -116.5 33.5t-84.5 99.5l40 23q28 -56 70 -84t91 -28q48 0 89 28t70 84z" />
    <glyph glyph-name="dv_MatraShortE" unicode="&#x946;" horiz-adv-x="0" 
d="M-289 838q78 -1 125.5 -42.5t47.5 -98.5v-38h-58v38q0 38 -28 65t-81 27q-75 0 -124 38.5t-49 98.5v15l56 -15q0 -38 31 -63t80 -25z" />
    <glyph glyph-name="dv_MatraE" unicode="&#x947;" horiz-adv-x="0" 
d="M-113 658h-63l-268 246l44 34z" />
    <glyph glyph-name="dv_MatraAi" unicode="&#x948;" horiz-adv-x="0" 
d="M-131 680h-54l-42 45q-51 57 -89 69t-81 12h-85l-13 49h95q56 0 102.5 -15t101.5 -84l-74 237l55 24z" />
    <glyph glyph-name="dv_MatraCandraO" unicode="&#x949;" 
d="M313 925l40 -23q-34 -66 -84 -99.5t-115 -33.5q-66 0 -116 33.5t-84 99.5l40 23q28 -56 69.5 -84t90.5 -28t90 28t69 84zM125 0v633h-122l-14 47h314l16 -47h-136v-649z" />
    <glyph glyph-name="dv_MatraShortO" unicode="&#x94a;" 
d="M9 838q79 -1 126.5 -42.5t47.5 -98.5v-17h120l16 -47h-136v-649l-58 16v633h-122l-14 47h136v17q0 38 -28.5 65t-80.5 27q-75 0 -124.5 38.5t-49.5 98.5v15l56 -15q0 -38 31 -63t80 -25z" />
    <glyph glyph-name="dv_MatraO" unicode="&#x94b;" 
d="M125 0v633h-122l-14 47h126l-244 224l45 34l263 -258h124l16 -47h-136v-649z" />
    <glyph glyph-name="dv_MatraAu" unicode="&#x94c;" 
d="M125 0v633h-122l-14 47h134l-42 45q-52 56 -89.5 68.5t-80.5 12.5h-85l-13 49h95q56 0 102.5 -15t101.5 -84l-74 237l55 24l84 -337h126l16 -47h-136v-649z" />
    <glyph glyph-name="dv_Halant" unicode="&#x94d;" horiz-adv-x="0" 
d="M-14 -293l-204 183l40 42l195 -193z" />
    <glyph glyph-name="dv_PrishtaMatraE" unicode="&#x94e;" horiz-adv-x="305" 
d="M123 0v680h178l16 -47h-136v-649z" />
    <glyph glyph-name="dv_MatraAw" unicode="&#x94f;" 
d="M-35 781h93q21 0 37.5 -2t29.5 -5q-4 20 -15.5 35t-35.5 18q-69 9 -95.5 44.5t-26.5 86.5v15l54 -15q0 -37 17 -58.5t48 -25.5q60 -10 85.5 -47.5t25.5 -97.5v-49h121l16 -47h-136v-649l-58 16v633h-122l-14 47h139q0 29 -11 42t-45 13h-101q-78 0 -122.5 37t-44.5 94v14
l53 -14q0 -38 32 -61.5t76 -23.5z" />
    <glyph glyph-name="dv_Om" unicode="&#x950;" horiz-adv-x="847" 
d="M563 822q0 19 12.5 32t31.5 13t32 -13t13 -32t-13 -31.5t-32 -12.5t-31.5 12.5t-12.5 31.5zM766 814l40 -23q-34 -67 -84 -100t-115 -33q-66 0 -116.5 33t-84.5 100l40 23q28 -56 70 -84t91 -28t89.5 28t69.5 84zM471 513q0 -45 -28.5 -92t-87.5 -68q25 -7 45 -18.5
t34 -27.5q24 27 70.5 53.5t111.5 26.5q99 0 157 -60t58 -144q0 -95 -68.5 -149t-138.5 -54l-15 46q63 0 111 44.5t48 113.5q0 65 -43 109.5t-107 44.5q-54 0 -94 -23t-62 -48q12 -22 18 -45t6 -43q0 -85 -58 -140t-171 -55q-59 0 -108 17.5t-80 39.5l12 50q36 -25 81.5 -42
t97.5 -17q72 0 118.5 39t46.5 106t-43 109.5t-127 42.5h-92l-17 42h113q75 0 113 43t38 100q0 54 -36.5 92.5t-102.5 38.5q-51 0 -97 -18.5t-84 -48.5l-9 51q32 26 81.5 45.5t109.5 19.5q107 0 153 -54.5t46 -126.5z" />
    <glyph glyph-name="dv_Udatta" unicode="&#x951;" horiz-adv-x="0" 
d="M68 759h-36l-9 180h55z" />
    <glyph glyph-name="dv_Anudatta" unicode="&#x952;" horiz-adv-x="0" 
d="M538 -133h-507l-14 46h506z" />
    <glyph glyph-name="dv_Graveaccent" unicode="&#x953;" horiz-adv-x="0" 
d="M149 759h-39l-88 180h66z" />
    <glyph glyph-name="dv_Acuteaccent" unicode="&#x954;" horiz-adv-x="0" 
d="M60 759h-38l60 180h67z" />
    <glyph glyph-name="dv_MatraCandraLongE" unicode="&#x955;" horiz-adv-x="0" 
d="M380 960l40 -23q-34 -66 -84 -99.5t-115 -33.5q-66 0 -116.5 33.5t-84.5 99.5l40 23q28 -56 70 -84t91 -28t89.5 28t69.5 84zM433 726h-403l-13 42h402z" />
    <glyph glyph-name="dv_MatraUe" unicode="&#x956;" horiz-adv-x="0" 
d="M377 -43l40 -23q-34 -66 -84.5 -99t-114.5 -33q-66 0 -116.5 33t-84.5 99l40 23q28 -56 70 -84t91 -28q48 0 89 28t70 84z" />
    <glyph glyph-name="dv_MatraUue" unicode="&#x957;" horiz-adv-x="0" 
d="M261 -179q-55 0 -110.5 25t-89.5 87l20 12t20 11q29 -52 75 -71.5t85 -19.5q40 0 85.5 19.5t75.5 71.5q10 -5 20 -11l20 -12q-34 -62 -90 -87t-111 -25zM262 -272q-69 0 -135 27.5t-110 87.5l40 23q31 -44 91 -69.5t114 -25.5t113 24.5t90 70.5l40 -23
q-42 -62 -108 -88.5t-135 -26.5z" />
    <glyph glyph-name="dv_Qa" unicode="&#x958;" horiz-adv-x="881" 
d="M109 307q0 -67 44.5 -111t109.5 -44q62 0 97 31t53 62v123q-18 31 -53 62t-97 31q-63 0 -108 -44t-46 -110zM778 307q0 66 -45.5 110t-108.5 44q-64 0 -100 -33.5t-53 -63.5v-380l-58 16v164q-23 -23 -60 -42t-87 -19q-91 0 -156 53.5t-65 149.5q0 93 62.5 148.5
t158.5 55.5q50 0 87 -20t60 -43v186h-410l-14 47h888l15 -47h-421v-190q23 25 61 46t90 21q95 0 157.5 -55.5t62.5 -148.5q0 -94 -62.5 -148.5t-143.5 -54.5l-12 47q70 0 112 46t42 111zM121 -29q0 19 13 32t32 13t32 -13t13 -32q0 -18 -13 -31t-32 -13t-32 13t-13 31z" />
    <glyph glyph-name="dv_Khha" unicode="&#x959;" horiz-adv-x="906" 
d="M396 340q0 75 54.5 127.5t140.5 52.5q41 0 74.5 -14.5t57.5 -37.5v165h-434q26 -30 39 -73t13 -83q0 -73 -46 -133.5t-127 -76.5q5 -78 81.5 -157t190.5 -79q111 0 186 60.5t93 120.5q-25 -22 -56.5 -37t-71.5 -15q-82 0 -138.5 51t-56.5 129zM723 340q0 54 -36.5 93.5
t-95.5 39.5q-58 0 -96 -38.5t-38 -94.5q0 -57 37 -95t97 -38t96 38t36 95zM723 0v116q-37 -51 -109.5 -91.5t-173.5 -40.5q-148 0 -235 90t-92 191h-32q-14 0 -22 9t-8 22q0 31 24 60t59 29q12 0 21 -11t11 -27l3 -25q48 13 80.5 55t32.5 100q0 42 -19 88.5t-50 67.5h-210
l-14 47h913l15 -47h-136v-649zM46 24q0 19 12.5 32t31.5 13t32 -13t13 -32q0 -18 -13 -30.5t-32 -12.5t-31.5 12.5t-12.5 30.5z" />
    <glyph glyph-name="dv_Ghha" unicode="&#x95a;" horiz-adv-x="598" 
d="M185 633v-408q0 -20 -7 -32t-21 -12q-40 0 -68.5 30.5t-28.5 61.5q0 15 8 24.5t24 9.5h35v326h-124l-14 47h605l16 -47h-136v-649l-58 16v633h-231zM117 23q0 19 12.5 32t31.5 13t32 -13t13 -32q0 -17 -13 -30t-32 -13t-31.5 13t-12.5 30z" />
    <glyph glyph-name="dv_Za" unicode="&#x95b;" horiz-adv-x="739" 
d="M203 82q-60 0 -108.5 17t-80.5 39l13 52q35 -27 80 -43t96 -16q72 0 113.5 39t41.5 103q0 62 -42.5 99t-110.5 37h-68l-17 49h437v175h-554l-14 47h746l15 -47h-136v-649l-57 16v409h-203q30 -19 47.5 -56t17.5 -80q0 -93 -60.5 -142t-155.5 -49zM161 -29q0 19 13 32
t32 13t32 -13t13 -32q0 -18 -13 -30.5t-32 -12.5t-32 12.5t-13 30.5z" />
    <glyph glyph-name="dv_Dddha" unicode="&#x95c;" horiz-adv-x="530" 
d="M274 29q71 0 113.5 31.5t42.5 84.5q0 49 -33.5 83t-93.5 34h-97q-58 0 -103.5 36t-45.5 91q0 60 43.5 93t107.5 33h162v118h-367l-14 47h537l15 -47h-113v-166h-227q-39 0 -62 -23.5t-23 -54.5q0 -33 24 -56t63 -23h91q87 0 141 -42t54 -120q0 -69 -52.5 -118t-162.5 -49
q-61 0 -120.5 18t-88.5 39l12 52q36 -25 90 -42.5t107 -18.5zM232 -115q0 19 13 32t31 13q19 0 32 -13t13 -32t-13 -31.5t-32 -12.5q-18 0 -31 12.5t-13 31.5z" />
    <glyph glyph-name="dv_Rha" unicode="&#x95d;" horiz-adv-x="626" 
d="M350 31q-22 16 -39.5 51t-17.5 64q0 58 41 100t104 42q67 0 107 -38.5t40 -95.5q0 -72 -65 -122t-162 -50q-115 0 -207.5 56t-92.5 197q0 123 90.5 189.5t221.5 66.5h66v142h-433l-14 47h633l15 -47h-142v-191h-125q-112 0 -181 -55.5t-69 -151.5q0 -107 65.5 -155
t164.5 -49zM351 145q0 -37 19.5 -64t52.5 -42q53 13 79 45t26 68q0 32 -21 58t-64 26q-42 0 -67 -25.5t-25 -65.5zM314 -115q0 19 12.5 32t31.5 13t32 -13t13 -32t-13 -31.5t-32 -12.5t-31.5 12.5t-12.5 31.5z" />
    <glyph glyph-name="dv_Fa" unicode="&#x95e;" horiz-adv-x="919" 
d="M309 228q66 0 104.5 38.5t38.5 101.5v265h-298v-253q0 -69 40 -110.5t115 -41.5zM452 0v234q-22 -25 -61 -40.5t-85 -15.5q-98 0 -154 55t-56 154v246h-93l-14 47h926l16 -47h-420v-197q23 24 60.5 45t88.5 21q95 0 157.5 -55.5t62.5 -148.5q0 -94 -63 -148.5t-143 -54.5
l-11 46q70 0 112 46t42 111q0 67 -46 110.5t-108 43.5q-64 0 -100 -32.5t-52 -62.5v-373zM151 5q0 19 13 32t32 13t32 -13t13 -32q0 -17 -13 -30t-32 -13t-32 13t-13 30z" />
    <glyph glyph-name="dv_Yya" unicode="&#x95f;" horiz-adv-x="613" 
d="M430 0v235q-22 -28 -62.5 -42.5t-86.5 -14.5q-88 0 -151.5 56.5t-63.5 128.5l12 14q31 9 56.5 46.5t25.5 92.5q0 42 -19.5 73.5t-54.5 43.5h-83l-14 47h620l15 -47h-136v-649zM281 228q80 0 114.5 40t34.5 124v241h-264q20 -14 35 -47t15 -76q0 -48 -23.5 -95t-70.5 -71
q14 -51 58.5 -82t100.5 -34zM101 24q0 19 12.5 32t31.5 13t32 -13t13 -32q0 -18 -13 -30.5t-32 -12.5t-31.5 12.5t-12.5 30.5z" />
    <glyph glyph-name="dv_VocalicRr" unicode="&#x960;" horiz-adv-x="849" 
d="M381 0v253q-67 -37 -135.5 -73t-136.5 -73l-30 42l294 159q-69 83 -122 104t-96 21q-19 0 -44.5 -9t-47.5 -19l-25 49q22 10 57 19t53 9q46 0 106.5 -17t126.5 -98v266h-378l-14 47h856l15 -47h-421v-306h20q80 0 124.5 30t60.5 55q-10 10 -18.5 24.5t-8.5 34.5
q0 19 11 29t28 10q22 0 51 -14.5t29 -42.5q0 -12 -6 -25t-21 -26q40 -40 62 -80.5t22 -86.5q0 -61 -62.5 -101t-62.5 -73q0 -21 17 -27.5t39 -6.5h9l9 -41h-20q-27 0 -44 -9.5t-17 -27.5t15.5 -27.5t43.5 -9.5h30l-22 -43h-18q-36 0 -69 17.5t-33 62.5q0 20 8.5 35t22.5 23
q-11 7 -19 22t-8 33q0 49 62 88t62 88q0 35 -16.5 66t-46.5 66q-19 -29 -72.5 -59t-122.5 -30h-39v-297z" />
    <glyph glyph-name="dv_VocalicLl" unicode="&#x961;" horiz-adv-x="840" 
d="M580 49q0 40 26 58.5t57 21.5v180q-4 50 -32 86t-80 36q-54 0 -84 -42.5t-30 -108.5v-124l-58 18v106q0 66 -32 107.5t-95 41.5q-56 0 -90.5 -37t-34.5 -86q0 -79 30 -142.5t79 -162.5l-49 -19q-45 88 -82 166t-37 165q0 66 50.5 116.5t133.5 50.5q50 0 90 -21t64 -58
q23 38 61 58.5t85 20.5q37 0 66 -14t45 -30v197h-660l-14 47h847l15 -47h-130v-543h-32q-22 0 -39 -10t-17 -29t17 -29t39 -10h31l-26 -37q-29 0 -46 -11t-17 -28q0 -19 13.5 -29.5t47.5 -10.5h29l-21 -40h-19q-35 0 -68 17.5t-33 62.5q0 19 12.5 34.5t28.5 22.5
q-12 4 -26.5 20.5t-14.5 35.5z" />
    <glyph glyph-name="dv_MatraVocalicL" unicode="&#x962;" horiz-adv-x="0" 
d="M241 -138v-66l-51 13v53q-1 40 -21.5 57.5t-45.5 17.5q-22 0 -38.5 -16.5t-16.5 -38.5q0 -40 23.5 -90t39.5 -84l-46 -13q-28 51 -48 96t-20 94q0 39 31 67.5t75 29.5q28 0 56 -17t36 -41q10 22 36 40t55 18q47 0 77.5 -29t30.5 -68q0 -41 -25 -72.5t-25 -58.5
q0 -12 10 -16t23 -4h9l-11 -39h-13q-20 0 -44.5 12t-24.5 37q0 40 24.5 71.5t24.5 66.5q0 24 -16.5 39.5t-39.5 15.5q-25 0 -45 -19.5t-20 -55.5z" />
    <glyph glyph-name="dv_MatraVocalicLl" unicode="&#x963;" horiz-adv-x="0" 
d="M241 -138v-66l-51 13v53q0 39 -20.5 57t-44.5 18q-22 0 -39.5 -15.5t-17.5 -39.5q0 -40 21.5 -85.5t41.5 -88.5l-46 -13q-28 51 -48 96t-20 94q0 40 31 68.5t75 28.5q28 0 56 -17t36 -41q10 22 36 40t55 18q47 0 77.5 -29t30.5 -68q0 -41 -25 -72t-25 -59q0 -12 10 -16
t23 -4h9l-11 -39h-11q-15 0 -27.5 -5t-12.5 -19q0 -16 14 -22t30 -6h18l-17 -37h-13q-27 0 -54.5 14.5t-27.5 50.5q0 17 7.5 29.5t19.5 19.5q-4 5 -6 11t-2 13q0 41 24.5 72t24.5 66q0 24 -16.5 39.5t-39.5 15.5q-25 0 -45 -19.5t-20 -55.5z" />
    <glyph glyph-name="dv_Danda" unicode="&#x964;" horiz-adv-x="338" 
d="M198 755v-771l-58 16v770z" />
    <glyph glyph-name="dv_DoubleDanda" unicode="&#x965;" horiz-adv-x="623" 
d="M483 755v-771l-59 16v770zM198 755v-771l-58 16v770z" />
    <glyph glyph-name="dv_Zero" unicode="&#x966;" horiz-adv-x="696" 
d="M348 622q121 0 201.5 -83t80.5 -200q0 -116 -80.5 -199t-201.5 -83q-122 0 -202 83t-80 199q0 117 80 200t202 83zM348 108q99 0 160.5 67t61.5 164q0 98 -61 165t-161 67q-99 0 -160.5 -67t-61.5 -165q0 -97 61.5 -164t160.5 -67z" />
    <glyph glyph-name="dv_One" unicode="&#x967;" horiz-adv-x="373" 
d="M56 312l124 98q-42 17 -76.5 54t-34.5 89q0 60 36.5 100.5t92.5 40.5q63 0 99.5 -39t36.5 -95q0 -46 -27 -89.5t-93 -97.5l-101 -83q0 -1 -0.5 -2.5t-0.5 -2.5l198 -285l-61 -18l-194 304q0 7 0.5 13t0.5 13zM128 553q0 -43 28 -69.5t62 -39.5q30 28 44.5 54.5t14.5 52.5
q0 41 -21 66t-55 25t-53.5 -26t-19.5 -63z" />
    <glyph glyph-name="dv_Two" unicode="&#x968;" horiz-adv-x="488" 
d="M436 488q0 -84 -59 -145.5t-155 -72.5l177 -270l-58 -18q-44 70 -88 141.5t-88 142.5h-39q-15 0 -22 10t-7 22q0 31 20.5 59.5t51.5 28.5q13 0 23 -11t15 -27l9 -28q67 4 113.5 51t46.5 115q0 63 -37 111.5t-109 48.5q-51 0 -90.5 -23t-49.5 -30l-26 43q1 0 47 29t120 29
q112 0 158.5 -68.5t46.5 -137.5z" />
    <glyph glyph-name="dv_Three" unicode="&#x969;" horiz-adv-x="501" 
d="M259 694q82 0 128 -44.5t46 -107.5q0 -47 -28 -83.5t-67 -48.5q49 -13 78.5 -55.5t29.5 -96.5q0 -76 -60.5 -123.5t-156.5 -47.5h-15t-15 1l101 -126l-38 -26l-128 164q-28 12 -56.5 37.5t-28.5 56.5q0 12 8.5 22t24.5 10q28 0 53.5 -19t41.5 -63q13 -4 27.5 -5t26.5 -1
q69 1 112 35t43 85q0 49 -38.5 89.5t-128.5 40.5h-78l-14 44h98q71 0 110 29.5t39 78.5q0 45 -32.5 75.5t-85.5 30.5q-51 0 -91 -15t-78 -45l-9 48q32 26 78 43t103 17z" />
    <glyph glyph-name="dv_Four" unicode="&#x96a;" horiz-adv-x="672" 
d="M336 424q63 72 133.5 145t123.5 125l38 -39q-57 -55 -128 -129.5t-131 -143.5q54 -66 90.5 -130t36.5 -118q0 -69 -43 -110.5t-120 -41.5t-120.5 42t-43.5 110q0 54 36.5 118t90.5 130q-60 69 -131 143.5t-128 129.5l39 39q52 -52 123 -125t134 -145zM336 342
q-41 -54 -72.5 -109t-31.5 -99q0 -45 31 -74t73 -29t72.5 29t30.5 74q0 44 -31.5 99t-71.5 109z" />
    <glyph glyph-name="dv_Five" unicode="&#x96b;" horiz-adv-x="468" 
d="M303 31q46 0 71 22t25 63q0 47 -17.5 91t-36.5 69q-13 -3 -27.5 -4.5t-30.5 -1.5q-98 0 -155.5 53t-57.5 156v201h57v-208q0 -76 42 -114.5t117 -38.5h10t10 1q-7 11 -11 22.5t-4 22.5q1 17 13 31t32 14q29 0 51.5 -18.5t22.5 -41.5q0 -12 -5 -25.5t-19 -26.5
q26 -33 45.5 -86t19.5 -95q0 -57 -35 -95t-116 -38q-23 0 -46.5 2.5t-49.5 11.5l16 45q22 -7 39.5 -9.5t39.5 -2.5z" />
    <glyph glyph-name="dv_Six" unicode="&#x96c;" horiz-adv-x="531" 
d="M257 694q57 0 103 -17t78 -43l-9 -48q-39 30 -78.5 45t-90.5 15q-53 0 -85.5 -30.5t-32.5 -75.5q0 -49 38.5 -78.5t110.5 -29.5h88q4 -10 7 -21.5t7 -22.5h-97q-89 0 -127.5 -40.5t-38.5 -89.5q0 -50 43 -85t112 -35q14 0 31.5 2t33.5 7q-5 10 -7 19t-2 17q0 21 13 31.5
t31 10.5q23 0 49 -14.5t26 -39.5q0 -15 -9.5 -30.5t-28.5 -31.5q18 -31 36 -61.5t37 -61.5q-12 -7 -23.5 -14t-22.5 -14l-66 121q-3 5 -5.5 10.5t-4.5 10.5q-16 -7 -41 -10t-45 -3q-96 0 -156 47.5t-60 123.5q0 54 29 96.5t78 55.5q-39 12 -67 48.5t-28 83.5
q0 63 45.5 107.5t128.5 44.5z" />
    <glyph glyph-name="dv_Seven" unicode="&#x96d;" horiz-adv-x="677" 
d="M403 579q-55 0 -91.5 -35.5t-36.5 -84.5q0 -48 33 -84.5t94 -36.5q51 0 92.5 36.5t48.5 84.5q-17 51 -50.5 85.5t-89.5 34.5zM395 291q-80 0 -129 46.5t-49 115.5q0 75 51.5 125.5t135.5 50.5q107 0 162.5 -96t55.5 -233q0 -128 -83.5 -223t-211.5 -95q-137 0 -213 81
t-76 223h58q0 -119 61 -186.5t174 -67.5q92 0 164 74.5t72 191.5q0 19 -1.5 39.5t-4.5 41.5q-23 -36 -68.5 -62t-97.5 -26z" />
    <glyph glyph-name="dv_Eight" unicode="&#x96e;" horiz-adv-x="551" 
d="M286 31q46 0 101 34t56 150l50 -15q0 -51 -40.5 -134.5t-175.5 -83.5q-108 0 -165 65t-57 150q0 122 87 259t194 238l35 -43q-109 -100 -182 -225t-73 -224q0 -74 49 -122.5t121 -48.5z" />
    <glyph glyph-name="dv_Nine" unicode="&#x96f;" horiz-adv-x="456" 
d="M112 516q0 -17 2 -35t9 -39q24 -21 56 -29.5t63 -8.5q58 0 89.5 36.5t31.5 85.5q0 47 -31.5 83.5t-93.5 36.5q-54 0 -90 -38t-36 -92zM237 356q-23 0 -45.5 7.5t-40.5 18.5q6 -10 28.5 -43.5t33.5 -48.5q64 -86 95.5 -125t31.5 -88q0 -42 -28 -68.5t-72 -34.5l-10 44
q28 8 42 24.5t14 32.5q0 30 -19.5 61t-82.5 111l-27 34q-53 67 -76 121.5t-23 105.5q0 74 48.5 130t133.5 56q84 0 132 -47t48 -116q0 -72 -51 -123.5t-132 -51.5z" />
    <glyph glyph-name="dv_Abbreviation" unicode="&#x970;" horiz-adv-x="560" 
d="M508 281q0 -96 -66.5 -163t-161.5 -67q-96 0 -162 68t-66 168q0 96 66 161.5t163 65.5q94 0 160.5 -67.5t66.5 -165.5zM452 283q0 73 -48.5 127.5t-123.5 54.5t-123 -54.5t-48 -127.5q0 -74 48 -129t123 -55t123.5 55t48.5 129z" />
    <glyph glyph-name="dv_Highspacedot" unicode="&#x971;" horiz-adv-x="157" 
d="M34 295q0 19 12.5 32t31.5 13t32 -13t13 -32q0 -18 -13 -30.5t-32 -12.5t-31.5 12.5t-12.5 30.5z" />
    <glyph glyph-name="dv_CandraA" unicode="&#x972;" horiz-adv-x="862" 
d="M869 925l40 -23q-34 -66 -84 -99.5t-116 -33.5t-116.5 33.5t-84.5 99.5l40 23q29 -56 70.5 -84t90.5 -28t90 28t70 84zM257 -16q-59 0 -108 17.5t-80 39.5l12 50q36 -25 81.5 -42t97.5 -17q72 0 118.5 39t46.5 106q0 66 -42 109t-126 43h-94l-17 42h110q76 0 115 43
t39 100q0 54 -34.5 92.5t-104.5 38.5q-51 0 -97 -18.5t-84 -48.5l-9 51q32 26 81.5 45.5t109.5 19.5q107 0 153 -54.5t46 -126.5q0 -41 -22 -78.5t-61 -62.5h291v261h-121l-15 47h315l16 -47h-137v-649l-58 16v327h-279q40 -25 63 -65t23 -83q0 -85 -58 -140t-171 -55z" />
    <glyph glyph-name="dv_Oe" unicode="&#x973;" horiz-adv-x="862" 
d="M257 -16q-59 0 -108 17.5t-80 39.5l12 50q36 -25 81.5 -42t97.5 -17q72 0 118.5 39t46.5 106q0 66 -42 109t-126 43h-94l-17 42h113q75 0 113 43t38 100q0 54 -34.5 92.5t-104.5 38.5q-51 0 -97 -18.5t-84 -48.5l-9 51q32 26 81.5 45.5t109.5 19.5q107 0 153 -54.5
t46 -126.5q0 -41 -22 -78.5t-61 -62.5h291v261h-121l-15 47h137v217l56 -16v-201h122l16 -47h-137v-649l-58 16v327h-279q40 -25 63 -65t23 -83q0 -85 -58 -140t-171 -55z" />
    <glyph glyph-name="dv_Ooe" unicode="&#x974;" horiz-adv-x="1144" 
d="M679 0v327h-279q40 -25 63 -65t23 -83q0 -85 -58 -140t-171 -55q-59 0 -108 17.5t-80 39.5l12 50q36 -25 81.5 -42t97.5 -17q72 0 118.5 39t46.5 106q0 66 -42 109t-126 43h-94l-17 42h113q75 0 113 43t38 100q0 54 -34.5 92.5t-104.5 38.5q-51 0 -97 -18.5t-84 -48.5
l-9 51q32 26 81.5 45.5t109.5 19.5q107 0 153 -54.5t46 -126.5q0 -41 -22 -78.5t-61 -62.5h291v261h-121l-15 47h419v217l56 -16v-201h122l15 -47h-136v-649l-58 16v633h-224v-649z" />
    <glyph glyph-name="dv_Aw" unicode="&#x975;" horiz-adv-x="1144" 
d="M679 0v327h-279q40 -25 63 -65t23 -83q0 -85 -58 -140t-171 -55q-59 0 -108 17.5t-80 39.5l12 50q36 -25 81.5 -42t97.5 -17q72 0 118.5 39t46.5 106q0 59 -34 100.5t-94 48.5q-16 2 -34 2.5t-37 0.5h-63l-17 42h91q84 0 128.5 37t44.5 106q0 54 -34.5 92.5t-104.5 38.5
q-51 0 -97 -18.5t-84 -48.5l-9 51q32 26 81.5 45.5t109.5 19.5q107 0 153 -54.5t46 -126.5q0 -41 -22 -78.5t-61 -62.5h291v261h-121l-15 47h420q0 29 -11 42t-45 13h-101q-78 0 -122.5 37t-44.5 94v14l53 -14q0 -38 32 -61.5t76 -23.5h93q21 0 37.5 -2t29.5 -5
q-4 20 -15.5 35t-35.5 18q-69 9 -95.5 44.5t-26.5 86.5v15l54 -15q0 -37 17 -58.5t48 -25.5q64 -9 88 -47.5t24 -97.5q0 -12 -0.5 -24.5t-0.5 -24.5h123l15 -47h-136v-649l-58 16v633h-224v-649z" />
    <glyph glyph-name="dv_Ue" unicode="&#x976;" horiz-adv-x="862" 
d="M257 -16q-59 0 -108 17.5t-80 39.5l12 50q36 -25 81.5 -42t97.5 -17q72 0 118.5 39t46.5 106t-43 109.5t-127 42.5h-92l-17 42h110q76 0 115 43t39 100q0 54 -34.5 92.5t-104.5 38.5q-51 0 -97 -18.5t-84 -48.5l-9 51q32 26 81.5 45.5t109.5 19.5q107 0 153 -54.5
t46 -126.5q0 -41 -22 -78.5t-61 -62.5h291v261h-121l-15 47h315l16 -47h-137v-649l-58 16v327h-279q40 -25 63 -65t23 -83q0 -85 -58 -140t-171 -55zM667 -43l40 -23q-34 -66 -84.5 -99t-114.5 -33q-66 0 -116.5 33t-84.5 99l40 23q28 -56 70 -84t91 -28q48 0 89 28t70 84z
" />
    <glyph glyph-name="dv_Uue" unicode="&#x977;" horiz-adv-x="862" 
d="M679 0v327h-279q40 -25 63 -65t23 -83q0 -85 -58 -140t-171 -55q-59 0 -108 17.5t-80 39.5l12 50q36 -25 81.5 -42t97.5 -17q72 0 118.5 39t46.5 106q0 60 -35 101t-96 48q-16 1 -33 2t-36 1h-62l-17 42h78q90 0 138 35.5t48 107.5q0 54 -34.5 92.5t-104.5 38.5
q-51 0 -97 -18.5t-84 -48.5l-9 51q32 26 81.5 45.5t109.5 19.5q107 0 153 -54.5t46 -126.5q0 -41 -22 -78.5t-61 -62.5h291v261h-121l-15 47h315l16 -47h-137v-649zM483 -179q-55 0 -110.5 25t-89.5 87l20 12t20 11q29 -52 75 -71.5t85 -19.5q40 0 85.5 19.5t75.5 71.5
q10 -5 20 -11l20 -12q-34 -62 -90 -87t-111 -25zM484 -272q-69 0 -135 27.5t-110 87.5l40 23q31 -44 91 -69.5t114 -25.5t113 24.5t90 70.5l40 -23q-42 -62 -108 -88.5t-135 -26.5z" />
    <glyph glyph-name="dv_MarwariDda" unicode="&#x978;" horiz-adv-x="586" 
d="M308 296h-129v-34q0 -20 -7.5 -32t-21.5 -12q-40 0 -68.5 31t-28.5 63q0 13 8.5 22.5t23.5 9.5h36v289h-118l-14 47h592l16 -47h-418v-289h132q98 0 154 -55t56 -154v-152q-15 4 -29.5 8.5t-28.5 8.5v143q0 69 -40 111t-115 42z" />
    <glyph glyph-name="dv_Zha" unicode="&#x979;" horiz-adv-x="739" 
d="M203 82q-60 0 -108.5 17t-80.5 39l13 52q35 -27 80 -43t96 -16q72 0 113.5 39t41.5 103q0 62 -42.5 99t-110.5 37h-68l-17 49h437v175h-554l-14 47h746l15 -47h-136v-649l-57 16v409h-203q30 -19 47.5 -56t17.5 -80q0 -93 -60.5 -142t-155.5 -49zM240 -3q0 18 13 31
t32 13t32 -13t13 -31q0 -19 -13 -31.5t-32 -12.5t-32 12.5t-13 31.5zM79 -3q0 18 13 31t31 13q19 0 32.5 -13t13.5 -31q0 -19 -13.5 -31.5t-32.5 -12.5q-18 0 -31 12.5t-13 31.5zM157 -99q0 19 13 32t32 13t32 -13t13 -32t-13 -31.5t-32 -12.5t-32 12.5t-13 31.5z" />
    <glyph glyph-name="dv_HeavyYa" unicode="&#x97a;" horiz-adv-x="608" 
d="M431 0v235q-22 -28 -63 -42.5t-87 -14.5q-88 0 -151 56.5t-63 128.5l12 14q31 9 56 46.5t25 92.5q0 42 -19 73.5t-55 43.5h-80l-14 47h617l16 -47h-137v-649zM430 344q0 5 0.5 10.5t0.5 10.5v268h-249zM281 228q47 0 82 16.5t52 50.5l-199 231v-16q0 -48 -23 -95t-70 -71
q13 -51 57.5 -82t100.5 -34z" />
    <glyph glyph-name="dv_Gga" unicode="&#x97b;" horiz-adv-x="598" 
d="M185 633v-408q0 -20 -7 -32t-21 -12q-40 0 -68.5 30.5t-28.5 61.5q0 15 8 24.5t24 9.5h35v326h-124l-14 47h605l16 -47h-136v-649l-58 16v633h-231zM499 -133h-401l-14 46h400z" />
    <glyph glyph-name="dv_Jja" unicode="&#x97c;" horiz-adv-x="739" 
d="M203 82q-60 0 -108.5 17t-80.5 39l13 52q35 -27 80 -43t96 -16q72 0 113.5 39t41.5 103q0 62 -42.5 99t-110.5 37h-68l-17 49h437v175h-554l-14 47h746l15 -47h-136v-649l-57 16v409h-203q30 -19 47.5 -56t17.5 -80q0 -93 -60.5 -142t-155.5 -49zM629 -133h-577l-15 46
h577z" />
    <glyph glyph-name="dv_GlottalStop" unicode="&#x97d;" horiz-adv-x="540" 
d="M488 499q0 -67 -55 -133t-151 -99v-248l-58 18v260q85 26 144 81.5t59 120.5t-39.5 104.5t-116.5 39.5q-60 0 -110 -19.5t-89 -47.5l-8 53q38 27 90.5 46t118.5 19q108 0 161.5 -58.5t53.5 -136.5z" />
    <glyph glyph-name="dv_Ddda" unicode="&#x97e;" horiz-adv-x="530" 
d="M274 29q71 0 113.5 31.5t42.5 84.5q0 49 -33.5 83t-93.5 34h-97q-58 0 -103.5 36t-45.5 91q0 60 43.5 93t107.5 33h162v118h-367l-14 47h537l15 -47h-113v-166h-227q-39 0 -62 -23.5t-23 -54.5q0 -33 24 -56t63 -23h91q87 0 141 -42t54 -120q0 -69 -52.5 -118t-162.5 -49
q-61 0 -120.5 18t-88.5 39l12 52q36 -25 90 -42.5t107 -18.5zM486 -133h-408l-15 46h408z" />
    <glyph glyph-name="dv_Bba" unicode="&#x97f;" horiz-adv-x="595" 
d="M413 0v164q-23 -23 -60 -42t-87 -19q-91 0 -156 53.5t-65 149.5q0 93 62.5 148.5t158.5 55.5q50 0 87 -19t60 -42v184h-410l-14 47h602l16 -47h-136v-649zM263 461q-24 0 -46 -6.5t-40 -19.5l206 -231q10 10 17 20.5t13 20.5v123q-18 31 -53 62t-97 31zM109 307
q0 -67 44.5 -111t109.5 -44q26 0 48 7t39 17l-206 229q-16 -19 -25.5 -44.5t-9.5 -53.5zM504 -133h-429l-14 46h428z" />
    <glyph glyph-name="uni200C" unicode="&#x200c;" horiz-adv-x="0" 
d="M-28 1237h55v-1305h-55v1305z" />
    <glyph glyph-name="uni200D" unicode="&#x200d;" horiz-adv-x="0" 
d="M74 1320l40 -40l-74 -74l74 -74l-39 -39l-48 44v-1205h-55v1204l-46 -43l-39 39l74 74l-74 74l40 40l73 -74z" />
    <glyph glyph-name="endash" unicode="&#x2013;" horiz-adv-x="422" 
d="M398 251h-367l-8 44h367z" />
    <glyph glyph-name="emdash" unicode="&#x2014;" horiz-adv-x="514" 
d="M492 251h-461l-8 44h461z" />
    <glyph glyph-name="quoteleft" unicode="&#x2018;" horiz-adv-x="136" 
d="M18 556q0 46 24.5 86t63.5 60l18 -28q-25 -15 -42 -34.5t-18 -45.5q19 -1 29.5 -15t10.5 -28q0 -17 -12 -30t-31 -13t-31 14.5t-12 33.5z" />
    <glyph glyph-name="quoteright" unicode="&#x2019;" horiz-adv-x="136" 
d="M119 653q0 -46 -24.5 -86t-64.5 -59l-17 27q25 15 41 34.5t17 45.5q-18 1 -28.5 15t-10.5 28q0 17 12 30.5t32 13.5q18 0 30.5 -14.5t12.5 -34.5z" />
    <glyph glyph-name="quotesinglbase" unicode="&#x201a;" horiz-adv-x="136" 
d="M119 37q0 -46 -24.5 -86t-64.5 -59l-17 27q25 15 41 34.5t17 46.5q-18 1 -28.5 14.5t-10.5 27.5q0 17 12 30t32 13q18 0 30.5 -14t12.5 -34z" />
    <glyph glyph-name="quotedblleft" unicode="&#x201c;" horiz-adv-x="271" 
d="M18 556q0 46 24.5 86t63.5 60l18 -28q-25 -15 -42 -34.5t-18 -45.5q19 -1 29.5 -15t10.5 -28q0 -17 -12 -30t-31 -13t-31 14.5t-12 33.5zM153 556q0 46 24.5 86t64.5 60l16 -28q-25 -15 -41 -34.5t-17 -45.5q18 -1 28.5 -15t10.5 -28q0 -17 -12 -30t-32 -13
q-19 0 -30.5 14.5t-11.5 33.5z" />
    <glyph glyph-name="quotedblright" unicode="&#x201d;" horiz-adv-x="271" 
d="M253 653q0 -46 -24 -86t-64 -59l-17 27q25 15 41 34.5t18 45.5q-19 1 -29.5 15t-10.5 28q0 17 12 30.5t31 13.5t31 -14.5t12 -34.5zM119 653q0 -46 -24.5 -86t-64.5 -59l-17 27q25 15 41 34.5t17 45.5q-18 1 -28.5 15t-10.5 28q0 17 12 30.5t32 13.5q18 0 30.5 -14.5
t12.5 -34.5z" />
    <glyph glyph-name="quotedblbase" unicode="&#x201e;" horiz-adv-x="271" 
d="M119 37q0 -46 -24.5 -86t-64.5 -59l-17 27q25 15 41 34.5t17 46.5q-18 1 -28.5 14.5t-10.5 27.5q0 18 12 30.5t32 12.5q18 0 30.5 -14t12.5 -34zM253 37q0 -46 -24 -86t-64 -59l-17 27q25 15 41 34.5t18 46.5q-19 1 -29.5 14.5t-10.5 27.5q0 17 12 30t31 13t31 -14
t12 -34z" />
    <glyph glyph-name="dagger" unicode="&#x2020;" horiz-adv-x="355" 
d="M204 780v-158h109l19 -43h-133v-583l-52 4v579h-105l-19 43h124v161z" />
    <glyph glyph-name="daggerdbl" unicode="&#x2021;" horiz-adv-x="377" 
d="M158 -6l2 195h-111l-19 43h130v305h-111l-19 43h129v203l56 -3v-200h112l19 -43h-131v-305h112l19 -43h-129v-188z" />
    <glyph glyph-name="bullet" unicode="&#x2022;" horiz-adv-x="194" 
d="M25 326q0 30 21 51t51 21t51 -21t21 -51q0 -29 -21 -50t-51 -21t-51 21t-21 50z" />
    <glyph glyph-name="ellipsis" unicode="&#x2026;" horiz-adv-x="384" 
d="M361 40q0 -17 -12 -28.5t-28 -11.5q-18 0 -30 11.5t-12 28.5q0 18 12 29.5t30 11.5q16 0 28 -11.5t12 -29.5zM234 40q0 -17 -12 -28.5t-28 -11.5q-18 0 -30 11.5t-12 28.5q0 18 12 29.5t30 11.5q16 0 28 -11.5t12 -29.5zM104 40q0 -17 -11.5 -28.5t-28.5 -11.5t-29 11.5
t-12 28.5q0 18 12 29.5t29 11.5t28.5 -11.5t11.5 -29.5z" />
    <glyph glyph-name="perthousand" unicode="&#x2030;" horiz-adv-x="1164" 
d="M576 706l-309 -710l-52 4l308 710zM333 532q0 -78 -45 -123.5t-108 -45.5q-69 0 -112 44t-43 125q0 78 44.5 124t109.5 46q69 0 111.5 -44.5t42.5 -125.5zM80 532q0 -62 30.5 -93.5t69.5 -31.5q37 0 67.5 30t30.5 95q0 63 -29 94.5t-70 31.5q-36 0 -67.5 -30.5
t-31.5 -95.5zM1139 168q0 -78 -45 -123.5t-108 -45.5q-69 0 -112 44t-43 125q0 78 44.5 124t109.5 46q69 0 111.5 -44.5t42.5 -125.5zM774 168q0 -78 -45 -123.5t-108 -45.5q-68 0 -111 44t-43 125q0 78 44 124t110 46q69 0 111 -44.5t42 -125.5zM886 168q0 -62 30 -93.5
t70 -31.5q37 0 67.5 30.5t30.5 94.5q0 63 -29 94.5t-70 31.5q-36 0 -67.5 -30t-31.5 -96zM522 168q0 -62 30 -93.5t69 -31.5q37 0 67.5 30.5t30.5 94.5q0 63 -29 94.5t-69 31.5q-37 0 -68 -30t-31 -96z" />
    <glyph glyph-name="guilsinglleft" unicode="&#x2039;" horiz-adv-x="207" 
d="M30 264l140 144l21 -40l-114 -123l114 -123l-21 -39l-140 143v38z" />
    <glyph glyph-name="guilsinglright" unicode="&#x203a;" horiz-adv-x="207" 
d="M177 226l-140 -143q-6 10 -11.5 19.5t-10.5 19.5l115 123l-115 123q5 10 10.5 20t11.5 20l140 -144v-38z" />
    <glyph glyph-name="fraction" unicode="&#x2044;" horiz-adv-x="376" 
d="M368 706l-309 -710l-51 4l308 710z" />
    <glyph glyph-name="Euro" unicode="&#x20ac;" horiz-adv-x="572" 
d="M437 224h-263q16 -81 63.5 -135t135.5 -54q48 0 78 9t56 21l24 -42q-28 -15 -68.5 -26t-85.5 -11q-125 0 -186 68.5t-78 169.5h-91l-7 45h92q-2 16 -3 33t-1 34t1.5 35.5t3.5 34.5h-86l-7 44h99q20 107 85.5 175.5t182.5 68.5q37 0 79.5 -9t70.5 -28l-20 -41
q-31 13 -55.5 21t-74.5 8q-84 0 -136 -52.5t-71 -142.5h256l6 -44h-270q-1 -16 -2 -34t-1 -35t1 -34.5t2 -33.5h264z" />
    <glyph glyph-name="Turkishlira" unicode="&#x20ba;" horiz-adv-x="502" 
d="M10 486q27 9 53.5 18t52.5 19v173l56 10v-163q43 15 87.5 30.5t87.5 31.5q2 -10 4.5 -20.5t3.5 -20.5q-46 -16 -91.5 -32.5t-91.5 -32.5v-61q43 15 87.5 30.5t87.5 31.5q2 -10 4.5 -21t3.5 -21l-183 -64v-349q88 0 169 87.5t81 198.5h54q0 -144 -100.5 -237.5
t-216.5 -93.5h-43v374q-25 -9 -49.5 -18t-49.5 -17q-1 10 -3 21t-4 21q27 9 53.5 18.5t52.5 18.5v60l-99 -34q-1 10 -3 21t-4 21z" />
    <glyph glyph-name="Ruble" unicode="&#x20bd;" horiz-adv-x="572" 
d="M448 161h-287v-161h-56v161h-63l-5 42h68v61h-65v46h65v370h169q107 0 176 -47t69 -158q0 -110 -74.5 -160.5t-180.5 -50.5h-103v-61h282zM281 633h-120v-323h109q81 0 137 39.5t56 124.5q0 88 -50 123.5t-132 35.5z" />
    <glyph glyph-name="litre" unicode="&#x2113;" horiz-adv-x="371" 
d="M25 231q18 13 36.5 27.5t36.5 30.5v277q0 65 32.5 100.5t83.5 35.5t83 -34t32 -94q0 -73 -53 -154t-122 -146v-134q0 -43 15.5 -74t60.5 -31q15 0 29 5t27 10l17 -37q-13 -12 -35 -18.5t-41 -6.5q-68 0 -98.5 41t-30.5 109v89q-15 -13 -30.5 -23.5t-29.5 -18.5zM215 655
q-25 0 -43 -20t-18 -69v-223q49 53 84 112.5t35 116.5q0 44 -17 63.5t-41 19.5z" />
    <glyph glyph-name="trademark" unicode="&#x2122;" horiz-adv-x="714" 
d="M291 642h-116v-336h-49v336h-116v38h278zM507 417l-105 154v-265h-47v374h20l138 -197l133 197h21v-374h-44v266l-104 -153z" />
    <glyph glyph-name="Ohm" unicode="&#x2126;" horiz-adv-x="767" 
d="M385 646q-107 0 -177.5 -88.5t-70.5 -219.5q0 -81 36.5 -169.5t94.5 -121.5l5 -47h-191l-5 44h119q-55 42 -87.5 125.5t-32.5 167.5q0 149 82 254t227 105t225.5 -105t80.5 -254q0 -84 -32.5 -167.5t-88.5 -125.5h120l-5 -44h-189l5 47q58 33 94.5 121.5t36.5 169.5
q0 131 -70 219.5t-177 88.5z" />
    <glyph glyph-name="estimated" unicode="&#x212e;" horiz-adv-x="509" 
d="M461 240h-354q1 -87 40.5 -147.5t129.5 -60.5q53 0 85.5 10.5t57.5 23.5l21 -41q-30 -19 -79.5 -28.5t-78.5 -9.5q-119 0 -176 72.5t-57 185.5q0 109 54.5 181t161.5 72q96 0 145.5 -73.5t49.5 -184.5zM261 451q-72 0 -108.5 -50t-43.5 -121h295q-7 71 -39 121t-104 50z
" />
    <glyph glyph-name="partialdiff" unicode="&#x2202;" horiz-adv-x="523" 
d="M245 394q46 0 90 -21t69 -55q-19 101 -84 180.5t-156 103.5l25 35q125 -30 200 -146t75 -226q0 -134 -62 -203t-158 -69q-88 0 -143 63t-55 141q0 76 52.5 136.5t146.5 60.5zM246 40q80 0 119 59t41 153q-22 35 -64 64t-97 29q-67 0 -104.5 -45.5t-37.5 -108.5
q0 -57 38 -104t105 -47z" />
    <glyph glyph-name="Delta" unicode="&#x2206;" horiz-adv-x="598" 
d="M320 680l260 -670l-56 -10h-506l247 680h55zM293 607l-205 -563h419z" />
    <glyph glyph-name="product" unicode="&#x220f;" horiz-adv-x="580" 
d="M87 680h406v-680h-53v638h-300v-638h-53v680z" />
    <glyph glyph-name="summation" unicode="&#x2211;" horiz-adv-x="469" 
d="M407 635h-303l192 -275v-30l-192 -280h319l5 -50h-387v50l205 295l-205 290v45h360z" />
    <glyph glyph-name="minus" unicode="&#x2212;" horiz-adv-x="457" 
d="M434 251h-403l-8 44h402z" />
    <glyph glyph-name="divisionslash" unicode="&#x2215;" horiz-adv-x="376" 
d="M368 706l-309 -710l-51 4l308 710z" />
    <glyph glyph-name="bulletmath" unicode="&#x2219;" horiz-adv-x="194" 
d="M25 326q0 30 21 51t51 21t51 -21t21 -51q0 -29 -21 -50t-51 -21t-51 21t-21 50z" />
    <glyph glyph-name="radical" unicode="&#x221a;" horiz-adv-x="524" 
d="M516 706l-291 -710l-50 4l-167 317l54 4l139 -263l264 652z" />
    <glyph glyph-name="infinity" unicode="&#x221e;" horiz-adv-x="851" 
d="M600 47q-55 0 -105 34.5t-81 85.5q-25 -47 -66.5 -83.5t-97.5 -36.5q-90 0 -142.5 55t-52.5 144q0 88 53.5 150t141.5 62q57 0 106 -35.5t80 -84.5q25 47 66.5 83.5t97.5 36.5q90 0 143 -55.5t53 -144.5q0 -88 -53 -149.5t-143 -61.5zM452 249q-4 -9 -6.5 -18.5
t-6.5 -19.5q25 -46 65 -81t94 -35q67 0 105.5 46t38.5 118q0 65 -38.5 108t-104.5 43q-57 0 -94.5 -54t-52.5 -107zM399 255q4 10 6.5 19t6.5 19q-25 47 -65.5 81.5t-93.5 34.5q-66 0 -105 -46t-39 -118q0 -65 38.5 -107.5t104.5 -42.5q58 0 95 54t52 106z" />
    <glyph glyph-name="integral" unicode="&#x222b;" horiz-adv-x="309" 
d="M182 652v-692q0 -63 -28.5 -101t-82.5 -38q-20 0 -38 4.5t-28 7.5l12 45q6 -3 18.5 -5.5t22.5 -2.5q38 0 53.5 23t15.5 58v693q0 63 28.5 101t82.5 38q20 0 38 -4.5t28 -8.5l-12 -44q-6 2 -18.5 5.5t-22.5 3.5q-37 0 -53 -23t-16 -60z" />
    <glyph glyph-name="approxequal" unicode="&#x2248;" horiz-adv-x="486" 
d="M348 297q-34 0 -103 22.5t-112 22.5q-18 0 -41 -9t-27 -31q-10 3 -21 5.5t-21 4.5q2 44 42 59.5t75 15.5q43 0 110 -22t105 -22q18 0 39.5 8.5t25.5 30.5l43 -10q-3 -43 -41.5 -59t-73.5 -16zM348 120q-34 0 -103 22.5t-112 22.5q-18 0 -41 -9t-27 -31l-42 10
q2 44 42 59.5t75 15.5q43 0 110 -22.5t105 -22.5q18 0 39.5 9t25.5 31l43 -11q-3 -43 -41.5 -58.5t-73.5 -15.5z" />
    <glyph glyph-name="notequal" unicode="&#x2260;" horiz-adv-x="483" 
d="M460 140h-247l-69 -154l-48 4l66 150h-131l-8 44h159q15 36 31 71.5t31 71.5h-213l-8 44h241l67 150l49 -3q-16 -37 -32.5 -73.5t-32.5 -73.5h137l8 -44h-165l-63 -143h220z" />
    <glyph glyph-name="lessequal" unicode="&#x2264;" horiz-adv-x="318" 
d="M269 108l-249 161v38l249 163l23 -39l-219 -142l219 -144zM289 0h-260l-9 44h262z" />
    <glyph glyph-name="greaterequal" unicode="&#x2265;" horiz-adv-x="318" 
d="M48 470l250 -162v-38l-250 -162l-23 39l219 143q-54 35 -109.5 71t-109.5 72zM294 0h-260l-9 44h262q1 -11 3 -22z" />
    <glyph glyph-name="lozenge" unicode="&#x25ca;" horiz-adv-x="521" 
d="M249 0l-219 292v15l219 292h22l219 -292v-15l-219 -292h-22zM85 299l174 -237l178 237l-178 239z" />
    <glyph glyph-name="uni25CC" unicode="&#x25cc;" horiz-adv-x="672" 
d="M303 542q0 14 9 23.5t23 9.5t23.5 -9.5t9.5 -23.5t-9.5 -23t-23.5 -9t-23 9t-9 23zM403 525q0 14 9 23.5t23 9.5t23.5 -9.5t9.5 -23.5t-9.5 -23t-23.5 -9t-23 9t-9 23zM269 525q0 -14 -9 -23t-23 -9t-23.5 9t-9.5 23t9.5 23.5t23.5 9.5t23 -9.5t9 -23.5zM488 469
q0 14 9 23.5t23 9.5t23.5 -9.5t9.5 -23.5t-9.5 -23t-23.5 -9t-23 9t-9 23zM184 469q0 -14 -9 -23t-23 -9t-23.5 9t-9.5 23t9.5 23.5t23.5 9.5t23 -9.5t9 -23.5zM541 381q0 14 9 23.5t23 9.5t23.5 -9.5t9.5 -23.5t-9.5 -23t-23.5 -9t-23 9t-9 23zM131 381q0 -14 -9 -23
t-23 -9t-23.5 9t-9.5 23t9.5 23.5t23.5 9.5t23 -9.5t9 -23.5zM557 286q0 14 9 23.5t23 9.5t23.5 -9.5t9.5 -23.5t-9.5 -23t-23.5 -9t-23 9t-9 23zM115 286q0 -14 -9 -23t-23 -9t-23.5 9t-9.5 23t9.5 23.5t23.5 9.5t23 -9.5t9 -23.5zM541 193q0 14 9 23.5t23 9.5t23.5 -9.5
t9.5 -23.5t-9.5 -23t-23.5 -9t-23 9t-9 23zM131 193q0 -14 -9 -23t-23 -9t-23.5 9t-9.5 23t9.5 23.5t23.5 9.5t23 -9.5t9 -23.5zM489 104q0 14 9 23.5t23 9.5t23.5 -9.5t9.5 -23.5t-9.5 -23t-23.5 -9t-23 9t-9 23zM183 104q0 -14 -9 -23t-23 -9t-23.5 9t-9.5 23t9.5 23.5
t23.5 9.5t23 -9.5t9 -23.5zM269 49q0 -14 -9 -23t-23 -9t-23.5 9t-9.5 23t9.5 23.5t23.5 9.5t23 -9.5t9 -23.5zM403 49q0 14 9 23.5t23 9.5t23.5 -9.5t9.5 -23.5t-9.5 -23t-23.5 -9t-23 9t-9 23zM303 32q0 14 9 23.5t23 9.5t23.5 -9.5t9.5 -23.5t-9.5 -23t-23.5 -9t-23 9
t-9 23z" />
    <glyph glyph-name="commaaccent" unicode="&#xf6c3;" horiz-adv-x="131" 
d="M119 -70q0 -45 -24.5 -85.5t-64.5 -59.5l-17 27q25 15 41.5 34.5t17.5 46.5q-19 1 -29.5 15t-10.5 27q0 18 12 31t31 13t31.5 -14.5t12.5 -34.5z" />
    <glyph glyph-name="fi" unicode="&#xfb01;" horiz-adv-x="504" 
d="M24 472h73v91q0 63 29 101t83 38q20 0 38 -4.5t28 -8.5l-12 -45q-6 3 -18.5 6t-22.5 3q-38 0 -53.5 -23t-15.5 -59v-99h88l21 -42h-109v-430h-56v430h-73v42zM349 638q0 18 12 30t31 12q17 0 30 -12t13 -30q0 -19 -13 -31t-30 -12q-19 0 -31 12t-12 31zM364 0v485h56
v-485h-56z" />
    <glyph glyph-name="fl" unicode="&#xfb02;" horiz-adv-x="500" 
d="M24 472h73v91q0 63 29 101t83 38q20 0 38 -4.5t28 -8.5l-12 -45q-6 3 -18.5 6t-22.5 3q-38 0 -53.5 -23t-15.5 -59v-99h88l21 -42h-109v-430h-56v430h-73v42zM362 0v696l55 10v-706h-55z" />
    <glyph glyph-name="grave.case" horiz-adv-x="152" 
d="M13 892h66l61 -153h-42z" />
    <glyph glyph-name="dieresis.case" horiz-adv-x="264" 
d="M251 808q0 -17 -12 -28.5t-28 -11.5q-18 0 -29 11.5t-11 28.5q0 16 11 27.5t29 11.5q16 0 28 -11.5t12 -27.5zM93 808q0 -17 -12 -28.5t-28 -11.5q-17 0 -28.5 11.5t-11.5 28.5q0 16 11.5 27.5t28.5 11.5q16 0 28 -11.5t12 -27.5z" />
    <glyph glyph-name="macron.case" horiz-adv-x="266" 
d="M13 833h241v-43h-241v43z" />
    <glyph glyph-name="acute.case" horiz-adv-x="152" 
d="M73 892h67l-86 -153h-41z" />
    <glyph glyph-name="circumflex.case" horiz-adv-x="296" 
d="M68 739h-55l110 153h50l111 -153h-57l-79 114z" />
    <glyph glyph-name="caron.case" horiz-adv-x="296" 
d="M228 892h56l-111 -153h-50l-110 153h56q19 -28 39 -57t40 -57z" />
    <glyph glyph-name="breve.case" horiz-adv-x="285" 
d="M143 751q-66 1 -98 40.5t-32 89.5h43q0 -31 22.5 -59t64.5 -28q40 0 63 27t23 60h44q0 -50 -31.5 -89.5t-98.5 -40.5z" />
    <glyph glyph-name="dotaccent.case" horiz-adv-x="112" 
d="M99 811q0 -19 -13 -31t-30 -12q-19 0 -31 12t-12 31q0 18 12 30.5t31 12.5q17 0 30 -12.5t13 -30.5z" />
    <glyph glyph-name="ring.case" horiz-adv-x="203" 
d="M190 825q0 -35 -26 -58t-62 -23t-62.5 23t-26.5 58q0 36 26.5 60t62.5 24t62 -24t26 -60zM148 825q0 21 -13 34.5t-33 13.5t-33.5 -13.5t-13.5 -34.5q0 -20 13.5 -33.5t33.5 -13.5t33 13.5t13 33.5z" />
    <glyph glyph-name="tilde.case" horiz-adv-x="306" 
d="M209 758q-34 0 -60.5 26t-51.5 26q-17 0 -28.5 -12.5t-13.5 -35.5h-42q0 50 24 70.5t59 20.5q42 0 64.5 -26t48.5 -26q17 0 28.5 12.5t13.5 35.5h42q0 -50 -24 -70.5t-60 -20.5z" />
    <glyph glyph-name="hungarumlaut.case" horiz-adv-x="275" 
d="M196 892h66l-84 -153h-41zM73 892h65l-86 -153h-39z" />
    <glyph glyph-name="dv_La.MAR" horiz-adv-x="806" 
d="M558 429q-58 0 -89.5 -41.5t-31.5 -107.5v-124l-58 18v106q0 66 -32 107.5t-95 41.5q-56 0 -90.5 -37t-34.5 -86q0 -79 30 -142.5t79 -162.5l-49 -19q-45 88 -82 166t-37 165q0 66 50.5 116.5t133.5 50.5q49 0 90.5 -21.5t64.5 -58.5q19 31 51 51t71 26v156h-526l-14 47
h813l15 -47h-230v-156q72 -9 113.5 -56.5t41.5 -107.5q0 -87 -36.5 -165t-82.5 -166l-49 19q49 99 79 162.5t30 142.5q0 49 -34 86t-91 37z" />
    <glyph glyph-name="dv_Sha.MAR" horiz-adv-x="774" 
d="M207 285q2 -7 4 -15.5t3 -15.5q59 4 103 35.5t44 89.5q0 55 -34.5 92.5t-100.5 37.5q-48 0 -85.5 -21.5t-49.5 -31.5q-7 11 -13.5 22t-12.5 22q5 4 39.5 25.5t86.5 29.5v78h-188l-14 47h780l16 -47h-136v-649l-58 16v633h-342v-76q88 -7 130 -59t42 -117
q0 -81 -59.5 -124t-141.5 -50l138 -207l-55 -19l-138 223h-39q-16 0 -22.5 10.5t-6.5 20.5q0 31 20.5 60t51.5 29q13 0 22.5 -11t15.5 -28z" />
    <glyph glyph-name="dv_oldJha" horiz-adv-x="989" 
d="M147 524q19 0 35.5 9t26.5 21q-1 38 -15.5 64.5t-48.5 26.5q-28 0 -44 -18t-16 -43q0 -23 16.5 -41.5t45.5 -18.5zM521 0v265h-254v-37q0 -20 -7 -32t-21 -12q-41 0 -69.5 34t-28.5 65q0 12 10 20t23 8h36v191q-13 -10 -31.5 -15.5t-35.5 -5.5q-51 0 -81.5 30t-30.5 76
t32.5 76.5t80.5 30.5q60 0 92 -41.5t32 -107.5v-234h253v322h-128l-15 47h607l15 -47h-421v-190q23 25 61 46t89 21q96 0 158.5 -55.5t62.5 -148.5q0 -94 -63 -148.5t-143 -54.5l-12 47q70 0 112 46t42 111q0 66 -45.5 110t-108.5 44q-64 0 -100 -33.5t-53 -63.5v-380z" />
    <glyph glyph-name="dv_KSsa" horiz-adv-x="743" 
d="M175 572q0 -35 23.5 -62.5t60.5 -49.5q31 27 51.5 54t20.5 52q0 29 -21.5 53.5t-58.5 24.5q-32 0 -54 -20.5t-22 -51.5zM462 -39l-45 -27q-54 100 -64 117l-10 17q-26 -7 -43.5 -8t-34.5 -1q-72 0 -139.5 36.5t-67.5 126.5q0 60 48.5 108t109.5 95q-45 26 -73 62.5
t-28 82.5q0 49 36.5 86.5t103.5 37.5q57 0 96.5 -37t39.5 -86q0 -38 -23 -71.5t-57 -63.5q53 -20 112.5 -30.5t108.5 -10.5h29v285h178l15 -47h-135v-649l-58 16v349h-30q-57 0 -129.5 12t-135.5 39l-30 -24q-45 -36 -81 -71.5t-36 -81.5q0 -56 44.5 -85t101.5 -29
q18 0 31 2t23 6q-5 12 -7.5 22.5t-2.5 19.5q0 21 12.5 31.5t31.5 10.5q22 0 48.5 -14.5t26.5 -39.5q0 -15 -10 -30.5t-29 -31.5z" />
    <glyph glyph-name="dv_JNya" horiz-adv-x="762" 
d="M228 82q-17 0 -33.5 1t-31.5 4l104 -130l-38 -26l-128 164q-28 12 -56.5 37.5t-28.5 56.5q0 13 8.5 22.5t24.5 9.5q28 0 52.5 -18t40.5 -59q19 -6 41.5 -9.5t44.5 -3.5q72 0 114 39t42 103q0 62 -43 99t-110 37h-69l-17 49h435v175h-577l-14 47h769l15 -47h-135v-649
l-58 16v409h-201q31 -19 48 -56t17 -80q0 -93 -60.5 -142t-155.5 -49z" />
    <glyph glyph-name="dv_Jha.NEP" horiz-adv-x="470" 
d="M164 177q-17 0 -27.5 6t-10.5 18q0 32 20.5 64t52.5 32q13 0 22 -11t15 -28l8 -30q54 4 94.5 33.5t40.5 89.5q0 47 -36 83.5t-109 38.5q-7 -45 -38 -75t-82 -30q-30 0 -55.5 9t-47.5 24l21 34q16 -8 35.5 -15.5t41.5 -7.5q31 0 53 22.5t22 64.5q0 38 -24 75.5t-47 58.5
h-110l-14 47h476l16 -47h-307q22 -19 39 -51t21 -63q101 -1 152.5 -50t51.5 -118q0 -75 -55.5 -120.5t-133.5 -49.5l115 -181l-54 -18l-116 195h-30z" />
    <glyph glyph-name="dv_Reph" horiz-adv-x="0" 
d="M-142 678h-58q-27 22 -47 66t-20 79q0 53 32.5 94.5t95.5 41.5q37 0 63.5 -10.5t43.5 -22.5l-20 -35q-13 8 -34.5 16t-46.5 8q-34 0 -57.5 -25.5t-23.5 -67.5q0 -40 23.5 -82.5t48.5 -61.5z" />
    <glyph glyph-name="dv_Reph.MAR" horiz-adv-x="435" 
d="M446 633h-443l-14 47h441zM218 260q-63 0 -116 34t-85 101l40 24q25 -52 68.5 -83t92.5 -31t92 31.5t68 82.5l40 -24q-33 -67 -85.5 -101t-114.5 -34z" />
    <glyph glyph-name="dv_Rakar" horiz-adv-x="0" 
d="M51 -149l-33 30l119 131h54l119 -131l-33 -30l-112 124z" />
    <glyph glyph-name="dv_MatraI.1" 
d="M325 893q-92 0 -137 -34.5t-45 -86.5q0 -34 13 -58t23 -34h124l16 -47h-136v-649l-58 16v633h-122l-14 47h127q-10 15 -20.5 39t-10.5 55q0 74 61.5 120.5t176.5 46.5q136 0 301.5 -71.5t238.5 -118.5l-26 -35q-82 49 -238 113t-274 64z" />
    <glyph glyph-name="dv_MatraI.2" 
d="M321 893q-96 0 -137 -34.5t-41 -86.5q0 -34 13 -58t23 -34h124l16 -47h-136v-649l-58 16v633h-122l-14 47h127q-10 15 -20.5 39t-10.5 55q0 74 57.5 120.5t177.5 46.5q151 0 398 -75t352 -115l-26 -35q-119 42 -356 109.5t-367 67.5z" />
    <glyph glyph-name="dv_MatraI.3" 
d="M322 893q-91 0 -135 -34.5t-44 -86.5q0 -34 13 -58t23 -34h124l16 -47h-136v-649l-58 16v633h-122l-14 47h127q-10 15 -20.5 39t-10.5 55q0 74 60 120.5t175 46.5q139 0 328.5 -73t270.5 -117l-26 -35q-90 48 -271.5 112.5t-299.5 64.5z" />
    <glyph glyph-name="dv_MatraI.4" 
d="M268 893q-60 0 -92.5 -34.5t-32.5 -86.5q0 -34 13 -58t23 -34h124l16 -47h-136v-649l-58 16v633h-122l-14 47h127q-10 15 -20.5 39t-10.5 55q0 74 47.5 120.5t130.5 46.5q100 0 185 -68t134 -122l-26 -35q-49 50 -125.5 113.5t-162.5 63.5z" />
    <glyph glyph-name="dv_MatraIReph" 
d="M294 893q-74 0 -112.5 -34.5t-38.5 -86.5q0 -34 13 -58t23 -34h124l16 -47h-136v-649l-58 16v633h-122l-14 47h127q-10 15 -20.5 39t-10.5 55q0 74 55.5 120.5t151.5 46.5q92 0 196 -43.5t179 -89.5q0 3 -0.5 5.5t-0.5 5.5q0 53 31 96.5t96 43.5q37 0 63.5 -10.5
t43.5 -22.5l-21 -35q-13 8 -34.5 16t-46.5 8q-34 0 -57 -25.5t-23 -67.5q0 -40 23 -82.5t48 -61.5h-57q-13 10 -25.5 27.5t-20.5 36.5q-78 49 -186.5 100t-205.5 51z" />
    <glyph glyph-name="dv_MatraIReph.1" 
d="M325 893q-92 0 -137 -34.5t-45 -86.5q0 -34 13 -58t23 -34h124l16 -47h-136v-649l-58 16v633h-122l-14 47h127q-10 15 -20.5 39t-10.5 55q0 73 61.5 119.5t175.5 46.5q104 0 231 -46.5t220 -92.5q-1 6 -1.5 11.5t-0.5 11.5q0 52 31.5 93.5t94.5 41.5q37 0 63.5 -10.5
t43.5 -22.5l-20 -35q-17 9 -36.5 16.5t-44.5 7.5q-34 0 -57.5 -25.5t-23.5 -67.5q0 -40 23.5 -82.5t48.5 -61.5h-58q-13 10 -25 27t-20 36q-90 46 -226 99t-240 53z" />
    <glyph glyph-name="dv_MatraIReph.2" 
d="M321 893q-96 0 -137 -34.5t-41 -86.5q0 -34 13 -58t23 -34h124l16 -47h-136v-649l-58 16v633h-122l-14 47h127q-10 15 -20.5 39t-10.5 55q0 74 57.5 120.5t177.5 46.5q128 0 331 -57t335 -103q-4 10 -5.5 21t-1.5 21q0 53 32.5 94.5t95.5 41.5q37 0 63.5 -10.5
t43.5 -22.5l-20 -35q-19 8 -38.5 15t-41.5 7q-37 0 -59.5 -24t-22.5 -67q0 -40 23.5 -82.5t48.5 -61.5h-58q-11 8 -21 21.5t-18 28.5q-132 44 -349 104.5t-337 60.5z" />
    <glyph glyph-name="dv_MatraIReph.3" 
d="M322 893q-91 0 -135 -34.5t-44 -86.5q0 -34 13 -58t23 -34h124l16 -47h-136v-649l-58 16v633h-122l-14 47h127q-10 15 -20.5 39t-10.5 55q0 74 60 120.5t175 46.5q111 0 261.5 -51.5t254.5 -97.5q-2 8 -3.5 16t-1.5 15q0 53 32.5 94.5t95.5 41.5q37 0 63.5 -10.5
t43.5 -22.5l-20 -35q-14 8 -35 16t-46 8q-34 0 -57.5 -25.5t-23.5 -67.5q0 -40 23.5 -82.5t48.5 -61.5h-58q-12 9 -23 24t-19 32q-101 47 -264 103t-270 56z" />
    <glyph glyph-name="dv_MatraIReph.4" 
d="M268 893q-60 0 -92.5 -34.5t-32.5 -86.5q0 -34 13 -58t23 -34h124l16 -47h-136v-649l-58 16v633h-122l-14 47h127q-10 15 -20.5 39t-10.5 55q0 74 47.5 120.5t130.5 46.5q63 0 120 -30t103 -69q3 45 34.5 81t91.5 36q37 0 63.5 -10.5t43.5 -22.5l-21 -35
q-15 9 -35.5 16.5t-45.5 7.5q-34 0 -57 -25.5t-23 -67.5q0 -40 23 -82.5t48 -61.5h-57q-18 14 -33 39.5t-22 51.5q-45 44 -104 84t-124 40z" />
    <glyph glyph-name="dv_MatraIi.1" 
d="M-456 708q-14 21 -25 46t-11 55q0 58 42 95t132 37q155 0 307 -96t188 -165h124l16 -47h-136v-649l-58 16v633h-122l-15 47h130q-31 48 -164.5 130.5t-267.5 82.5q-63 0 -93 -23.5t-30 -58.5q0 -19 6 -39t18 -41z" />
    <glyph glyph-name="dv_MatraIi.2" 
d="M-257 708q-13 21 -24.5 47.5t-11.5 56.5q0 55 42 92t108 37q108 0 197.5 -93t119.5 -168h127l16 -47h-136v-649l-58 16v633h-122l-15 47h130q-13 43 -92.5 128t-164.5 85q-46 0 -72.5 -23.5t-26.5 -58.5q0 -19 6.5 -39t18.5 -41z" />
    <glyph glyph-name="dv_MatraIiReph.1" 
d="M-456 708q-14 21 -25 46t-11 55q0 58 42 95t132 37q99 0 205 -47t181 -101q-2 7 -3 15.5t-1 14.5q0 53 32.5 94.5t95.5 41.5q37 0 63.5 -10.5t43.5 -22.5l-21 -35q-16 10 -36 17t-45 7q-34 0 -57 -25.5t-23 -67.5q0 -39 22 -80.5t47 -61.5h115l16 -47h-136v-649l-58 16
v633h-122l-15 47h130q-31 48 -164.5 130.5t-267.5 82.5q-63 0 -93 -23.5t-30 -58.5q0 -19 6 -39t18 -41z" />
    <glyph glyph-name="dv_MatraIiReph.2" 
d="M-257 708q-13 21 -24.5 47.5t-11.5 56.5q0 55 42 92t108 37q58 0 113.5 -32t98.5 -75q4 49 36 87t92 38q37 0 63.5 -10.5t43.5 -22.5l-21 -35q-18 10 -37 17t-44 7q-34 0 -57 -25.5t-23 -67.5q0 -39 22 -80.5t47 -61.5h110l16 -47h-136v-649l-58 16v633h-122l-15 47h130
q-13 43 -92.5 128t-164.5 85q-46 0 -72.5 -23.5t-26.5 -58.5q0 -19 6.5 -39t18.5 -41z" />
    <glyph glyph-name="dv_MatraIiReph" 
d="M-180 708q-13 21 -23.5 47.5t-10.5 56.5q0 55 38.5 92t99.5 37q49 0 88.5 -23t70.5 -58q10 41 41 70t82 29q37 0 63.5 -10.5t43.5 -22.5l-20 -35q-16 10 -36 17t-45 7q-34 0 -57.5 -25.5t-23.5 -67.5q0 -13 3 -28t9 -30q11 -22 19.5 -44t13.5 -40h127l16 -47h-136v-649
l-58 16v633h-122l-14 47h130q-13 43 -60.5 128t-132.5 85q-41 0 -65 -23.5t-24 -58.5q0 -19 6.5 -39t18.5 -41z" />
    <glyph glyph-name="dv_MatraEReph" horiz-adv-x="0" 
d="M-118 665h-64q-64 60 -129.5 119.5t-130.5 119.5l44 34l146 -143q-2 7 -3 14t-1 14q0 53 32.5 94.5t95.5 41.5q37 0 63.5 -10.5t43.5 -22.5l-20 -35q-16 10 -36 17t-45 7q-34 0 -57.5 -25.5t-23.5 -67.5q0 -46 27.5 -88t57.5 -69z" />
    <glyph glyph-name="dv_MatraAiReph" horiz-adv-x="0" 
d="M-136 680h-54l-42 45q-51 57 -89 69t-81 12h-80l-13 49h90q56 0 102.5 -15t101.5 -84l-74 237l55 24l26 -104q16 20 40.5 33t57.5 13q37 0 63.5 -10.5t43.5 -22.5l-20 -35q-15 11 -35.5 17.5t-45.5 6.5q-32 0 -57.5 -23t-25.5 -57q0 -5 2 -18t3 -18z" />
    <glyph glyph-name="dv_MatraOReph" 
d="M125 0v633h-122l-14 47h126l-244 224l45 34l146 -144q-1 7 -2 14.5t-1 14.5q0 53 32.5 94.5t95.5 41.5q37 0 63.5 -10.5t43.5 -22.5l-21 -35q-16 9 -36 16.5t-45 7.5q-34 0 -57 -25.5t-23 -67.5q0 -39 22 -80.5t47 -61.5h122l16 -47h-136v-649z" />
    <glyph glyph-name="dv_MatraAuReph" 
d="M177 680h126l16 -47h-136v-649l-58 16v633h-122l-14 47h134l-42 45q-51 57 -89 69t-81 12h-85l-13 49h95q56 0 102.5 -15t101.5 -84l-74 237l55 24l25 -104q16 20 41 33t58 13q37 0 63.5 -10.5t43.5 -22.5l-20 -35q-19 12 -37.5 18t-43.5 6q-34 0 -57 -25.5t-24 -65.5
q0 -2 11.5 -49.5t23.5 -94.5z" />
    <glyph glyph-name="dv_RakarMatraU" horiz-adv-x="0" 
d="M51 -149l-33 30l119 131h54l119 -131l-33 -30l-112 124zM157 -365q50 0 75.5 27.5t25.5 65.5t-27.5 65.5t-73.5 27.5h-48v46h56q55 0 100.5 -37t45.5 -102t-46 -102t-109 -37q-69 0 -131.5 42.5t-110.5 117.5l36 24q49 -61 97.5 -99.5t109.5 -38.5z" />
    <glyph glyph-name="dv_RakarMatraUu" horiz-adv-x="0" 
d="M51 -149l-33 30l119 131h54l119 -131l-33 -30l-112 124zM164 -180q-50 0 -75 -28t-25 -65q0 -38 27 -66t73 -28h48v-45h-56q-55 0 -100.5 36.5t-45.5 102.5q0 65 46 102t109 37q69 0 131.5 -43t110.5 -117l-37 -25q-50 61 -97.5 100t-108.5 39z" />
    <glyph glyph-name="dv_KRa" horiz-adv-x="881" 
d="M109 312q0 -67 44.5 -111t109.5 -44q62 0 97 31t53 62v123q-18 31 -53 62t-97 31q-63 0 -108 -44t-46 -110zM778 312q0 66 -45.5 110t-108.5 44q-64 0 -100 -33.5t-53 -63.5v-385l-58 16v160l-294 -196l-40 36l165 109q-84 6 -141.5 58.5t-57.5 143.5q0 93 62.5 148.5
t158.5 55.5q50 0 87 -20t60 -43v181h-410l-14 47h888l15 -47h-421v-185q23 25 61 46t90 21q95 0 157.5 -55.5t62.5 -148.5q0 -94 -62.5 -148.5t-143.5 -54.5l-12 47q70 0 112 46t42 111z" />
    <glyph glyph-name="dv_KRa.NEP" horiz-adv-x="849" 
d="M746 288q0 67 -45.5 110.5t-108.5 43.5q-64 0 -100 -33t-53 -63v-362l-58 16v269l-272 -146l-30 42l294 159q-69 82 -122 103t-96 21q-19 0 -44.5 -8.5t-47.5 -18.5l-25 49q22 10 57 18.5t53 8.5q46 0 106.5 -16.5t126.5 -97.5v250h-378l-14 47h856l16 -47h-422v-208
q23 25 61 46t89 21q96 0 158.5 -55.5t62.5 -148.5q0 -94 -63 -148.5t-143 -54.5l-12 46q70 0 112 46t42 111z" />
    <glyph glyph-name="dv_KhRa" horiz-adv-x="906" 
d="M396 340q0 75 54.5 127.5t140.5 52.5q41 0 74.5 -14.5t57.5 -37.5v165h-434q26 -30 39 -70.5t13 -80.5q0 -73 -46 -133.5t-127 -76.5q6 -78 93.5 -143.5t201.5 -65.5q17 0 36.5 1t36.5 5q26 25 53 49t54 49q-13 -4 -26 -5.5t-26 -1.5q-82 0 -138.5 51t-56.5 129zM723 340
q0 57 -36.5 95t-95.5 38q-57 0 -95.5 -38.5t-38.5 -94.5q0 -57 37 -95t97 -38t96 38t36 95zM723 0v175l-248 -232l-50 25l51 46h-15q-148 0 -245.5 77.5t-102.5 178.5h-32q-13 0 -21.5 8t-8.5 23q0 30 24 59.5t59 29.5q12 0 21 -11t11 -27l3 -25q48 13 80.5 55t32.5 100
q0 46 -18.5 88t-50.5 63h-210l-14 47h913l15 -47h-136v-649z" />
    <glyph glyph-name="dv_GRa" horiz-adv-x="598" 
d="M185 633v-408q0 -20 -7 -32t-21 -12q-40 0 -68.5 30.5t-28.5 61.5q0 15 8 24.5t24 9.5h35v326h-124l-14 47h605l16 -47h-136v-649l-58 16v219q-70 -64 -141 -129t-142 -128l-45 34l328 294v343h-231z" />
    <glyph glyph-name="dv_GhRa" horiz-adv-x="700" 
d="M143 537q0 -49 34 -80.5t105 -31.5h35l19 -43h-49q-89 0 -121.5 -39t-32.5 -88q0 -54 47 -85t105 -31q20 0 39.5 3t37.5 9l156 139v343h-309q-32 -13 -49 -39t-17 -57zM518 0v219q-71 -63 -142 -128.5t-142 -128.5l-45 34l102 91q-98 0 -158.5 47.5t-60.5 121.5
q0 49 24.5 91t73.5 58q-40 13 -63.5 50t-23.5 83q0 26 10 51t28 44h-118l-14 47h707l15 -47h-136v-649z" />
    <glyph glyph-name="dv_CRa" horiz-adv-x="685" 
d="M423 459q-19 0 -37 -0.5t-37 -0.5q-77 0 -119 -38t-42 -98q0 -63 41.5 -102t113.5 -39q75 0 117.5 39.5t42.5 105.5v307h-500l-14 47h692l15 -47h-135v-649l-58 16v178l-322 -206q-11 9 -22.5 17.5t-22.5 16.5l196 125q-85 1 -144 49.5t-59 141.5q0 44 19.5 80.5
t47.5 55.5h-158l-15 49h382z" />
    <glyph glyph-name="dv_JRa" horiz-adv-x="771" 
d="M203 82q-60 0 -108.5 17t-80.5 39l13 52q35 -27 80 -43t96 -16q72 0 113.5 39t41.5 103q0 62 -42.5 99t-110.5 37h-68l-17 49h469v175h-586l-14 47h778l15 -47h-136v-649l-57 16v218l-266 -256l-45 34l311 291v122h-235q30 -19 47.5 -56t17.5 -80q0 -93 -60.5 -142
t-155.5 -49z" />
    <glyph glyph-name="dv_JhRa" horiz-adv-x="854" 
d="M672 633h-242v-166h-231q-39 0 -62 -23.5t-23 -54.5q0 -33 24 -56t63 -23h95q49 0 89.5 -14t65.5 -40h221v377zM276 29q71 0 113.5 31.5t42.5 84.5q0 49 -33.5 83t-93.5 34h-101q-58 0 -103.5 36t-45.5 91q0 60 43.5 93t107.5 33h166v118h-369l-14 47h861l15 -47h-135
v-649l-58 16v168l-139 -187l-46 30l156 200h-164q6 -14 9 -30t3 -33q0 -66 -54 -116.5t-161 -50.5q-19 0 -39.5 2t-39.5 6l102 -127l-38 -26l-128 164q-28 12 -56.5 37.5t-28.5 56.5q0 13 8.5 22.5t24.5 9.5q28 0 53.5 -19t41.5 -62q24 -7 49.5 -11t50.5 -5z" />
    <glyph glyph-name="dv_TRa" horiz-adv-x="564" 
d="M381 0v253q-67 -37 -135.5 -73t-136.5 -73l-30 42l294 159q-69 83 -122 104t-96 21q-19 0 -44.5 -9t-47.5 -19l-25 49q22 10 57 19t53 9q46 0 106.5 -17t126.5 -98v266h-378l-14 47h570l16 -47h-136v-649z" />
    <glyph glyph-name="dv_TRa.alt" horiz-adv-x="654" 
d="M472 0v345l-160 -203q-13 7 -25.5 15.5t-25.5 16.5q46 56 92.5 113t92.5 114h-174q-75 0 -110.5 -30.5t-35.5 -82.5q0 -53 37 -118t78 -126l28 -42l-50 -20q-50 72 -101 155.5t-51 154.5q0 66 45 111t125 45h235v185h-469l-14 47h661l15 -47h-135v-649z" />
    <glyph glyph-name="dv_ThRa" horiz-adv-x="647" 
d="M464 0v224l-297 -240l-48 33l212 162q-4 0 -8 -0.5t-8 -0.5q-88 0 -151.5 56.5t-63.5 128.5l12 14q39 12 85.5 43t46.5 97v12t-1 12q-13 -19 -40 -33.5t-55 -14.5q-43 0 -77.5 26.5t-34.5 69.5t31.5 74t82.5 31q57 0 101.5 -50t44.5 -116q0 -87 -45 -125.5t-95 -61.5
q14 -52 58.5 -81.5t100.5 -32.5q66 0 107.5 36.5t41.5 102.5v267h-88l-14 47h281l15 -47h-135v-649zM151 537q29 0 48 18t27 40q-12 23 -31.5 37.5t-43.5 14.5q-25 0 -42.5 -15.5t-17.5 -41.5q0 -23 17.5 -38t42.5 -15z" />
    <glyph glyph-name="dv_DRa" horiz-adv-x="578" 
d="M531 -16l-46 -27l-72 134q-10 -3 -26 -5.5t-29 -2.5q-18 -34 -36 -67.5t-37 -67.5l-58 18l69 118q-94 7 -166 62.5t-72 163.5q0 100 78.5 159.5t203.5 59.5h58v104h-395l-14 47h584l16 -47h-133v-152h-113q-99 0 -161.5 -47.5t-62.5 -123.5q0 -83 58.5 -129.5
t150.5 -46.5q16 0 32 1.5t29 3.5q-5 13 -8 23t-3 20q0 20 13 30.5t31 10.5q22 0 48.5 -14.5t26.5 -39.5q0 -14 -9.5 -30t-28.5 -31z" />
    <glyph glyph-name="dv_DhRa" horiz-adv-x="714" 
d="M532 0v219l-283 -257l-46 34l102 91h-14q-96 0 -155.5 46.5t-59.5 122.5q0 49 24.5 91t73.5 58q-40 13 -64 50t-24 83q0 63 47 109.5t128 46.5q47 0 84.5 -18.5t48.5 -34.5l-30 -34q-15 16 -41.5 26.5t-60.5 10.5q-51 0 -83 -31t-32 -76q0 -49 33.5 -80.5t104.5 -31.5h36
l18 -43h-49q-89 0 -121.5 -39t-32.5 -88q0 -57 50 -86.5t108 -29.5q22 0 43.5 3.5t40.5 10.5l154 137v343h-80l-14 47h272l15 -47h-135v-649z" />
    <glyph glyph-name="dv_NRa" horiz-adv-x="591" 
d="M408 0v254l-273 -252l-46 35l304 276l-213 104l-24 -34q-8 -12 -18.5 -19t-15.5 -7q-29 0 -46.5 35.5t-17.5 60.5q0 16 10.5 35.5t29.5 19.5q4 0 7 -0.5t7 -1.5l296 -143v270h-405l-14 47h598l15 -47h-136v-649z" />
    <glyph glyph-name="dv_PRa" horiz-adv-x="635" 
d="M453 0v220l-294 -236l-47 33l211 161h-17q-98 0 -153.5 55t-55.5 154v246h-94l-14 47h642l15 -47h-135v-649zM309 228q81 0 112.5 46.5t31.5 120.5v238h-299v-253q0 -69 40 -110.5t115 -41.5z" />
    <glyph glyph-name="dv_PhRa" horiz-adv-x="919" 
d="M309 228q66 0 104.5 38.5t38.5 101.5v265h-298v-253q0 -69 40 -110.5t115 -41.5zM452 0v220l-293 -236l-47 33l211 161h-17q-98 0 -154 55t-56 154v246h-93l-14 47h926l16 -47h-420v-197q23 24 60.5 45t88.5 21q95 0 157.5 -55.5t62.5 -148.5q0 -94 -63 -148.5
t-143 -54.5l-11 46q70 0 112 46t42 111q0 67 -46 110.5t-108 43.5q-64 0 -100 -32.5t-52 -62.5v-373z" />
    <glyph glyph-name="dv_BRa" horiz-adv-x="595" 
d="M263 466q-24 0 -46 -6.5t-40 -19.5l206 -231q10 10 17 20.5t13 20.5v123q-18 31 -53 62t-97 31zM109 312q0 -67 44.5 -111t109.5 -44q26 0 48 7t39 17l-206 229q-16 -19 -25.5 -44.5t-9.5 -53.5zM413 0v160l-294 -196l-40 36l165 109q-84 6 -141.5 58.5t-57.5 143.5
q0 93 62.5 148.5t158.5 55.5q50 0 87 -19t60 -42v179h-410l-14 47h602l16 -47h-136v-649z" />
    <glyph glyph-name="dv_BhRa" horiz-adv-x="704" 
d="M521 0v234l-305 -250l-46 33l315 248h-218v-37q0 -20 -7 -32t-21 -12q-41 0 -69.5 31.5t-28.5 67.5q0 10 10 19t23 9h36v191q-13 -10 -31.5 -15.5t-35.5 -5.5q-51 0 -81.5 30t-30.5 76t32.5 76.5t80.5 30.5q60 0 92 -41.5t32 -107.5v-234h253v322h-128l-15 47h321l16 -47
h-136v-649zM147 524q19 0 35.5 9t26.5 21q-1 38 -15.5 64.5t-48.5 26.5q-28 0 -44 -18t-16 -43q0 -23 16.5 -41.5t45.5 -18.5z" />
    <glyph glyph-name="dv_MRa" horiz-adv-x="635" 
d="M453 0v233l-296 -249l-45 33q75 61 152 124t153 124h-245v-37q0 -20 -7 -32t-21 -12q-40 0 -68.5 30.5t-28.5 61.5q0 14 8 24.5t24 10.5h35v322h-111l-14 47h642l16 -47h-136v-649zM453 633h-280v-322h280v322z" />
    <glyph glyph-name="dv_YRa" horiz-adv-x="613" 
d="M430 0v220l-292 -236l-48 33l212 162q-5 -1 -10.5 -1h-10.5q-88 0 -151.5 56.5t-63.5 128.5l12 14q31 9 56.5 46.5t25.5 92.5q0 42 -19.5 73.5t-54.5 43.5h-83l-14 47h620l15 -47h-136v-649zM281 228q80 0 114.5 41t34.5 126v238h-264q20 -14 35 -47t15 -76
q0 -48 -23.5 -95t-70.5 -71q14 -51 58.5 -82t100.5 -34z" />
    <glyph glyph-name="dv_LRa" horiz-adv-x="845" 
d="M663 0v254l-237 -270l-46 33l281 309q-7 43 -34 74t-76 31q-54 0 -84 -42.5t-30 -108.5v-116l-58 18v98q0 66 -32 107.5t-95 41.5q-56 0 -90.5 -37t-34.5 -86q0 -79 30 -142.5t79 -162.5l-49 -19q-45 88 -82 166t-37 165q0 66 50.5 116.5t133.5 50.5q50 0 90 -21t64 -58
q23 38 61 58.5t85 20.5q37 0 66 -14t45 -30v197h-660l-14 47h852l15 -47h-135v-649z" />
    <glyph glyph-name="dv_VRa" horiz-adv-x="595" 
d="M263 157q62 0 97 31t53 62v123q-18 31 -53 62t-97 31t-108 -44t-46 -110q0 -67 44.5 -111t109.5 -44zM413 454v179h-410l-14 47h602l16 -47h-136v-649l-58 16v160l-294 -196l-40 36l165 109q-84 6 -141.5 58.5t-57.5 143.5q0 93 62.5 148.5t158.5 55.5q50 0 87 -19
t60 -42z" />
    <glyph glyph-name="dv_ShRa" horiz-adv-x="659" 
d="M265 694q55 0 93 -36.5t38 -89.5q0 -40 -21.5 -78.5t-66.5 -78.5l168 -127v396h179l15 -47h-136v-649l-58 16v180l-274 -196l-31 46l289 203l-195 145l-205 -159l-24 48l187 143q-48 40 -69.5 78.5t-21.5 79.5q0 53 38 89.5t95 36.5zM265 644q-32 0 -53.5 -22t-21.5 -56
q0 -33 18 -61t58 -61q43 37 58.5 67t15.5 55q0 32 -20.5 55t-54.5 23z" />
    <glyph glyph-name="dv_SsRa" horiz-adv-x="637" 
d="M455 0v222l-296 -238l-47 33l211 161h-17q-98 0 -153.5 55t-55.5 154v246h-94l-14 47h644l16 -47h-136v-649zM451 333q2 7 2.5 15t1.5 17v268h-269zM309 228q42 0 73.5 15t48.5 43q-69 78 -138.5 156.5t-138.5 156.5v-219q0 -69 40 -110.5t115 -41.5z" />
    <glyph glyph-name="dv_SRa" horiz-adv-x="747" 
d="M564 633h-265q27 -30 40 -73t13 -83q0 -38 -13 -72.5t-36 -62.5h261v291zM255 299q-16 -10 -34 -18t-37 -12l137 -220l223 250h-289zM128 265h-40q-11 0 -20.5 5.5t-9.5 19.5q0 31 20.5 63t52.5 32q13 0 22 -11t15 -27l10 -25q48 13 80.5 55t32.5 100q0 46 -19 90.5
t-50 65.5h-219l-14 47h753l15 -47h-135v-649l-58 16v245l-212 -245l-60 -18z" />
    <glyph glyph-name="dv_HRa" horiz-adv-x="531" 
d="M285 338q-66 0 -106.5 -38.5t-40.5 -94.5q0 -85 78 -127t155 -47l-15 -47q-106 6 -191 64t-85 157q0 43 16 77.5t44 58.5q-22 13 -37.5 37.5t-15.5 54.5q1 54 35.5 81t98.5 27h157v92h-375l-14 47h537l16 -47h-107v-140h-221q-32 0 -50.5 -16.5t-19.5 -42.5
q0 -24 13.5 -40.5t33.5 -24.5q21 8 45 12.5t51 4.5q91 0 144 -44t53 -103q0 -31 -13 -63.5t-38 -50.5l-40 33q20 18 28.5 37t8.5 41q0 29 -18.5 52t-50.5 36l-79 -175l-53 18l80 170q-6 0 -12 0.5t-12 0.5z" />
    <glyph glyph-name="dv_QRa" horiz-adv-x="881" 
d="M109 312q0 -67 44.5 -111t109.5 -44q62 0 97 31t53 62v123q-18 31 -53 62t-97 31q-63 0 -108 -44t-46 -110zM778 312q0 66 -45.5 110t-108.5 44q-64 0 -100 -33.5t-53 -63.5v-385l-58 16v160l-294 -196l-40 36l165 109q-84 6 -141.5 58.5t-57.5 143.5q0 93 62.5 148.5
t158.5 55.5q50 0 87 -20t60 -43v181h-410l-14 47h888l15 -47h-421v-185q23 25 61 46t90 21q95 0 157.5 -55.5t62.5 -148.5q0 -94 -62.5 -148.5t-143.5 -54.5l-12 47q70 0 112 46t42 111zM258 -29q0 19 12.5 32t31.5 13t32 -13t13 -32q0 -18 -13 -31t-32 -13t-31.5 13
t-12.5 31z" />
    <glyph glyph-name="dv_KhhRa" horiz-adv-x="906" 
d="M396 340q0 75 54.5 127.5t140.5 52.5q41 0 74.5 -14.5t57.5 -37.5v165h-434q26 -30 39 -70.5t13 -80.5q0 -73 -46 -133.5t-127 -76.5q6 -78 93.5 -143.5t201.5 -65.5q17 0 36.5 1t36.5 5q26 25 53 49t54 49q-13 -4 -26 -5.5t-26 -1.5q-82 0 -138.5 51t-56.5 129zM723 340
v5q-2 54 -38 91t-94 37q-57 0 -95.5 -38.5t-38.5 -94.5q0 -57 37 -95t97 -38t96 38t36 95zM723 0v175l-248 -232l-50 25l51 46h-15q-148 0 -245.5 77.5t-102.5 178.5h-32q-13 0 -21.5 8t-8.5 23q0 30 24 59.5t59 29.5q12 0 21 -11t11 -27l3 -25q48 13 80.5 55t32.5 100
q0 46 -18.5 88t-50.5 63h-210l-14 47h913l15 -47h-136v-649zM46 24q0 19 12.5 32t31.5 13t32 -13t13 -32q0 -18 -13 -30.5t-32 -12.5t-31.5 12.5t-12.5 30.5z" />
    <glyph glyph-name="dv_GhhRa" horiz-adv-x="598" 
d="M185 633v-408q0 -20 -7 -32t-21 -12q-40 0 -68.5 30.5t-28.5 61.5q0 15 8 24.5t24 9.5h35v326h-124l-14 47h605l16 -47h-136v-649l-58 16v219q-70 -64 -141 -129t-142 -128l-45 34l328 294v343h-231zM269 -9q0 18 12.5 31t31.5 13t32 -13t13 -31t-13 -31t-32 -13
t-31.5 13t-12.5 31z" />
    <glyph glyph-name="dv_ZRa" horiz-adv-x="771" 
d="M203 82q-60 0 -108.5 17t-80.5 39l13 52q35 -27 80 -43t96 -16q72 0 113.5 39t41.5 103q0 62 -42.5 99t-110.5 37h-68l-17 49h469v175h-586l-14 47h778l15 -47h-136v-649l-57 16v218l-266 -256l-45 34l311 291v122h-235q30 -19 47.5 -56t17.5 -80q0 -93 -60.5 -142
t-155.5 -49zM74 -29q0 19 13 32t31 13q19 0 32.5 -13t13.5 -32q0 -18 -13.5 -30.5t-32.5 -12.5q-18 0 -31 12.5t-13 30.5z" />
    <glyph glyph-name="dv_FRa" horiz-adv-x="919" 
d="M309 228q81 0 112 46t31 121v238h-298v-253q0 -69 40 -110.5t115 -41.5zM452 0v220l-293 -236l-47 33l211 161h-17q-98 0 -154 55t-56 154v246h-93l-14 47h926l16 -47h-420v-197q23 24 60.5 45t88.5 21q95 0 157.5 -55.5t62.5 -148.5q0 -94 -63 -148.5t-143 -54.5l-11 46
q70 0 112 46t42 111q0 67 -46 110.5t-108 43.5q-64 0 -100 -32.5t-52 -62.5v-373zM300 5q0 19 13 32t32 13t32 -13t13 -32q0 -17 -13 -30t-32 -13t-32 13t-13 30z" />
    <glyph glyph-name="dv_YyRa" horiz-adv-x="613" 
d="M430 0v220l-292 -236l-48 33l212 162q-5 -1 -10.5 -1h-10.5q-88 0 -151.5 56.5t-63.5 128.5l12 14q31 9 56.5 46.5t25.5 92.5q0 42 -19.5 73.5t-54.5 43.5h-83l-14 47h620l15 -47h-136v-649zM281 228q80 0 114.5 40t34.5 124v241h-264q20 -14 35 -47t15 -76
q0 -48 -23.5 -95t-70.5 -71q14 -51 58.5 -82t100.5 -34zM280 24q0 19 12.5 32t31.5 13t32 -13t13 -32q0 -18 -13 -30.5t-32 -12.5t-31.5 12.5t-12.5 30.5z" />
    <glyph glyph-name="dv_KSsRa" horiz-adv-x="758" 
d="M175 572q0 -35 23.5 -62.5t60.5 -49.5q31 27 51.5 54t20.5 52q0 29 -21.5 53.5t-58.5 24.5q-32 0 -54 -20.5t-22 -51.5zM462 -39l-45 -27q-54 100 -64 117l-10 17q-26 -7 -38.5 -8t-39.5 -1q-72 0 -139.5 36.5t-67.5 126.5q0 60 48.5 108t109.5 95q-45 26 -73 62.5
t-28 82.5q0 49 36.5 86.5t103.5 37.5q57 0 96.5 -37t39.5 -86q0 -38 -23 -71.5t-57 -63.5q58 -22 121.5 -31.5t114.5 -9.5h29v285h178l15 -47h-135v-649l-58 16v298l-96 -130l-46 30l116 151h-19q-58 0 -130.5 12.5t-134.5 38.5l-30 -24q-45 -36 -81 -72t-36 -81
q0 -56 44.5 -85t101.5 -29q18 0 31 2t23 6q-5 12 -7.5 22.5t-2.5 19.5q0 21 12.5 31.5t31.5 10.5q22 0 48.5 -14.5t26.5 -39.5q0 -15 -10 -30.5t-29 -31.5z" />
    <glyph glyph-name="dv_KR.half" horiz-adv-x="614" 
d="M413 250v123q-18 31 -53 62t-97 31t-108 -44t-46 -110q0 -67 44.5 -111t109.5 -44q62 0 97 31t53 62zM471 369v-385l-58 16v160l-294 -196l-40 36l165 109q-84 6 -141.5 58.5t-57.5 143.5q0 93 62.5 148.5t158.5 55.5q50 0 87 -20t60 -43v181h-410l-14 47h621l15 -47
h-154v-185q23 25 61 45t90 20h122v-46h-120q-64 0 -100 -34t-53 -64z" />
    <glyph glyph-name="dv_GhR.half" horiz-adv-x="385" 
d="M532 304l9 -64l-307 -278l-45 34l102 91q-98 0 -158.5 47.5t-60.5 121.5q0 49 24.5 91t73.5 58q-40 13 -63.5 50t-23.5 83q0 26 10 51t28 44h-118l-14 47h393l15 -47h-188q-32 -13 -49 -39t-17 -57q0 -49 34 -80.5t105 -31.5h35l19 -43h-49q-89 0 -121.5 -39t-32.5 -88
q0 -54 47 -85t105 -31q20 0 39.5 3t37.5 9z" />
    <glyph glyph-name="dv_TR.half" horiz-adv-x="256" 
d="M267 633h-264l-14 47h262zM382 367q1 -15 1 -57t1 -55l-275 -148l-30 42l294 159q-69 83 -122 104t-96 21q-19 0 -44.5 -9t-47.5 -19l-25 49q22 10 57 19t53 9q46 0 107 -17t127 -98z" />
    <glyph glyph-name="dv_TR.half.alt" horiz-adv-x="346" 
d="M357 633h-354l-14 47h353zM472 448v-43l25 -26l-185 -237q-13 7 -25.5 15.5t-25.5 16.5q46 56 92.5 113t92.5 114h-174q-75 0 -110.5 -30.5t-35.5 -82.5q0 -55 40 -124t83 -132l20 -30l-50 -20q-50 72 -101 155.5t-51 154.5q0 66 45 111t125 45h235z" />
    <glyph glyph-name="dv_DhR.half" horiz-adv-x="407" 
d="M547 304l8 -64l-306 -278l-46 34l102 91h-14q-96 0 -155.5 46.5t-59.5 122.5q0 49 24.5 91t73.5 58q-40 13 -64 50t-24 83q0 63 45.5 109.5t126.5 46.5q47 0 83.5 -18.5t47.5 -34.5l-30 -34q-15 16 -40.5 26.5t-59.5 10.5q-51 0 -81.5 -31t-30.5 -76q0 -49 33.5 -80.5
t104.5 -31.5h36l18 -43h-49q-89 0 -121.5 -39t-32.5 -88q0 -57 50 -86.5t108 -29.5q22 0 43.5 3.5t40.5 10.5z" />
    <glyph glyph-name="dv_PR.half" horiz-adv-x="326" 
d="M474 272q-7 -15 -15.5 -30t-16.5 -30l-283 -228l-47 33l211 161h-17q-98 0 -153.5 55t-55.5 154v246h-94l-14 47h333l15 -47h-183v-253q0 -69 40 -110.5t115 -41.5q65 0 103.5 36.5t40.5 96.5l6 -72z" />
    <glyph glyph-name="dv_VR.half" horiz-adv-x="491" 
d="M502 633h-499l-14 47h497zM45 311q0 87 62.5 145.5t157.5 58.5q87 0 151.5 -56t64.5 -147q0 -30 -7.5 -55.5t-20.5 -46.5l-4 -30l-324 -216l-40 36l163 108q-84 6 -143.5 61t-59.5 142zM263 466q-68 0 -111 -46t-43 -108q0 -67 44.5 -111t109.5 -44q69 0 112 46t43 108
q0 67 -44.5 111t-110.5 44z" />
    <glyph glyph-name="dv_ShR.half" horiz-adv-x="345" 
d="M60 219l-24 48l187 143q-48 40 -69.5 78.5t-21.5 79.5q0 53 38 89.5t95 36.5q55 0 93 -36.5t38 -89.5q0 -40 -21.5 -78.5t-66.5 -78.5l171 -130v-99l-277 -198q-7 12 -15.5 23t-15.5 23q72 50 144.5 101t144.5 102l-195 145zM190 566q0 -33 18 -61t58 -61q43 37 58.5 67
t15.5 55q0 32 -20.5 55t-54.5 23q-32 0 -53.5 -22t-21.5 -56z" />
    <glyph glyph-name="dv_SsR.half" horiz-adv-x="323" 
d="M456 223l-297 -239l-47 33l211 161h-17q-98 0 -153.5 55t-55.5 154v246h-94l-14 47h330l15 -47h-148q198 -224 234 -264l36 -40v-106zM309 228q42 0 73.5 15t48.5 43q-69 78 -138.5 156.5t-138.5 156.5v-219q0 -69 40 -110.5t115 -41.5z" />
    <glyph glyph-name="dv_SR.half" horiz-adv-x="434" 
d="M128 265h-40q-15 0 -22.5 9.5t-7.5 22.5q0 31 21 59.5t52 28.5q16 0 27 -19t18 -39l2 -5q48 13 80.5 55t32.5 100q0 46 -19 90.5t-50 65.5h-219l-14 47h441l15 -47h-146q27 -30 40 -73t13 -83q0 -38 -13 -72.5t-36 -62.5h266v-16q0 -8 1.5 -22t6.5 -43l-225 -261l-60 -18
zM255 299q-16 -10 -34 -18t-37 -12q34 -55 68.5 -110.5t68.5 -109.5l223 250h-289z" />
    <glyph glyph-name="dv_GR.half" horiz-adv-x="290" 
d="M185 633v-408q0 -20 -7 -32t-21 -12q-40 0 -68.5 30.5t-28.5 61.5q0 15 8 24.5t24 9.5h35v326h-124l-14 47h297l15 -47h-116zM431 304l9 -64l-307 -278l-45 34z" />
    <glyph glyph-name="dv_DR.half" horiz-adv-x="578" 
d="M531 -16l-46 -27l-72 134q-17 -4 -28 -6t-27 -2q-18 -34 -36 -67.5t-37 -67.5l-58 18l69 118q-94 7 -166 62.5t-72 163.5q0 100 78.5 159.5t203.5 59.5h58v104h-395l-14 47h584l16 -47h-133v-152h-113q-99 0 -161.5 -47.5t-62.5 -123.5q0 -83 58.5 -129.5t150.5 -46.5
q16 0 32 1.5t29 3.5q-5 13 -8 23t-3 20q0 20 13 30.5t31 10.5q22 0 48.5 -14.5t26.5 -39.5q0 -14 -9.5 -30t-28.5 -31zM525 -293l-205 183l41 42l195 -193q-8 -7 -16 -15.5t-15 -16.5z" />
    <glyph glyph-name="dv_BhR.half" horiz-adv-x="399" 
d="M522 311l17 -57l-323 -270l-46 33q77 61 154.5 124t154.5 124h-212v-37q0 -20 -7 -32t-21 -12q-40 0 -69 31.5t-29 63.5q0 13 9.5 22.5t23.5 9.5h36v191q-13 -10 -31.5 -15.5t-35.5 -5.5q-51 0 -81.5 30t-30.5 76t32.5 76.5t80.5 30.5q60 0 92 -41.5t32 -107.5v-234h254z
M147 524q19 0 35.5 9t26.5 21q-1 38 -15.5 64.5t-48.5 26.5q-28 0 -44 -18t-16 -43q0 -23 16.5 -41.5t45.5 -18.5z" />
    <glyph glyph-name="dv_GRYa" horiz-adv-x="903" 
d="M571 228q80 0 114.5 40t34.5 124v241h-264q20 -14 35 -47t15 -76q0 -48 -23.5 -95t-70.5 -71q14 -51 58.5 -82t100.5 -34zM720 0v235q-22 -28 -62.5 -42.5t-86.5 -14.5q-42 0 -79 13.5t-65 35.5l-294 -265l-45 34l302 270q-16 21 -25 46t-9 51l12 14q31 9 56.5 46.5
t25.5 92.5q0 42 -19.5 73.5t-54.5 43.5h-191v-408q0 -20 -7 -32t-21 -12q-40 0 -68.5 30.5t-28.5 61.5q0 15 8 24.5t24 9.5h35v326h-124l-14 47h910l15 -47h-136v-649z" />
    <glyph glyph-name="dv_ChRYa" horiz-adv-x="1326" 
d="M1143 633h-934q-34 -15 -51.5 -46t-17.5 -71q0 -69 44 -105.5t127 -36.5h35l17 -42h-44q-84 0 -139 -36t-55 -118q0 -70 55.5 -108t130.5 -38q104 0 188.5 64t120.5 146q-62 2 -123.5 49.5t-61.5 120.5q0 64 40 106t102 42q25 0 46.5 -7t37.5 -17h153q34 0 72 -19.5
t38 -61.5q0 -36 -20 -60.5t-69 -50.5q14 -51 58.5 -82t99.5 -34q67 0 108.5 34.5t41.5 102.5v268zM490 412q0 -58 52 -92.5t100 -38.5q13 29 21 60t8 62q0 38 -20 73t-71 35q-43 0 -66.5 -29.5t-23.5 -69.5zM810 490h-108q12 -20 18 -42t6 -41q0 -104 -92.5 -250.5
t-272.5 -168.5l96 -106l-33 -30l-112 123l-114 -123l-33 30l95 106q-91 10 -143.5 60.5t-52.5 131.5q0 49 32.5 102.5t98.5 72.5q-59 22 -88 68.5t-29 90.5q0 34 12 65t34 54h-120l-15 47h1332l16 -47h-136v-649l-58 16v235q-22 -28 -62.5 -42.5t-87.5 -14.5
q-88 0 -151 56.5t-63 128.5l12 14q31 9 56.5 29.5t25.5 43.5q0 14 -12 27t-51 13z" />
    <glyph glyph-name="dv_TtTtYa" horiz-adv-x="1106" 
d="M924 345v288h-486v-113h156q56 0 83.5 -25t27.5 -57q0 -36 -20.5 -60t-69.5 -51q14 -52 58.5 -82.5t100.5 -33.5q66 0 107.5 34t42.5 100zM590 473h-277q-82 0 -135.5 -40t-53.5 -118q0 -82 55 -120.5t135 -38.5q43 0 85.5 10.5t83.5 40.5q2 -13 4.5 -25.5t3.5 -25.5
q-12 -9 -25.5 -16.5t-27.5 -12.5v-147q-31 0 -62 0.5t-62 0.5q-83 0 -136 -40t-53 -119q0 -82 55 -120t134 -38q43 0 86 10.5t84 39.5q1 -13 3.5 -25t4.5 -25q-34 -27 -79 -38.5t-99 -11.5q-104 0 -177.5 51.5t-73.5 156.5q0 106 76 156.5t176 50.5h65v82q-16 -2 -32.5 -3
t-33.5 -1q-104 0 -178 51.5t-74 156.5t76 156t176 51h65v111h-376l-14 47h1113l15 -47h-135v-649l-58 16v219q-22 -28 -63 -43t-87 -15q-89 0 -151.5 56.5t-62.5 128.5l12 14q31 9 56 29.5t25 43.5q0 14 -11.5 27t-51.5 13z" />
    <glyph glyph-name="dv_TthTthYa" horiz-adv-x="1199" 
d="M347 538q46 -2 88 -17t72 -42h179q57 0 84 -24.5t27 -56.5q0 -37 -20 -61t-69 -51q14 -51 58.5 -82t99.5 -34q66 0 108.5 34.5t42.5 100.5v328h-670v-95zM318 164q90 0 144 43.5t54 120.5q0 81 -55.5 121.5t-137.5 40.5q-86 0 -142.5 -44t-56.5 -120q0 -86 56.5 -124
t137.5 -38zM63 326q0 93 65 148t161 63v96h-286l-14 47h1205l15 -47h-134v-649l-58 16v178q-22 -28 -63.5 -43t-87.5 -15q-87 0 -150 57t-63 128l11 14q31 10 56.5 30t25.5 43q0 15 -12 28t-51 13h-136q14 -21 22 -47.5t8 -57.5q0 -97 -67 -151t-163 -61v-80q92 -4 161 -55
t69 -155q0 -103 -76.5 -157.5t-182.5 -54.5q-99 0 -177 50t-78 161q0 93 65 148t161 63v80q-90 7 -158 57t-68 153zM318 -337q90 0 144 43.5t54 119.5q0 81 -55.5 122t-137.5 41q-86 -1 -142.5 -44.5t-56.5 -119.5q0 -87 56.5 -124.5t137.5 -37.5z" />
    <glyph glyph-name="dv_DdDdYa" horiz-adv-x="1031" 
d="M378 633v-80h141q56 0 83.5 -24t27.5 -57q0 -36 -20.5 -60t-68.5 -51q13 -51 57.5 -82t100.5 -34q66 0 108 34t42 100v254h-471zM249 -338q57 1 87 24t30 63q0 37 -24 64t-72 27h-77q-51 0 -86.5 31.5t-35.5 77.5q0 49 35 79.5t88 30.5h125v60q-15 -4 -33 -6t-37 -2
q-48 0 -97 15t-75 32l10 52q31 -20 76 -35.5t86 -15.5q57 0 87 23.5t30 63.5q0 38 -24 65t-72 27h-77q-51 0 -86.5 31t-35.5 76q0 50 35 80.5t88 30.5h125v77h-316l-14 47h1038l15 -47h-135v-649l-58 16v252q-22 -28 -63 -42.5t-87 -14.5q-88 0 -151 56.5t-63 128.5l12 14
q31 9 56 29.5t25 43.5q0 14 -11.5 27t-51.5 13h-316q-31 0 -50.5 -18t-19.5 -44t20.5 -43t51.5 -17h64q72 0 116 -38t44 -99q0 -30 -11.5 -56t-35.5 -44v-138h-179q-31 0 -50.5 -18t-19.5 -43q0 -27 20.5 -44t51.5 -17h64q72 0 116 -38t44 -99q0 -57 -43 -97t-133 -40
q-48 0 -97 15.5t-75 31.5l10 52q31 -20 76 -35t86 -16z" />
    <glyph glyph-name="dv_DdhDdhYa" horiz-adv-x="1116" 
d="M438 633v-105h167q46 0 78 -24.5t32 -57.5q0 -36 -20 -60t-69 -51q14 -52 58 -82.5t100 -33.5q66 0 108 34.5t42 99.5v280h-496zM312 247q0 -31 15.5 -54t42.5 -37q46 11 67.5 38.5t21.5 58.5q0 29 -17.5 50t-52.5 21q-34 0 -55.5 -21t-21.5 -56zM303 -336
q-20 16 -32.5 45t-12.5 51q0 51 35.5 86t87.5 35q56 0 94 -33t38 -84q0 -62 -54.5 -106t-144.5 -44q-104 0 -177.5 54t-73.5 159q0 106 76 159t176 53h65v73q-16 -4 -32 -5.5t-34 -1.5q-104 0 -178 54t-74 159t76 158.5t176 53.5h65v103h-376l-14 47h1123l15 -47h-135v-649
l-58 16v227q-22 -28 -62.5 -43t-87.5 -15q-87 0 -150.5 56.5t-63.5 128.5l12 14q31 9 56.5 29.5t25.5 43.5q0 14 -12 27t-51 13h-288q-82 0 -135.5 -42.5t-53.5 -120.5q0 -79 53 -121.5t128 -42.5q-25 16 -36 44t-11 53q0 51 38 86t90 35q55 0 91 -33t36 -84
q0 -37 -20.5 -68t-54.5 -51v-146q-31 0 -62 0.5t-62 0.5q-83 0 -136 -42.5t-53 -121.5q0 -82 54 -122.5t124 -40.5zM313 -244q0 -29 15 -52.5t42 -37.5q46 11 68 38.5t22 58.5q0 28 -17.5 49t-52.5 21q-34 0 -55.5 -21t-21.5 -56z" />
    <glyph glyph-name="dv_DdhRYa" horiz-adv-x="1187" 
d="M495 633v-145h162q77 0 103 -25t26 -56q0 -36 -20.5 -60.5t-69.5 -50.5q14 -51 58.5 -82t100.5 -34q63 0 106.5 36t43.5 101v316h-510zM350 31q-27 23 -42 54.5t-15 60.5q0 58 41 100t104 42q67 0 107 -38.5t40 -95.5q0 -63 -50 -109.5t-128 -58.5l96 -104l-34 -30
l-111 123l-114 -123l-33 30l93 103q-99 10 -172.5 67.5t-73.5 182.5q0 123 90.5 189.5t221.5 66.5h66v142h-433l-14 47h1194l15 -47h-135v-649l-58 16v187q-22 -28 -63 -42.5t-87 -14.5q-89 0 -151.5 56.5t-62.5 128.5l12 14q31 9 56 29.5t25 43.5q0 15 -11.5 27.5
t-51.5 12.5h-301q-112 0 -181 -55.5t-69 -151.5q0 -107 65.5 -155t164.5 -49zM351 145q0 -37 19.5 -64t52.5 -42q53 13 79 45t26 68q0 32 -21 58t-64 26q-42 0 -67 -25.5t-25 -65.5z" />
    <glyph glyph-name="dv_DGRa" horiz-adv-x="578" 
d="M531 -16l-46 -27l-72 134l-34 -6l-74 -136l-58 18l68 116q-32 1 -63 7t-58 18v-187q0 -20 -7.5 -32t-21.5 -12q-40 0 -68.5 31t-28.5 63q0 15 8.5 23.5t23.5 8.5h35v139q-35 28 -56 70t-21 98q0 100 78.5 159.5t203.5 59.5h58v104h-395l-14 47h584l16 -47h-133v-152h-113
q-99 0 -161.5 -47.5t-62.5 -123.5q0 -83 58.5 -129.5t150.5 -46.5q16 0 32 1.5t29 3.5q-5 13 -8 23t-3 20q0 20 13 30.5t31 10.5q20 0 47.5 -15t27.5 -39q0 -14 -9.5 -30t-28.5 -31z" />
    <glyph glyph-name="dv_DDYa" horiz-adv-x="1066" 
d="M884 365v268h-469v-94h139q57 0 84 -25t27 -56q0 -36 -20 -60.5t-69 -50.5q14 -52 58.5 -82.5t99.5 -34.5q66 0 107.5 34.5t42.5 100.5zM79 419q0 51 38 86.5t102 35.5h138v92h-354l-14 47h1073l15 -47h-135v-649l-58 16v238q-22 -28 -63 -42.5t-87 -14.5
q-88 0 -151 56.5t-63 128.5l12 14q31 9 56.5 29.5t25.5 43.5q0 14 -12 27t-52 13h-335q-37 0 -57.5 -22.5t-20.5 -51.5q0 -32 21 -55.5t57 -23.5h167l18 -46h-99q-87 0 -132 -36t-45 -96q0 -58 43 -93.5t124 -35.5q23 0 45 4.5t41 10.5q-5 13 -8 25t-3 22q0 20 13 31t31 11
q22 0 48.5 -15t26.5 -40q0 -15 -10 -30.5t-28 -30.5l72 -124l-46 -27l-72 133q-24 -7 -51.5 -13t-56.5 -6q-107 0 -168 49t-61 130q0 43 21.5 80.5t66.5 62.5q-34 16 -53.5 46t-19.5 67z" />
    <glyph glyph-name="dv_DBRa" horiz-adv-x="578" 
d="M314 -91q14 0 27.5 2.5t26.5 7.5l-179 187q-6 -13 -9.5 -28.5t-3.5 -31.5q0 -59 39.5 -98t98.5 -39zM328 83q-16 0 -31 1t-30 3q34 -37 70 -73t70 -73q17 15 28.5 35.5t14.5 43.5q-28 53 -33 62l-5 9q-28 -6 -47 -6.5t-37 -1.5zM568 -86l-45 -27l-42 77
q-14 -34 -45 -59.5t-72 -35.5l-64 -113l-59 16l57 91q-76 5 -128.5 53.5t-52.5 128.5q0 25 6.5 49t17.5 43q-37 28 -60 71.5t-23 101.5q0 100 78.5 159.5t203.5 59.5h58v104h-395l-14 47h584l16 -47h-133v-152h-113q-99 0 -161.5 -47.5t-62.5 -123.5q0 -83 58.5 -129.5
t150.5 -46.5q16 0 32 1t29 4q-4 10 -7.5 21.5t-3.5 21.5q0 20 13 30.5t31 10.5q22 0 48.5 -14.5t26.5 -39.5q0 -14 -9.5 -30t-28.5 -31z" />
    <glyph glyph-name="dv_DRYa" horiz-adv-x="753" 
d="M415 633v-140h-200q-32 0 -55 -20t-23 -54q0 -32 21 -55.5t57 -23.5h167l18 -46h-72q-98 0 -151 -28.5t-53 -98.5q0 -58 48 -91t129 -33q20 0 42.5 3.5t44.5 11.5l183 173v402h-156zM79 419q0 51 38 86.5t102 35.5h138v92h-354l-14 47h760l15 -47h-135v-649l-58 16v158
l-265 -248l-46 29l59 56q-4 -1 -9 -1h-9q-110 0 -173.5 46.5t-63.5 127.5q0 42 21 78.5t64 61.5q-33 15 -51.5 45t-18.5 66z" />
    <glyph glyph-name="dv_DVYa" horiz-adv-x="1086" 
d="M904 353v280h-448v-106h118q56 0 83.5 -24.5t27.5 -56.5q0 -37 -20.5 -61t-69.5 -51q14 -51 58.5 -81.5t100.5 -34.5q66 0 108 34.5t42 100.5zM328 83q-37 0 -72 6.5t-66 19.5q-7 -14 -10.5 -30t-3.5 -33q0 -59 39.5 -98t98.5 -39q54 0 92 31.5t44 79.5q-28 53 -33 62
l-5 9q-28 -6 -47 -6.5t-37 -1.5zM569 481h-226q-99 0 -161.5 -47.5t-62.5 -123.5q0 -83 58.5 -129.5t150.5 -46.5q16 0 32 1t29 4q-4 10 -7.5 21.5t-3.5 21.5q0 20 13 30.5t31 10.5q22 0 48.5 -14.5t26.5 -39.5q0 -14 -9.5 -30t-28.5 -31l109 -194l-45 -27l-42 77
q-18 -43 -62.5 -72.5t-103.5 -29.5q-82 0 -140 49.5t-58 133.5q0 25 6.5 49t17.5 43q-37 28 -60 71.5t-23 101.5q0 100 78.5 159.5t203.5 59.5h58v104h-395l-14 47h1092l16 -47h-136v-649l-57 16v226q-22 -28 -63 -43t-87 -15q-89 0 -151.5 56.5t-62.5 128.5l12 14
q30 10 55.5 30t25.5 43q0 15 -12 28t-52 13z" />
    <glyph glyph-name="dv_DVRa" horiz-adv-x="578" 
d="M328 83q-37 0 -72 6.5t-66 19.5q-7 -14 -10.5 -30t-3.5 -33q0 -59 39.5 -98t98.5 -39q54 0 92 31.5t44 79.5q-28 53 -33 62l-5 9q-28 -6 -47 -6.5t-37 -1.5zM568 -86l-45 -27l-42 77q-14 -34 -45 -59.5t-72 -35.5l-64 -113l-59 16l57 91q-76 5 -128.5 53.5t-52.5 128.5
q0 25 6.5 49t17.5 43q-37 28 -60 71.5t-23 101.5q0 100 78.5 159.5t203.5 59.5h58v104h-395l-14 47h584l16 -47h-133v-152h-113q-99 0 -161.5 -47.5t-62.5 -123.5q0 -83 58.5 -129.5t150.5 -46.5q16 0 32 1t29 4q-4 10 -7.5 21.5t-3.5 21.5q0 20 13 30.5t31 10.5
q22 0 48.5 -14.5t26.5 -39.5q0 -14 -9.5 -30t-28.5 -31z" />
    <glyph glyph-name="dv_DhNYa" horiz-adv-x="1027" 
d="M694 228q81 0 115.5 40t34.5 124v241h-264q20 -14 35.5 -47t15.5 -76q0 -48 -23.5 -95t-71.5 -71q14 -51 58.5 -82t99.5 -34zM844 0v235q-22 -28 -62.5 -42.5t-87.5 -14.5q-44 0 -83.5 15.5t-68.5 41.5l-231 -214l12 -10q12 -8 22 -20.5t10 -27.5q0 -22 -25 -29.5
t-43 -7.5q-24 0 -53 14t-29 44q0 16 40 51.5t58 51.5q-93 0 -160 41t-67 128q0 47 24 90t74 59q-42 13 -65 50.5t-23 82.5q0 69 50 112.5t125 43.5q38 0 78 -16t55 -37l-30 -34q-17 19 -44 28t-58 9q-50 0 -82.5 -31t-32.5 -76q0 -69 48 -90.5t126 -21.5l18 -43
q-104 0 -153.5 -26.5t-49.5 -100.5q0 -60 52.5 -88t105.5 -28q20 0 39.5 3t38.5 8l68 62l68 62q-13 20 -20.5 43t-7.5 46l12 14q31 9 56.5 46.5t25.5 92.5q0 42 -19 73.5t-55 43.5h-44l-14 47h581l15 -47h-136v-649z" />
    <glyph glyph-name="dv_NNYa" horiz-adv-x="904" 
d="M572 228q81 0 115.5 41t34.5 126v238h-264q20 -14 35 -47t15 -76q0 -48 -23.5 -95t-70.5 -71q14 -51 58 -82t100 -34zM722 0v235q-22 -28 -62.5 -42.5t-87.5 -14.5q-66 0 -119.5 33.5t-77.5 82.5q-50 -28 -100.5 -57.5t-100.5 -58.5l18 -31q4 -8 6.5 -15t2.5 -14
q0 -17 -20.5 -27t-36.5 -10q-27 0 -59.5 17t-32.5 45q0 8 5 17.5t13 13.5l286 165l-198 115q-15 -22 -25 -41t-27 -19q-29 0 -45.5 34t-16.5 59q0 16 12 38t31 22q1 0 3.5 -0.5t3.5 -0.5l288 -166q28 14 49 50.5t21 85.5q0 42 -19.5 73.5t-54.5 43.5h-375l-14 47h912l15 -47
h-136v-649z" />
    <glyph glyph-name="dv_PTthYa" horiz-adv-x="1114" 
d="M161 498q0 -68 37 -108t96 -40q60 0 96.5 39.5t36.5 108.5v135h-266v-135zM932 633h-447v-89h124q34 0 69 -19.5t35 -61.5q0 -36 -20.5 -60.5t-69.5 -50.5q14 -51 58.5 -82t100.5 -34q66 0 108 35t42 102v260zM598 498h-113q0 -63 -26 -108t-63 -65q46 -23 74 -65t28 -96
q0 -81 -57.5 -132t-143.5 -51q-85 0 -145.5 51t-60.5 132q0 55 27 97t73 64q-40 23 -64 67.5t-24 107.5v133h-100l-14 47h1121l15 -47h-135v-649l-58 16v243q-22 -28 -63 -42.5t-87 -14.5q-88 0 -151.5 56.5t-63.5 128.5l13 14q31 9 56.5 29.5t25.5 43.5q0 14 -12 27t-52 13
zM435 164q0 59 -41 96.5t-100 37.5q-58 0 -99.5 -37.5t-41.5 -96.5t42 -96.5t99 -37.5q59 0 100 37.5t41 96.5z" />
    <glyph glyph-name="dv_BhRYa" horiz-adv-x="1012" 
d="M830 0v235q-22 -28 -63 -42.5t-87 -14.5q-45 0 -85.5 16t-69.5 43l-309 -253l-46 33q78 61 157.5 124t157.5 124h-218v-37q0 -20 -7 -32t-21 -12q-40 0 -69 31.5t-29 63.5q0 13 9.5 22.5t23.5 9.5h36v191q-13 -10 -31.5 -15.5t-35.5 -5.5q-51 0 -81.5 30t-30.5 76
t32.5 76.5t80.5 30.5q60 0 92 -41.5t32 -107.5v-234h207q-4 12 -6.5 25.5t-2.5 26.5l12 14q31 9 56.5 46.5t25.5 92.5q0 42 -19.5 73.5t-55.5 43.5h-82l-15 47h620l16 -47h-136v-649zM147 524q19 0 35.5 9t26.5 21q-1 38 -15.5 64.5t-48.5 26.5q-28 0 -44 -18t-16 -43
q0 -23 16.5 -41.5t45.5 -18.5zM680 228q80 0 115 41t35 126v238h-264q19 -14 34.5 -47t15.5 -76q0 -48 -23.5 -95t-70.5 -71q13 -51 57.5 -82t100.5 -34z" />
    <glyph glyph-name="dv_ShRYa" horiz-adv-x="967" 
d="M785 0v235q-22 -28 -63 -42.5t-87 -14.5q-33 0 -63 8t-55 23l-315 -225q-7 12 -15.5 23t-15.5 23q72 50 144.5 101t144.5 102l-195 145l-205 -159l-24 48l187 143q-48 40 -69.5 78.5t-21.5 79.5q0 53 38 89.5t95 36.5q18 0 34.5 -4.5t31.5 -12.5q-1 1 -1 1.5v1.5h633
l15 -47h-135v-649zM190 566q0 -33 18 -61t58 -61q43 37 58.5 67t15.5 55q0 32 -20.5 55t-54.5 23q-32 0 -53.5 -22t-21.5 -56zM396 568q0 -40 -21.5 -78.5t-66.5 -78.5l119 -90q-4 10 -5 21t-1 21l12 14q31 9 56 46.5t25 92.5q0 42 -19 73.5t-55 43.5h-63q9 -14 14 -30.5
t5 -34.5zM635 228q79 0 114.5 40t35.5 124v241h-265q20 -14 35 -47t15 -76q0 -48 -23 -95t-71 -71q14 -51 58.5 -82t100.5 -34z" />
    <glyph glyph-name="dv_SsTtYa" horiz-adv-x="1114" 
d="M413 423q7 16 10.5 34.5t3.5 40.5v135h-224zM932 633h-447v-89h117q44 0 77.5 -19.5t33.5 -61.5q0 -36 -20.5 -60.5t-69.5 -50.5q14 -51 58.5 -82t100.5 -34q83 0 116.5 43t33.5 129v225zM161 498q0 -68 37 -108t96 -40q28 0 52 9t41 26l-226 224v-111zM304 30
q47 0 88.5 14.5t79.5 44.5l9 -51q-32 -27 -78 -42t-97 -15q-90 0 -153.5 47.5t-63.5 136.5q0 51 25.5 94.5t71.5 68.5q-43 26 -63 74.5t-20 122.5v108h-100l-14 47h1121l15 -47h-135v-649l-58 16v243q-22 -28 -63 -42.5t-87 -14.5q-88 0 -151.5 56.5t-63.5 128.5l13 14
q31 9 56.5 29.5t25.5 43.5q0 14 -12 27t-52 13h-113q0 -10 -1.5 -19.5t-4.5 -18.5q-10 -80 -62 -120t-123 -40h-5h-7.5t-7.5 1q-56 -4 -89.5 -43t-33.5 -92q0 -62 42 -99t111 -37z" />
    <glyph glyph-name="dv_SsTtVa" horiz-adv-x="572" 
d="M411 419q8 16 12 36t4 43v135h-227q52 -53 105.5 -106.5t105.5 -107.5zM161 498q0 -68 37 -108t96 -40q26 0 49 8t40 23l-222 226v-109zM415 -343v89q-19 -28 -57.5 -47.5t-86.5 -19.5q-91 0 -142.5 47t-51.5 130q0 57 29 97.5t68 59.5q-39 22 -62 60.5t-23 91.5
q0 51 25.5 94.5t71.5 68.5q-38 24 -60.5 67t-22.5 105v133h-100l-14 47h579l16 -47h-99v-133q0 -99 -55 -149.5t-136 -50.5q-7 0 -15 0.5t-15 1.5q-51 -8 -82 -47t-31 -89q0 -62 42 -99t111 -37q46 0 88 15t80 44l9 -51l-8 -6v-391zM306 -19q-16 0 -32 2t-31 6
q-44 -11 -73.5 -49t-29.5 -84q0 -61 35.5 -94.5t92.5 -33.5t96 33t51 65v174q-25 -9 -52.5 -14t-56.5 -5z" />
    <glyph glyph-name="dv_SsTthYa" horiz-adv-x="1114" 
d="M413 423q7 16 10.5 34.5t3.5 40.5v135h-224zM932 633h-447v-89h117q43 0 77 -19.5t34 -61.5q0 -36 -20.5 -60.5t-69.5 -50.5q14 -51 58.5 -82t100.5 -34q83 0 116.5 43t33.5 129v225zM161 498q0 -68 37 -108t96 -40q28 0 52 9t41 26l-226 224v-111zM598 498h-113
q0 -63 -26 -108t-63 -65q46 -23 74 -65t28 -96q0 -81 -57.5 -132t-143.5 -51q-85 0 -145.5 51t-60.5 132q0 55 27 97t73 64q-40 23 -64 67.5t-24 107.5v133h-100l-14 47h1121l15 -47h-135v-649l-58 16v243q-22 -28 -63 -42.5t-87 -14.5q-88 0 -151.5 56.5t-63.5 128.5l13 14
q31 9 56.5 29.5t25.5 43.5q0 14 -12 27t-52 13zM435 164q0 59 -41 96.5t-100 37.5q-58 0 -99.5 -37.5t-41.5 -96.5t42 -96.5t99 -37.5q59 0 100 37.5t41 96.5z" />
    <glyph glyph-name="dv_HMYa" horiz-adv-x="1401" 
d="M1219 0v235q-22 -28 -63 -42.5t-87 -14.5q-63 0 -115 30.5t-77 76.5h-243v-37q0 -20 -7.5 -32t-21.5 -12q-40 0 -68.5 31t-28.5 63q0 7 2 13t6 10h-231q-66 0 -106.5 -34.5t-40.5 -90.5q0 -85 78 -122.5t155 -42.5l-15 -47q-106 6 -191 59.5t-85 152.5q0 44 17 77t48 55
q-23 15 -40.5 42.5t-17.5 59.5q0 54 35.5 82.5t98.5 28.5h157v92h-375l-14 47h1408l15 -47h-135v-649zM435 633v-140h-221q-31 0 -50.5 -18t-19.5 -44q0 -22 15 -44t39 -32q19 7 41.5 10t47.5 3h289v265h-141zM949 516q0 42 -19.5 73.5t-55.5 43.5h-240v-302h224
q-1 7 -2 15.5t-1 16.5l12 14q31 9 56.5 46.5t25.5 92.5zM910 344q14 -48 60 -82t99 -34q66 0 108 34.5t42 102.5v268h-264q19 -14 34.5 -47t15.5 -76q0 -48 -23.5 -95t-71.5 -71z" />
    <glyph glyph-name="dv_NgYa" horiz-adv-x="1152" 
d="M970 339v294h-542v-119h212q59 0 85 -24.5t26 -57.5q0 -36 -20.5 -60t-69.5 -50q14 -53 58.5 -83.5t100.5 -33.5q66 0 107.5 34t42.5 100zM274 29q71 0 113.5 31.5t42.5 84.5q0 48 -33.5 82.5t-93.5 34.5h-97q-58 0 -103.5 36t-45.5 91q0 60 43.5 93t107.5 33h162v118
h-367l-14 47h1159l15 -47h-135v-649l-58 16v212q-22 -28 -63 -42.5t-87 -14.5q-89 0 -151.5 56.5t-62.5 128.5l12 14q31 9 56 29.5t25 44.5q0 13 -11.5 26t-51.5 13h-435q-39 0 -62 -23.5t-23 -54.5q0 -33 24 -56t63 -23h91q87 0 141 -42t54 -120q0 -69 -52.5 -118
t-162.5 -49q-61 0 -120.5 18t-88.5 39l12 52q36 -25 90 -42.5t107 -18.5zM462 368q0 19 12.5 32t31.5 13t32 -13t13 -32q0 -18 -13 -31t-32 -13t-31.5 13t-12.5 31z" />
    <glyph glyph-name="dv_TtTta" horiz-adv-x="550" 
d="M314 -337q43 0 86 10.5t84 39.5l8 -50q-34 -26 -79 -37.5t-99 -11.5q-104 0 -177.5 51.5t-73.5 156.5t76 156t176 51h65v82q-16 -2 -32.5 -3t-33.5 -1q-104 0 -178 51.5t-74 156.5t76 156t176 51h65v111h-376l-14 47h557l15 -47h-123v-160h-125q-82 0 -135.5 -40
t-53.5 -118q0 -82 55 -120.5t135 -38.5q43 0 85.5 10.5t83.5 40.5l8 -51q-12 -9 -25.5 -16.5t-27.5 -12.5v-147h-124q-83 0 -136 -40t-53 -118q0 -82 55 -120.5t134 -38.5z" />
    <glyph glyph-name="dv_TtTtha" horiz-adv-x="587" 
d="M314 156q43 0 85.5 10.5t83.5 40.5l8 -51q-29 -22 -65.5 -33.5t-78.5 -14.5v-72q92 -4 161 -55t69 -155q0 -103 -76.5 -157.5t-182.5 -54.5q-99 0 -177 50t-78 161q0 93 65 148t161 63v72q-95 5 -161 56.5t-66 150.5q0 105 76 156t176 51h65v111h-376l-14 47h588l15 -47
h-154v-160h-125q-82 0 -135.5 -40t-53.5 -118q0 -82 55 -120.5t135 -38.5zM318 -337q90 0 144 43.5t54 119.5q0 81 -55.5 122t-137.5 41q-86 -1 -142.5 -44.5t-56.5 -119.5q0 -87 56.5 -124.5t137.5 -37.5z" />
    <glyph glyph-name="dv_TtDdha" horiz-adv-x="550" 
d="M303 -337q-23 16 -34 44.5t-11 52.5q0 51 38 86t90 35q56 0 91.5 -33t35.5 -84q0 -63 -54.5 -106.5t-144.5 -43.5q-104 0 -177.5 54t-73.5 159t76 158.5t176 53.5h65v77q-16 -2 -32.5 -3t-33.5 -1q-104 0 -178 51.5t-74 156.5t76 156t176 51h65v106h-376l-14 47h557
l15 -47h-123v-155h-125q-82 0 -135.5 -40t-53.5 -118q0 -82 55 -120.5t135 -38.5q43 0 85.5 10.5t83.5 40.5l8 -51q-12 -9 -25.5 -16.5t-27.5 -12.5v-142h-124q-83 0 -136 -42.5t-53 -120.5q0 -82 54 -123t124 -41zM313 -244q0 -30 15 -53.5t42 -36.5q46 11 68 38t22 58
q0 28 -17.5 49.5t-52.5 21.5q-34 0 -55.5 -21.5t-21.5 -55.5z" />
    <glyph glyph-name="dv_TtYa" horiz-adv-x="1149" 
d="M495 633v-161h142q56 0 83.5 -24.5t27.5 -56.5q0 -37 -20.5 -61t-69.5 -51q14 -51 58.5 -82t100.5 -34q66 0 108 35t42 103v332h-472zM358 31q55 0 104.5 15t95.5 48l8 -53q-38 -29 -93 -44t-115 -15q-115 0 -207.5 52t-92.5 193q0 124 90.5 186t221.5 62h67v158h-434
l-14 47h1156l15 -47h-135v-649l-58 16v171q-22 -28 -63 -43t-87 -15q-89 0 -151.5 57t-62.5 128l12 14q31 10 56 30t25 43q0 15 -11.5 28t-51.5 13h-263q-112 0 -181 -51.5t-69 -147.5q0 -109 68.5 -152.5t169.5 -43.5z" />
    <glyph glyph-name="dv_TtVa" horiz-adv-x="611" 
d="M358 31q55 0 104.5 15t95.5 48l8 -53q-10 -8 -21.5 -15t-24.5 -13v-372l-58 16v82q-19 -28 -60 -47t-89 -19q-91 0 -145.5 47t-54.5 129q0 57 29 96.5t66 58.5q-65 23 -107.5 76.5t-42.5 146.5q0 124 90.5 186t221.5 62h67v158h-434l-14 47h618l15 -47h-127v-207h-125
q-112 0 -181 -51.5t-69 -147.5q0 -109 68.5 -152.5t169.5 -43.5zM358 -18q-16 0 -31.5 1t-31.5 3q-51 -6 -84.5 -46t-33.5 -91q0 -61 38 -94t95 -33t98.5 33t53.5 64v175q-25 -6 -51 -9t-53 -3z" />
    <glyph glyph-name="dv_TthTtha" horiz-adv-x="623" 
d="M634 633h-287v-95q92 -4 161 -55.5t69 -154.5q0 -97 -67 -151t-163 -61v-80q92 -4 161 -55t69 -155q0 -103 -76.5 -157.5t-182.5 -54.5q-99 0 -177 50t-78 161q0 93 65 148t161 63v80q-90 7 -158 57t-68 153q0 93 65 148t161 63v96h-286l-14 47h629zM318 164
q90 0 144 43.5t54 120.5q0 81 -55.5 121.5t-137.5 40.5q-86 0 -142.5 -44t-56.5 -120q0 -86 56.5 -124t137.5 -38zM318 -337q90 0 144 43.5t54 119.5q0 81 -55.5 122t-137.5 41q-86 -1 -142.5 -44.5t-56.5 -119.5q0 -87 56.5 -124.5t137.5 -37.5z" />
    <glyph glyph-name="dv_TthYa" horiz-adv-x="1241" 
d="M385 473l22 -2l22 -2h300q56 0 83.5 -24.5t27.5 -56.5q0 -37 -20.5 -61t-68.5 -51q13 -51 57.5 -82t100.5 -34q66 0 108 34.5t42 100.5v338h-674v-160zM358 32q100 0 169 50.5t69 146.5q0 107 -68.5 151t-169.5 44q-100 0 -169 -50.5t-69 -146.5q0 -107 68.5 -151
t169.5 -44zM59 227q0 112 77.5 174.5t190.5 70.5v161h-324l-14 47h1248l15 -47h-135v-649l-58 16v168q-22 -28 -63 -43t-87 -15q-88 0 -151 57t-63 128l12 14q31 10 56 30t25 43q0 15 -11.5 28t-51.5 13h-166q44 -29 71 -77t27 -117q0 -122 -88 -184.5t-211 -62.5
q-117 0 -208 55.5t-91 189.5z" />
    <glyph glyph-name="dv_DdTta" horiz-adv-x="478" 
d="M269 -337q43 0 85.5 10.5t83.5 39.5l8 -50q-34 -26 -79 -37.5t-98 -11.5q-104 0 -177.5 51.5t-73.5 156.5t75.5 156t175.5 51h66v96q-18 -7 -39.5 -10.5t-46.5 -3.5q-48 0 -97 15t-75 32l10 52q31 -20 76 -35.5t86 -15.5q57 0 87 23.5t30 63.5q0 38 -24 65t-72 27h-77
q-51 0 -86.5 31t-35.5 76q0 50 35 80.5t88 30.5h125v77h-316l-14 47h485l15 -47h-111v-126h-179q-31 0 -50.5 -18t-19.5 -44t20.5 -43t51.5 -17h64q72 0 116 -38t44 -99q0 -25 -8.5 -46.5t-24.5 -37.5v-184h-124q-82 0 -135.5 -40t-53.5 -118q0 -82 55 -120.5t135 -38.5z
" />
    <glyph glyph-name="dv_DdDda" horiz-adv-x="478" 
d="M249 -338q57 1 87 24t30 63q0 37 -24 64t-72 27h-77q-51 0 -86.5 31.5t-35.5 77.5q0 49 35 79.5t88 30.5h125v60q-15 -4 -33 -6t-37 -2q-48 0 -97 15t-75 32l10 52q31 -20 76 -35.5t86 -15.5q57 0 87 23.5t30 63.5q0 38 -24 65t-72 27h-77q-51 0 -86.5 31t-35.5 76
q0 50 35 80.5t88 30.5h125v77h-316l-14 47h485l15 -47h-111v-126h-179q-31 0 -50.5 -18t-19.5 -44t20.5 -43t51.5 -17h64q72 0 116 -38t44 -99q0 -30 -11.5 -56t-35.5 -44v-138h-179q-31 0 -50.5 -18t-19.5 -43q0 -27 20.5 -44t51.5 -17h64q72 0 116 -38t44 -99
q0 -57 -43 -97t-133 -40q-48 0 -97 15.5t-75 31.5l10 52q31 -20 76 -35t86 -16z" />
    <glyph glyph-name="dv_DdDdha" horiz-adv-x="478" 
d="M249 159q57 0 87 23.5t30 63.5q0 38 -24 65t-72 27h-77q-51 0 -86.5 31t-35.5 76q0 49 36 80t87 31h125v77h-316l-14 47h485l15 -47h-111v-126h-179q-30 0 -50 -19t-20 -43q0 -26 20.5 -43t51.5 -17h64q72 0 116 -38t44 -99q0 -24 -7.5 -45.5t-23.5 -37.5v-175
q-31 0 -62 0.5t-62 0.5q-83 0 -136.5 -42.5t-53.5 -121.5q0 -80 54 -121.5t127 -41.5q-25 16 -36 44t-11 52q0 51 38 86t91 35q54 0 90 -33t36 -84q0 -62 -55 -106t-144 -44q-104 0 -177.5 54t-73.5 159q0 106 76 159t176 53h65v86q-18 -7 -40 -10.5t-47 -3.5q-48 0 -97 15
t-75 32l10 52q31 -20 76 -35.5t86 -15.5zM268 -244q0 -29 15.5 -52.5t42.5 -37.5q46 11 68 38.5t22 58.5q0 28 -18 49t-52 21q-35 0 -56.5 -21t-21.5 -56z" />
    <glyph glyph-name="dv_DdYa" horiz-adv-x="1112" 
d="M930 633h-502v-119h172q54 0 82.5 -24.5t28.5 -57.5q0 -36 -20.5 -60t-69.5 -50q14 -53 58.5 -83.5t100.5 -33.5q66 0 108 34t42 100v294zM274 29q69 0 112.5 32t43.5 84q0 48 -33.5 82.5t-93.5 34.5h-97q-58 0 -103.5 36t-45.5 91q0 60 43.5 93t107.5 33h162v118h-367
l-14 47h1119l15 -47h-135v-649l-58 16v212q-22 -28 -63 -42.5t-87 -14.5q-89 0 -151.5 56.5t-62.5 128.5l12 14q31 9 56 29.5t25 44.5q0 13 -11.5 26t-51.5 13h-395q-39 0 -62 -23.5t-23 -54.5q0 -33 24 -56t63 -23h91q87 0 141 -42t54 -120q0 -69 -52.5 -118t-162.5 -49
q-61 0 -120.5 18t-88.5 39l12 52q36 -25 90 -42.5t107 -18.5z" />
    <glyph glyph-name="dv_DdhDdha" horiz-adv-x="550" 
d="M312 247q0 -31 15.5 -54t42.5 -37q46 11 67.5 38.5t21.5 58.5q0 29 -17.5 50t-52.5 21q-34 0 -55.5 -21t-21.5 -56zM303 -336q-21 16 -33 45t-12 51q0 51 38 86t90 35q56 0 91.5 -33t35.5 -84q0 -62 -54.5 -106t-144.5 -44q-104 0 -177.5 54t-73.5 159q0 106 76 159
t176 53h65v73q-16 -4 -32 -5.5t-34 -1.5q-104 0 -178 54t-74 159t76 158.5t176 53.5h65v103h-376l-14 47h557l15 -47h-123v-152h-125q-82 0 -135.5 -42.5t-53.5 -120.5q0 -80 53 -122t128 -42q-25 16 -36 44t-11 53q0 51 38 86t90 35q55 0 91 -33t36 -84q0 -37 -20.5 -68
t-54.5 -51v-146q-31 0 -62 0.5t-62 0.5q-83 0 -136 -42.5t-53 -121.5q0 -82 54 -122.5t124 -40.5zM313 -244q0 -29 15 -52.5t42 -37.5q46 11 68 38.5t22 58.5q0 28 -17.5 49t-52.5 21q-34 0 -55.5 -21t-21.5 -56z" />
    <glyph glyph-name="dv_DdhYa" horiz-adv-x="1149" 
d="M967 314v319h-472v-145h142q45 0 78 -19.5t33 -61.5q0 -36 -20.5 -60.5t-69.5 -50.5q14 -51 58.5 -82t100.5 -34q66 0 107.5 34t42.5 100zM350 31q-32 24 -44.5 55t-12.5 60q0 58 41 100t104 42q67 0 107 -38.5t40 -95.5q0 -72 -65 -122t-162 -50q-115 0 -207.5 56
t-92.5 197q0 123 90.5 189.5t221.5 66.5h66v142h-433l-14 47h1156l15 -47h-135v-649l-58 16v187q-22 -28 -63 -42.5t-87 -14.5q-89 0 -151.5 56.5t-62.5 128.5l12 14q31 9 56 29.5t25 43.5q0 15 -11.5 27.5t-51.5 12.5h-263q-112 0 -181 -55.5t-69 -151.5q0 -107 65.5 -155
t164.5 -49zM351 145q0 -37 19.5 -64t52.5 -42q53 13 79 45t26 68q0 32 -21 58t-64 26q-42 0 -67 -25.5t-25 -65.5z" />
    <glyph glyph-name="dv_DGa" horiz-adv-x="578" 
d="M531 -16l-46 -27l-72 134q-17 -5 -40 -6.5t-45 -1.5q-35 0 -69.5 6t-64.5 19v-187q0 -20 -7.5 -32t-21.5 -12q-40 0 -68.5 31t-28.5 63q0 15 8.5 23.5t23.5 8.5h35v139q-35 28 -56 70t-21 98q0 100 78.5 159.5t203.5 59.5h58v104h-395l-14 47h584l16 -47h-133v-152h-113
q-99 0 -161.5 -47.5t-62.5 -123.5q0 -83 58.5 -129.5t150.5 -46.5q16 0 32 1.5t29 3.5q-5 13 -8 23t-3 20q0 20 13 30.5t31 10.5q20 0 47.5 -15t27.5 -39q0 -14 -9.5 -30t-28.5 -31z" />
    <glyph glyph-name="dv_DDa" horiz-adv-x="525" 
d="M79 419q0 51 38 86.5t102 35.5h138v92h-354l-14 47h531l16 -47h-121v-140h-200q-36 0 -57 -20.5t-21 -53.5q0 -32 21 -55.5t57 -23.5h167l18 -46h-82q-93 0 -143.5 -32t-50.5 -100q0 -58 43 -93.5t124 -35.5q23 0 45 4t41 11q-5 13 -8 25t-3 22q0 20 13 31t31 11
q20 0 47.5 -15.5t27.5 -39.5q0 -15 -10 -30.5t-28 -30.5l72 -124l-46 -27l-72 133q-24 -7 -51.5 -13t-56.5 -6q-107 0 -168 49t-61 130q0 43 21.5 80.5t66.5 62.5q-34 16 -53.5 46t-19.5 67z" />
    <glyph glyph-name="dv_DNa" horiz-adv-x="578" 
d="M531 -16l-46 -27l-72 134q-9 -3 -21.5 -5t-32.5 -3q-13 -20 -26 -41t-26 -41q1 0 1.5 -0.5l1.5 -1.5q10 -6 26.5 -19.5t16.5 -30.5q0 -23 -26 -39t-53 -16q-19 0 -44 9.5t-25 34.5q0 19 32 66.5t51 72.5l5 7q-96 9 -165.5 65t-69.5 161q0 110 82.5 164.5t198.5 54.5h59
v104h-395l-14 47h584l16 -47h-133v-152q-29 0 -61.5 -0.5t-64.5 -1.5q-90 -4 -150.5 -45.5t-60.5 -123.5q0 -84 59.5 -130t149.5 -46q16 0 32 1.5t29 3.5q-5 13 -8 23.5t-3 19.5q0 20 13.5 30.5t30.5 10.5q19 0 47 -15t28 -39q0 -16 -11 -32t-27 -29z" />
    <glyph glyph-name="dv_DBa" horiz-adv-x="578" 
d="M314 -91q14 0 27.5 2.5t26.5 7.5l-179 187q-6 -13 -9.5 -28.5t-3.5 -31.5q0 -59 39.5 -98t98.5 -39zM328 83q-16 0 -31 1t-30 3q34 -37 70 -73t70 -73q17 15 28.5 35.5t14.5 43.5q-28 53 -33 62l-5 9q-28 -6 -47 -6.5t-37 -1.5zM568 -86l-45 -27l-42 77
q-18 -43 -62.5 -72.5t-103.5 -29.5q-82 0 -140 49.5t-58 133.5q0 25 6.5 49t17.5 43q-37 28 -60 71.5t-23 101.5q0 100 78.5 159.5t203.5 59.5h58v104h-395l-14 47h584l16 -47h-133v-152h-113q-99 0 -161.5 -47.5t-62.5 -123.5q0 -83 58.5 -129.5t150.5 -46.5q16 0 32 1
t29 4q-4 10 -7.5 21.5t-3.5 21.5q0 20 13 30.5t31 10.5q22 0 48.5 -14.5t26.5 -39.5q0 -14 -9.5 -30t-28.5 -31z" />
    <glyph glyph-name="dv_DMa" horiz-adv-x="835" 
d="M66 384q1 57 43 94t106 37h167v118h-379l-14 47h842l16 -47h-136v-649l-58 16v78h-213v-37q0 -20 -7.5 -32t-22.5 -12q-40 0 -68.5 31t-28.5 63q0 13 8.5 22.5t24.5 9.5h35v130h-165q-61 0 -105 38.5t-45 92.5zM441 633v-166h-229q-38 0 -63 -24t-25 -59q0 -37 25.5 -60
t63.5 -23h227v-178h213v510h-212z" />
    <glyph glyph-name="dv_DYa" horiz-adv-x="753" 
d="M79 419q0 51 38 86.5t102 35.5h138v92h-354l-14 47h760l15 -47h-135v-649l-58 16v135q-26 -53 -101.5 -102t-173.5 -49q-110 0 -171 49t-61 130q0 43 21.5 81t66.5 63q-34 15 -53.5 45t-19.5 67zM415 633v-140h-200q-36 0 -57 -20.5t-21 -53.5q0 -32 21 -55.5t57 -23.5
h167l18 -46h-72q-98 0 -151 -30.5t-53 -101.5q0 -58 45.5 -93.5t126.5 -35.5q85 0 180 69t95 223v308h-156z" />
    <glyph glyph-name="dv_DVa" horiz-adv-x="578" 
d="M328 83q-37 0 -72 6.5t-66 19.5q-7 -14 -10.5 -30t-3.5 -33q0 -59 39.5 -98t98.5 -39q54 0 92 31.5t44 79.5q-28 53 -33 62l-5 9q-28 -6 -47 -6.5t-37 -1.5zM568 -86l-45 -27l-42 77q-18 -43 -62.5 -72.5t-103.5 -29.5q-82 0 -140 49.5t-58 133.5q0 25 6.5 49t17.5 43
q-37 28 -60 71.5t-23 101.5q0 100 78.5 159.5t203.5 59.5h58v104h-395l-14 47h584l16 -47h-133v-152h-113q-99 0 -161.5 -47.5t-62.5 -123.5q0 -83 58.5 -129.5t150.5 -46.5q16 0 32 1t29 4q-4 10 -7.5 21.5t-3.5 21.5q0 20 13 30.5t31 10.5q22 0 48.5 -14.5t26.5 -39.5
q0 -14 -9.5 -30t-28.5 -31z" />
    <glyph glyph-name="dv_HMa" horiz-adv-x="922" 
d="M285 338q-66 0 -106.5 -38.5t-40.5 -94.5q0 -85 78 -127t155 -47l-15 -47q-106 6 -191 64t-85 157q0 43 16 77.5t44 58.5q-22 13 -37.5 37.5t-15.5 54.5q0 54 35.5 81t98.5 27h157v92h-375l-14 47h929l15 -47h-135v-649l-59 16v329h-230v-37q0 -21 -7.5 -33t-21.5 -12
q-30 0 -55 18.5t-35 43.5q-19 13 -46 21t-59 8zM435 633v-140h-221q-31 0 -50.5 -16.5t-19.5 -42.5q0 -24 13.5 -40.5t33.5 -24.5q21 8 45 12.5t51 4.5q30 0 56.5 -5.5t47.5 -15.5q4 4 11 6.5t14 2.5h323v259h-304z" />
    </font>
</defs>
</svg>
